<svg width="56" height="57" viewBox="0 0 56 57" fill="none" xmlns="http://www.w3.org/2000/svg">
<path d="M54.1935 35.7258H46.9677V32.1129H52.3871C54.3797 32.1129 56 30.4926 56 28.5C56 26.7985 54.8167 25.3678 53.2317 24.9863C52.8414 22.379 50.5859 20.371 47.871 20.371C47.5658 20.371 47.265 20.4062 46.9677 20.4578V5.91935H43.3548V0.5H12.6452V2.39333C12.0127 2.50227 11.4023 2.71749 10.8387 3.04782C10.0096 2.56137 9.08474 2.30645 8.12903 2.30645C5.41406 2.30645 3.15864 4.31445 2.76833 6.92181C1.18328 7.3033 0 8.734 0 10.4355C0 12.428 1.62034 14.0484 3.6129 14.0484H9.03226V31.2097H1.80645V51.0806H0V56.5H56V51.0806H54.1935V35.7258ZM51.4839 25.7903V26.6935H52.3871C53.3834 26.6935 54.1935 27.5037 54.1935 28.5C54.1935 29.4963 53.3834 30.3064 52.3871 30.3064H37.9355C36.9392 30.3064 36.129 29.4963 36.129 28.5C36.129 27.5037 36.9392 26.6935 37.9355 26.6935H38.8387V25.7903C38.8387 23.7978 40.459 22.1774 42.4516 22.1774C43.2256 22.1774 43.9754 22.4341 44.6166 22.9179L45.1613 23.3289L45.706 22.9179C46.3472 22.4341 47.097 22.1774 47.871 22.1774C49.8635 22.1774 51.4839 23.7978 51.4839 25.7903ZM45.1613 21.1123C44.3322 20.6259 43.4073 20.371 42.4516 20.371C40.0978 20.371 38.0934 21.8828 37.3476 23.9839H30.7097V25.7903H35.5535C34.8002 26.4532 34.3226 27.4208 34.3226 28.5C34.3226 30.4926 35.9429 32.1129 37.9355 32.1129H45.1613V35.7258H28.9032V7.72581H45.1613V21.1123ZM41.5484 5.91935H28.9032V2.30645H41.5484V5.91935ZM27.0968 2.30645V5.91935H14.4516V2.30645H27.0968ZM3.6129 12.2419C2.61662 12.2419 1.80645 11.4318 1.80645 10.4355C1.80645 9.4392 2.61662 8.62903 3.6129 8.62903H4.51613V7.72581C4.51613 5.73324 6.13647 4.1129 8.12903 4.1129C8.90304 4.1129 9.65278 4.36958 10.294 4.85339L10.8387 5.26443L11.3834 4.85339C11.7697 4.56187 12.198 4.36385 12.6452 4.24389V5.91935H9.03226V12.2419H3.6129ZM10.8387 7.72581H27.0968V35.7258H25.2903V31.2097H10.8387V7.72581ZM3.6129 33.0161H23.4839V41.1452H48.7742V39.3387H25.2903V37.5323H52.3871V39.3387H50.5806V41.1452H52.3871V51.0806H50.5806V42.9516H43.3548V51.0806H41.5484V42.9516H34.3226V51.0806H32.5161V42.9516H25.2903V51.0806H19.871V38.4355H18.0645V51.0806H14.4516V38.4355H12.6452V51.0806H9.03226V38.4355H7.22581V51.0806H3.6129V33.0161ZM48.7742 51.0806H45.1613V44.7581H48.7742V51.0806ZM39.7419 51.0806H36.129V44.7581H39.7419V51.0806ZM30.7097 51.0806H27.0968V44.7581H30.7097V51.0806ZM54.1935 54.6935H1.80645V52.8871H54.1935V54.6935Z" fill="#A7D74A"/>
<path d="M12.6453 10.5322H25.2904V12.3387H12.6453V10.5322Z" fill="#A7D74A"/>
<path d="M12.6453 16.7581H25.2904V18.5645H12.6453V16.7581Z" fill="#A7D74A"/>
<path d="M12.6453 23.9839H25.2904V25.7903H12.6453V23.9839Z" fill="#A7D74A"/>
<path d="M30.7097 10.5322H43.3549V12.3387H30.7097V10.5322Z" fill="#A7D74A"/>
<path d="M30.7097 16.7581H43.3549V18.5645H30.7097V16.7581Z" fill="#A7D74A"/>
</svg>
