<svg width="56" height="56" viewBox="0 0 56 56" fill="none" xmlns="http://www.w3.org/2000/svg">
<g clip-path="url(#clip0)">
<path d="M37.9832 23.0339C37.5657 23.0339 37.1909 22.7439 37.101 22.3196L33.4863 5.41255H22.5135L18.9024 22.3036C18.7991 22.7915 18.3174 23.101 17.8305 22.9982C17.3431 22.8938 17.0315 22.4142 17.1364 21.9263L20.9005 4.32049C20.9894 3.90341 21.3574 3.60571 21.7832 3.60571H34.2166C34.6425 3.60571 35.0104 3.90341 35.0993 4.32049L38.867 21.9423C38.9719 22.4297 38.6603 22.9098 38.1729 23.0142C38.1094 23.0282 38.0458 23.0339 37.9832 23.0339Z" fill="#A7D74A"/>
<path d="M44.2582 52.3798H11.7418C11.4695 52.3798 11.211 52.2568 11.04 52.0449C10.8679 51.833 10.8017 51.5544 10.8591 51.2877L15.6165 29.0361C15.7199 28.5488 16.2015 28.2371 16.6884 28.3415C17.1763 28.4464 17.4874 28.9261 17.3825 29.4139L12.8587 50.5735H43.1413L38.617 29.4139C38.5121 28.9261 38.8237 28.4464 39.3111 28.3415C39.7974 28.2361 40.2796 28.5483 40.383 29.0361L45.1409 51.2877C45.1983 51.5544 45.1321 51.8325 44.96 52.0449C44.789 52.2568 44.5305 52.3798 44.2582 52.3798Z" fill="#A7D74A"/>
<path d="M27.9998 23.0339C27.5006 23.0339 27.0969 22.6297 27.0969 22.131V4.50913C27.0969 4.01039 27.5006 3.60571 27.9998 3.60571C28.4991 3.60571 28.9032 4.01039 28.9032 4.50913V22.131C28.9032 22.6297 28.4991 23.0339 27.9998 23.0339Z" fill="#A7D74A"/>
<path d="M27.9998 51.2345C27.5006 51.2345 27.0969 50.8303 27.0969 50.3316V28.8961C27.0969 28.3974 27.5006 27.9927 27.9998 27.9927C28.4991 27.9927 28.9032 28.3974 28.9032 28.8961V50.3316C28.9032 50.8303 28.4991 51.2345 27.9998 51.2345Z" fill="#A7D74A"/>
<path d="M50.7026 36.122H45.9426C45.4867 36.122 45.1022 35.7819 45.0464 35.3292L44.3632 29.7996H11.6369L10.9532 35.3292C10.8979 35.7819 10.5134 36.122 10.057 36.122H5.29751C4.84167 36.122 4.45714 35.7819 4.40133 35.3292L3.71808 29.7996H0.903419C0.404161 29.7996 0 29.3949 0 28.8962V22.5738C0 22.0746 0.404161 21.6704 0.903419 21.6704H55.0967C55.5959 21.6704 56.0001 22.0746 56.0001 22.5738V28.8962C56.0001 29.3949 55.5959 29.7996 55.0967 29.7996H52.282L51.5988 35.3292C51.543 35.7819 51.1584 36.122 50.7026 36.122ZM46.7411 34.3157H49.9041L50.5879 28.7856C50.6432 28.3329 51.0277 27.9928 51.484 27.9928H54.1938V23.4767H1.80632V27.9928H4.51606C4.97242 27.9928 5.35695 28.3329 5.41225 28.7856L6.09601 34.3157H9.25901L9.94226 28.7856C9.99808 28.3329 10.3826 27.9928 10.839 27.9928H45.1611C45.6175 27.9928 46.002 28.3329 46.0573 28.7856L46.7411 34.3157Z" fill="#A7D74A"/>
</g>
<defs>
<clipPath id="clip0">
<rect width="56" height="56" fill="white"/>
</clipPath>
</defs>
</svg>
