<svg width="56" height="56" viewBox="0 0 56 56" fill="none" xmlns="http://www.w3.org/2000/svg">
<path d="M11.1847 3C10.7425 3 10.383 3.35957 10.383 3.80172V5.91484H4.47781C4.03522 5.91484 3.67719 6.27287 3.67719 6.71547V10.1455H0.800625C0.35803 10.1455 0 10.5039 0 10.9461V48.7581C0 49.2003 0.35803 49.5588 0.800625 49.5588H10.7636C11.0216 49.7197 11.3489 49.7197 11.6069 49.5588H30.1361C30.2344 51.6573 31.9625 53.3098 34.0638 53.3125H52.068C54.2385 53.3097 55.9973 51.5503 56 49.3794C56 49.3329 55.9964 49.2865 55.988 49.2405L53.0655 32.7434C52.8857 31.5936 51.8923 30.7468 50.7281 30.7517H49.0405V29.1723C49.0499 27.0313 47.9137 25.0493 46.0611 23.9759C44.2085 22.903 41.9233 22.903 40.0706 23.9759C38.218 25.0493 37.0808 27.0313 37.0902 29.1723V30.7517H35.4036C35.3079 30.7522 35.2118 30.7585 35.117 30.7703V16.0583C35.117 15.6161 34.7575 15.2566 34.3153 15.2566H32.7764V11.8845C32.7764 11.4419 32.4179 11.0828 31.9758 11.0828H29.4448V9.62047C29.4448 9.17788 29.0868 8.81875 28.6442 8.81875C28.2016 8.81875 27.8425 9.17788 27.8425 9.62047V11.0828H25.2503C24.8082 11.0828 24.4486 11.4419 24.4486 11.8845V15.2566H22.6144V10.9461C22.6144 10.5039 22.2559 10.1455 21.8137 10.1455H18.9372V6.71547C18.9372 6.27287 18.5787 5.91484 18.1366 5.91484H11.9853V3.80172C11.9853 3.35957 11.6273 3 11.1847 3ZM5.27953 7.51719H17.3359V10.1455H5.27953V7.51719ZM1.60234 11.7478H21.0131V47.9564H16.3111V40.3909C16.3111 39.9483 15.9526 39.5903 15.5105 39.5903H11.2405C11.2221 39.5889 11.2035 39.587 11.1847 39.587C11.1664 39.587 11.1472 39.5889 11.1289 39.5903H7.105C6.66285 39.5903 6.30328 39.9483 6.30328 40.3909V47.9575H1.60234V11.7478ZM26.0509 12.6852H31.1741V15.2566H26.0509V12.6852ZM5.06625 15.2369C4.6241 15.2369 4.26453 15.5964 4.26453 16.0386C4.26453 16.4812 4.6241 16.8392 5.06625 16.8392H17.5525C17.9951 16.8392 18.3542 16.4812 18.3542 16.0386C18.3542 15.5964 17.9951 15.2369 17.5525 15.2369H5.06625ZM22.6144 16.8589H33.5147V31.6902C33.2823 31.9977 33.1273 32.3585 33.0662 32.7434L30.3713 47.9564H22.6144V16.8589ZM5.06625 20.9813C4.6241 20.9813 4.26453 21.3404 4.26453 21.783C4.26453 22.2256 4.6241 22.5836 5.06625 22.5836H17.5525C17.9951 22.5836 18.3542 22.2256 18.3542 21.783C18.3542 21.3404 17.9951 20.9813 17.5525 20.9813H5.06625ZM25.2952 22.2303C24.8526 22.2303 24.4934 22.5883 24.4934 23.0309C24.4934 23.4735 24.8526 23.8327 25.2952 23.8327H30.6644C31.1065 23.8327 31.465 23.4735 31.465 23.0309C31.465 22.5883 31.1065 22.2303 30.6644 22.2303H25.2952ZM43.0653 24.7777C43.8227 24.7777 44.5801 24.9731 45.2583 25.3661C46.6147 26.1525 47.4462 27.6045 47.4381 29.1723V30.7517H38.6925V29.1723C38.6845 27.6045 39.517 26.1525 40.8734 25.3661C41.5514 24.9731 42.3079 24.7777 43.0653 24.7777ZM5.06625 26.7256C4.6241 26.7256 4.26453 27.0841 4.26453 27.5263C4.26453 27.9688 4.6241 28.328 5.06625 28.328H17.5525C17.9951 28.328 18.3542 27.9688 18.3542 27.5263C18.3542 27.0841 17.9951 26.7256 17.5525 26.7256H5.06625ZM25.2952 27.2244C24.8526 27.2244 24.4934 27.5839 24.4934 28.0261C24.4934 28.4687 24.8526 28.8267 25.2952 28.8267H30.6644C31.1065 28.8267 31.465 28.4687 31.465 28.0261C31.465 27.5839 31.1065 27.2244 30.6644 27.2244H25.2952ZM25.2952 32.3442C24.8526 32.3442 24.4934 32.7033 24.4934 33.1459C24.4934 33.5881 24.8526 33.9466 25.2952 33.9466H30.8875C31.3301 33.9466 31.6881 33.5881 31.6881 33.1459C31.6881 32.7033 31.3301 32.3442 30.8875 32.3442H25.2952ZM35.4036 32.3541H37.0913V34.9681C37.0913 35.4107 37.4493 35.7698 37.8919 35.7698C38.334 35.7698 38.6936 35.4107 38.6936 34.9681V32.3541H47.4392V34.9681C47.4392 35.4103 47.7972 35.7698 48.2398 35.7698C48.6824 35.7698 49.0416 35.4103 49.0416 34.9681V32.3541H50.7281C51.1054 32.352 51.4271 32.6276 51.4839 33.0005C51.4848 33.0054 51.4863 33.0109 51.4872 33.0158L54.3966 49.445C54.3595 50.7053 53.3291 51.7088 52.068 51.7102H34.0638C32.803 51.7088 31.7718 50.7048 31.7352 49.445L34.6456 33.0158C34.6465 33.0102 34.6473 33.0054 34.6478 33.0005C34.705 32.6276 35.0267 32.3527 35.4036 32.3541ZM5.06625 32.4689C4.6241 32.4689 4.26453 32.828 4.26453 33.2706C4.26453 33.7132 4.6241 34.0713 5.06625 34.0713H17.5536C17.9957 34.0713 18.3542 33.7132 18.3542 33.2706C18.3542 32.828 17.9957 32.4689 17.5536 32.4689H5.06625ZM25.2952 37.0889C24.8526 37.0889 24.4934 37.4485 24.4934 37.8906C24.4934 38.3332 24.8526 38.6912 25.2952 38.6912H28.5414C28.9836 38.6912 29.3431 38.3332 29.3431 37.8906C29.3431 37.4485 28.9836 37.0889 28.5414 37.0889H25.2952ZM43.0117 37.6063C40.0426 37.6063 37.6173 40.0315 37.6173 43.0006C37.6173 45.9698 40.0426 48.395 43.0117 48.395C45.9809 48.395 48.4061 45.9698 48.4061 43.0006C48.4061 40.0315 45.9809 37.6063 43.0117 37.6063ZM43.0117 39.2852C45.0729 39.2852 46.725 40.9394 46.725 43.0006C46.725 45.0618 45.0729 46.7139 43.0117 46.7139C40.9505 46.7139 39.2973 45.0618 39.2973 43.0006C39.2973 40.9394 40.9505 39.2852 43.0117 39.2852ZM7.90563 41.1927H10.383V47.9575H7.90563V41.1927ZM11.9853 41.1927H14.7087V47.9575H11.9853V41.1927ZM25.2952 42.2088C24.8526 42.2088 24.4934 42.5679 24.4934 43.0105C24.4934 43.4526 24.8526 43.8111 25.2952 43.8111H27.6478C28.0904 43.8111 28.4484 43.4526 28.4484 43.0105C28.4484 42.5679 28.0904 42.2088 27.6478 42.2088H25.2952Z" fill="#A7D74A"/>
</svg>
