<svg width="56" height="56" viewBox="0 0 56 56" fill="none" xmlns="http://www.w3.org/2000/svg">
<path d="M54.1936 34.3226V4.51613C54.1936 2.02594 52.1677 0 49.6775 0H14.4517V2.08013L16.6781 5.41935H26.1936V7.22581H25.2904C23.7964 7.22581 22.5807 8.44155 22.5807 9.93548V13.5484C22.5807 15.0423 23.7964 16.2581 25.2904 16.2581H39.742C41.2359 16.2581 42.4517 15.0423 42.4517 13.5484V9.93548C42.4517 8.44155 41.2359 7.22581 39.742 7.22581H38.8388V5.41935H48.7742V20.0453C48.4825 19.9414 48.1799 19.871 47.871 19.871C46.8368 19.871 45.9083 20.4454 45.4468 21.3685L43.4868 25.2903H38.9408C37.5715 25.2903 36.3793 26.2604 36.1661 27.5466C36.0351 28.3396 36.2564 29.1435 36.7722 29.7514C37.2888 30.3601 38.0421 30.7097 38.8388 30.7097V34.3226H30.7097V46.9677H56V34.3226H54.1936ZM40.6452 9.93548V13.5484C40.6452 14.0461 40.2397 14.4516 39.742 14.4516H25.2904C24.7927 14.4516 24.3871 14.0461 24.3871 13.5484V9.93548C24.3871 9.43781 24.7927 9.03226 25.2904 9.03226H39.742C40.2397 9.03226 40.6452 9.43781 40.6452 9.93548ZM37.0323 7.22581H28V5.41935H37.0323V7.22581ZM17.6446 3.6129L16.4406 1.80645H49.6775C51.1714 1.80645 52.3871 3.02219 52.3871 4.51613V34.3226H50.5807V5.41935C50.5807 4.4231 49.7705 3.6129 48.7742 3.6129H17.6446ZM48.7742 34.3226H46.0646V30.5498C46.7149 30.3213 47.264 29.8534 47.5856 29.2112L48.7742 26.8339V34.3226ZM38.1496 28.5835C37.9753 28.3775 37.9039 28.1138 37.9482 27.8419C38.0177 27.4237 38.4531 27.0968 38.9408 27.0968H44.6031L47.0635 22.176C47.2794 21.7443 47.8412 21.5555 48.2729 21.7714C48.4933 21.8815 48.6505 22.0622 48.7282 22.2943C48.804 22.5228 48.7869 22.7685 48.6794 22.9844L45.9697 28.4037C45.8153 28.7117 45.5055 28.9032 45.1613 28.9032H38.8388C38.5741 28.9032 38.3221 28.7867 38.1496 28.5835ZM40.6452 30.7097H44.2581V34.3226H40.6452V30.7097ZM54.1936 36.129V45H32.5162V36.129H54.1936Z" fill="#A7D74A"/>
<path d="M28.9032 46.34C28.9032 46.125 28.8915 45.91 28.8689 45.695L26.6813 25.274C26.3507 22.194 23.7657 19.8709 20.6676 19.8709H18.3237L19.2839 16.1045C19.9288 16.4929 20.4951 17.0149 20.9259 17.6625L22.4289 16.6609C21.1301 14.7117 18.956 13.5483 16.6148 13.5483H12.2893C9.94723 13.5483 7.77406 14.7117 6.47432 16.66L7.97729 17.6616C8.41355 17.0077 8.9871 16.4802 9.64013 16.0909L10.5849 19.8709H8.23561C5.13755 19.8709 2.55252 22.194 2.22194 25.274L0.0343226 45.696C0.0117419 45.91 0 46.1241 0 46.34C0 48.9214 1.62942 51.1243 3.91097 51.9905L0.903226 56H28L24.9923 51.9896C27.2738 51.1243 28.9032 48.9214 28.9032 46.34ZM4.05368 25.2903H24.8486C24.8577 25.3499 24.8775 25.4059 24.8848 25.4664L25.8106 34.1103C23.0431 35.4272 20.0019 36.129 16.9707 36.129H11.9325C8.90129 36.129 5.86013 35.4272 3.09174 34.1103L4.01755 25.4664C4.02477 25.4059 4.04464 25.3499 4.05368 25.2903ZM11.3427 15.4514C11.6525 15.3936 11.9668 15.3548 12.2884 15.3548H16.6139C16.9436 15.3548 17.2661 15.3954 17.584 15.456L16.4595 19.8709H12.4474L11.3427 15.4514ZM8.23561 21.6774H20.6676C22.0956 21.6774 23.3574 22.3882 24.1279 23.4838H4.77535C5.54671 22.3882 6.80761 21.6774 8.23561 21.6774ZM24.3871 54.1935H4.51613L5.87729 52.378C5.93419 52.3798 5.99019 52.3871 6.048 52.3871H22.8552C22.913 52.3871 22.969 52.3798 23.0259 52.378L24.3871 54.1935ZM22.8552 50.5806H6.048C3.70865 50.5806 1.80645 48.6784 1.80645 46.34C1.80645 46.1882 1.81458 46.0374 1.82994 45.8874L2.88761 36.0134C5.74181 37.2725 8.84258 37.9354 11.9325 37.9354H16.9707C20.0606 37.9354 23.1614 37.2725 26.0147 36.0125L27.0724 45.8856C27.0886 46.0374 27.0968 46.1882 27.0968 46.34C27.0968 48.6784 25.1946 50.5806 22.8552 50.5806Z" fill="#A7D74A"/>
<path d="M22.5806 41.5483C21.0867 41.5483 19.871 42.7641 19.871 44.258C19.871 45.752 21.0867 46.9677 22.5806 46.9677C24.0746 46.9677 25.2903 45.752 25.2903 44.258C25.2903 42.7641 24.0746 41.5483 22.5806 41.5483ZM22.5806 45.1612C22.083 45.1612 21.6774 44.7566 21.6774 44.258C21.6774 43.7594 22.083 43.3548 22.5806 43.3548C23.0783 43.3548 23.4839 43.7594 23.4839 44.258C23.4839 44.7566 23.0783 45.1612 22.5806 45.1612Z" fill="#A7D74A"/>
<path d="M6.32259 41.5483C4.82866 41.5483 3.61292 42.7641 3.61292 44.258C3.61292 45.752 4.82866 46.9677 6.32259 46.9677C7.81653 46.9677 9.03227 45.752 9.03227 44.258C9.03227 42.7641 7.81653 41.5483 6.32259 41.5483ZM6.32259 45.1612C5.82492 45.1612 5.41937 44.7566 5.41937 44.258C5.41937 43.7594 5.82492 43.3548 6.32259 43.3548C6.82027 43.3548 7.22582 43.7594 7.22582 44.258C7.22582 44.7566 6.82027 45.1612 6.32259 45.1612Z" fill="#A7D74A"/>
<path d="M10.8387 43.3547H18.0646V45.1612H10.8387V43.3547Z" fill="#A7D74A"/>
</svg>
