<svg width="56" height="56" viewBox="0 0 56 56" fill="none" xmlns="http://www.w3.org/2000/svg">
<path d="M49.875 34.125H48.8425L47.936 29.5951C47.4478 27.1504 45.2821 25.375 42.7884 25.375H28.7271C26.894 25.375 25.1685 26.3515 24.2253 27.9239L20.5047 34.125H18.375V23.625H28.875V14.875H18.375V9.625H28.875V0.875H0.875V9.625H11.375V14.875H6.7935L0.875 17.8342V20.6658L6.7935 23.625H11.375V39.2061L11.3076 39.375H0.875V41.125H10.6076L9.89713 42.9012C9.716 43.3536 9.625 43.8296 9.625 44.3153C9.625 46.4161 11.3339 48.125 13.4347 48.125H15.7727C16.5725 49.1811 17.8272 49.875 19.25 49.875C20.6728 49.875 21.9284 49.1811 22.7273 48.125H42.0219C42.8216 49.1811 44.0764 49.875 45.4991 49.875C46.9219 49.875 48.1775 49.1811 48.9764 48.125H51.3144C53.4161 48.125 55.125 46.4161 55.125 44.3153V39.375C55.125 36.4796 52.7704 34.125 49.875 34.125ZM21.4953 35.875L25.725 28.8243C26.355 27.776 27.5048 27.125 28.7271 27.125H42.7884C44.4509 27.125 45.8946 28.3089 46.2201 29.939L47.4075 35.875H49.875C51.8052 35.875 53.375 37.4448 53.375 39.375V42.875H48.9772C48.1775 41.8189 46.9227 41.125 45.5 41.125C44.0773 41.125 42.8216 41.8189 42.0228 42.875H22.7273C21.9275 41.8189 20.6728 41.125 19.25 41.125C17.8272 41.125 16.5716 41.8189 15.7727 42.875H11.7924L13.4916 38.6251C14.161 36.9539 15.7552 35.875 17.5543 35.875H21.4953ZM2.625 2.625H27.125V7.875H2.625V2.625ZM13.125 9.625H16.625V14.875H13.125V9.625ZM2.625 19.5842V18.9158L7.2065 16.625H27.125V21.875H7.2065L2.625 19.5842ZM16.625 23.625V34.1941C15.267 34.3989 14.0499 35.0613 13.125 36.0369V23.625H16.625ZM13.4347 46.375C12.4058 46.375 11.557 45.6129 11.4065 44.625H14.9634C14.9056 44.9076 14.875 45.2007 14.875 45.5C14.875 45.7993 14.9056 46.0924 14.9634 46.375H13.4347ZM19.25 48.125C17.8027 48.125 16.625 46.9473 16.625 45.5C16.625 44.0527 17.8027 42.875 19.25 42.875C20.6973 42.875 21.875 44.0527 21.875 45.5C21.875 46.9473 20.6973 48.125 19.25 48.125ZM23.5366 46.375C23.5944 46.0924 23.625 45.7993 23.625 45.5C23.625 45.2007 23.5944 44.9076 23.5366 44.625H41.2134C41.1556 44.9076 41.125 45.2007 41.125 45.5C41.125 45.7993 41.1556 46.0924 41.2134 46.375H23.5366ZM45.5 48.125C44.0527 48.125 42.875 46.9473 42.875 45.5C42.875 44.0527 44.0527 42.875 45.5 42.875C46.9473 42.875 48.125 44.0527 48.125 45.5C48.125 46.9473 46.9473 48.125 45.5 48.125ZM51.3153 46.375H49.7866C49.8444 46.0924 49.875 45.7993 49.875 45.5C49.875 45.2007 49.8444 44.9076 49.7866 44.625H53.3435C53.193 45.6129 52.3442 46.375 51.3153 46.375Z" fill="#A7D74A"/>
<path d="M44.625 31.5C44.625 30.0527 43.4473 28.875 42 28.875H28.9905C28.0735 28.875 27.2107 29.3633 26.74 30.149L24.5 33.8826V35.875H44.625V31.5ZM28.2406 31.0494C28.3981 30.7869 28.6851 30.625 28.9905 30.625H34.125V34.125H26.3953L28.2406 31.0494ZM42.875 34.125H35.875V30.625H42C42.4821 30.625 42.875 31.017 42.875 31.5V34.125Z" fill="#A7D74A"/>
<path d="M0.875 53.375H55.125V55.125H0.875V53.375Z" fill="#A7D74A"/>
</svg>
