<svg width="40" height="40" viewBox="0 0 40 40" fill="none" xmlns="http://www.w3.org/2000/svg">
<path d="M40 12.2581C40 5.49868 34.5013 0 27.7419 0C20.9825 0 15.4839 5.49868 15.4839 12.2581C15.4839 14.9039 16.3347 17.3497 17.7659 19.3548H1.93548C0.868511 19.3548 0 20.2233 0 21.2903V22.5806C0 23.6476 0.868511 24.5161 1.93548 24.5161H2.22971C4.98708 28.5682 6.45161 33.2891 6.45161 38.1981V40H7.74194V38.1981C7.74194 38.0239 7.73563 37.8503 7.73217 37.6761L9.67742 39.622L13.5484 35.751L17.4194 39.622L21.2903 35.751L25.1613 39.622L27.1065 37.6767C27.1031 37.8503 27.0968 38.0239 27.0968 38.1981V40H28.3871V38.1981C28.3871 33.1795 29.9083 28.3521 32.798 24.2244L33.5755 23.0368C37.3986 20.9592 40 16.9071 40 12.2581V12.2581ZM27.7419 23.2258C27.6471 23.2258 27.5554 23.2142 27.4619 23.2116C28.269 20.5374 27.2218 17.1491 24.7143 14.6406C24.5105 14.4374 24.2988 14.2465 24.0833 14.0619C24.7445 13.211 25.4483 12.3967 26.193 11.6208L35.0161 20.4439C33.0781 22.1683 30.5343 23.2258 27.7419 23.2258ZM29.1554 28.1322C28.5367 29.5769 28.0535 31.073 27.7123 32.6065L26.0736 30.9677L29.0323 28.0091L29.1554 28.1322ZM25.1613 30.0554L22.2026 27.0968L24.7833 24.5161H25.5393L28.12 27.0968L25.1613 30.0554ZM5.80645 28.0091L8.76512 30.9677L7.12639 32.6065C6.78522 31.073 6.30198 29.5776 5.68328 28.1322L5.80645 28.0091ZM6.71875 27.0968L9.29939 24.5161H10.0554L12.6361 27.0968L9.67742 30.0554L6.71875 27.0968ZM11.88 24.5161H15.2167L13.5484 26.1845L11.88 24.5161ZM13.5484 28.0091L16.5071 30.9677L13.5484 33.9264L10.5897 30.9677L13.5484 28.0091ZM14.4607 27.0968L17.0413 24.5161H17.7974L20.378 27.0968L17.4194 30.0554L14.4607 27.0968ZM25.2801 10.7085C24.4947 11.526 23.7522 12.3838 23.0554 13.2812C21.0692 11.9503 18.7853 11.3735 16.8007 11.7348C16.9232 9.14976 17.9407 6.80002 19.5555 4.98456L25.2801 10.7085ZM22.2864 14.3161C21.1703 15.8799 20.1884 17.5498 19.3561 19.3123C17.9064 17.5923 16.984 15.4212 16.8136 13.0437C18.5027 12.6534 20.5141 13.1395 22.2864 14.3161ZM23.3128 15.0992C23.4794 15.2445 23.6432 15.3947 23.8013 15.5535C26.0619 17.8141 26.9834 20.8433 26.147 23.0966C23.9141 22.769 21.9021 21.7704 20.3169 20.3071C21.153 18.4633 22.1582 16.7219 23.3128 15.0992V15.0992ZM19.622 24.5161H22.9587L21.2903 26.1845L19.622 24.5161ZM21.2903 28.0091L24.249 30.9677L21.2903 33.9264L18.3317 30.9677L21.2903 28.0091ZM27.1053 10.7091C27.9064 9.94015 28.7484 9.21276 29.6302 8.53358C29.9691 9.00013 30.3465 9.45155 30.7702 9.87557C32.7 11.8051 35.2044 12.8922 37.4877 12.8922C37.8953 12.8922 38.2942 12.8535 38.6832 12.7826C38.56 15.3676 37.5432 17.7167 35.9284 19.5316L27.1053 10.7091ZM38.6697 11.4724C36.4749 11.9799 33.7317 11.0128 31.6819 8.96327C31.3039 8.58524 30.9677 8.18391 30.6666 7.76966C32.2659 6.63936 33.9787 5.65556 35.791 4.83367C37.4291 6.60786 38.4876 8.91822 38.6697 11.4724ZM29.3369 1.42011C31.3968 1.7219 33.2737 2.58978 34.7968 3.87286C33.1007 4.67427 31.4904 5.6124 29.9779 6.67622C29.0219 4.89163 28.7601 2.97222 29.3369 1.42011ZM28.022 1.3045C27.455 3.18265 27.804 5.40953 28.9318 7.44078C27.9728 8.17414 27.0605 8.96264 26.1924 9.79618L20.4678 4.07227C22.4058 2.34785 24.9496 1.29032 27.7419 1.29032C27.8368 1.29032 27.9278 1.30198 28.022 1.3045ZM1.29032 22.5806V21.2903C1.29032 20.9343 1.58014 20.6452 1.93548 20.6452H18.8272C19.8189 21.6986 20.9929 22.5743 22.3006 23.2258H1.93548C1.58014 23.2258 1.29032 22.9366 1.29032 22.5806V22.5806ZM7.4748 24.5161L5.11089 26.88C4.71239 26.0723 4.26695 25.2845 3.78119 24.5161H7.4748ZM9.67742 37.7974L7.62065 35.7406C7.56962 35.2032 7.50378 34.6683 7.41935 34.1381L9.67742 31.8807L12.6361 34.8387L9.67742 37.7974ZM17.4194 37.7974L14.4607 34.8387L17.4194 31.88L20.378 34.8387L17.4194 37.7974ZM25.1613 37.7974L22.2026 34.8387L25.1613 31.88L27.4194 34.1375C27.3349 34.6683 27.2691 35.2032 27.2181 35.7406L25.1613 37.7974ZM29.7278 26.88L27.3437 24.4963C27.4773 24.5001 27.6077 24.5161 27.7419 24.5161C29.0272 24.5161 30.2652 24.3155 31.4296 23.9472C30.7961 24.8929 30.2252 25.871 29.7278 26.88V26.88Z" fill="#A7D74A"/>
</svg>
