<svg width="40" height="40" viewBox="0 0 40 40" fill="none" xmlns="http://www.w3.org/2000/svg">
<g clip-path="url(#clip0)">
<path d="M16.4015 7.13412C15.0889 5.94549 13.3843 5.27936 11.5897 5.27936C7.63151 5.27936 4.41125 8.49917 4.41125 12.4569C4.41125 14.2463 5.07393 15.9474 6.25732 17.2582H0V18.0736H8.39938L7.53031 17.3521C6.06632 16.1368 5.22669 14.3527 5.22669 12.4569C5.22669 8.94884 8.08109 6.0948 11.5897 6.0948C13.4433 6.0948 15.1879 6.89828 16.4015 8.30138V9.55272C15.4154 7.92564 13.6275 6.83586 11.5897 6.83586C8.48981 6.83586 5.96774 9.35746 5.96774 12.4569C5.96774 15.4842 8.33614 17.9513 11.3595 18.0732L16.4015 18.0736V19.6566V20.4721V21.9267H0V22.7422H6.26484C5.07692 24.054 4.41125 25.7575 4.41125 27.5507C4.41125 31.509 7.63151 34.7292 11.5897 34.7292C13.3843 34.7292 15.0892 34.0633 16.4015 32.8745V39.5337H17.2169V30.726L16.495 31.5993C15.2789 33.0702 13.491 33.9138 11.5897 33.9138C8.08109 33.9138 5.22669 31.0593 5.22669 27.5507C5.22669 25.6984 6.02981 23.955 7.43218 22.7422H8.68116C7.0559 23.7286 5.96774 25.5149 5.96774 27.5507C5.96774 30.6507 8.48972 33.1727 11.5897 33.1727C14.6898 33.1727 17.2117 30.6507 17.2117 27.5507H17.2169V0.466553H16.4015V7.13412ZM11.387 17.2582C8.80502 17.1511 6.78318 15.0432 6.78318 12.4569C6.78318 9.80704 8.93939 7.65129 11.5897 7.65129C14.2401 7.65129 16.3963 9.80704 16.3963 12.4569L16.4015 12.8646V17.2582H11.387ZM16.3963 27.5506C16.3963 30.201 14.2401 32.3572 11.5897 32.3572C8.93939 32.3572 6.78318 30.201 6.78318 27.5506C6.78318 24.9009 8.93939 22.7452 11.5897 22.7452L16.4015 22.7421L16.3963 27.5506Z" fill="#A7D74A" stroke="#A7D74A" stroke-width="0.2"/>
<path d="M40.0001 17.2582H33.7297C34.9132 15.9474 35.5764 14.2464 35.5764 12.4569C35.5764 8.49917 32.3562 5.27936 28.3979 5.27936C26.61 5.27936 24.9097 5.94105 23.5986 7.12262V0.466553H22.7832V9.26133L23.5043 8.39461C24.7203 6.93307 26.5039 6.0948 28.3978 6.0948C31.9065 6.0948 34.7609 8.94884 34.7609 12.4569C34.7609 14.3052 33.961 16.0459 32.5643 17.2582H31.3306C32.9495 16.2715 34.0198 14.4913 34.0198 12.4569C34.0198 9.35746 31.4978 6.83586 28.3977 6.83586C25.4007 6.83586 22.9347 9.17825 22.7835 12.1685L22.783 39.5337H23.5984V32.8847C24.9092 34.0668 26.6095 34.7292 28.3977 34.7292C32.3561 34.7292 35.5762 31.5089 35.5762 27.5507C35.5762 25.7576 34.9111 24.0538 33.7232 22.7422H39.9998V21.9267H31.5755L32.4482 22.6487C33.9178 23.8643 34.7607 25.6511 34.7607 27.5507C34.7607 31.0594 31.9062 33.9138 28.3977 33.9138C26.551 33.9138 24.811 33.115 23.5983 31.7201V30.481C24.5876 32.1001 26.3707 33.1726 28.3977 33.1726C31.4977 33.1726 34.0197 30.6507 34.0197 27.5506C34.0197 24.4512 31.4977 21.9297 28.3977 21.9297V21.9266H23.5983V20.472V19.6565V18.0735H40.0001V17.2582ZM28.3979 22.7452C31.0483 22.7452 33.2045 24.9009 33.2045 27.5506C33.2045 30.201 31.0483 32.3572 28.3979 32.3572C25.838 32.3572 23.7313 30.3582 23.5986 27.8049V22.7421L28.3979 22.7452ZM23.5986 12.2026C23.7313 9.64994 25.838 7.65129 28.3979 7.65129C31.0483 7.65129 33.2045 9.80704 33.2045 12.4569C33.2045 15.0432 31.1831 17.1511 28.6017 17.2582H23.5986V12.2026Z" fill="#A7D74A" stroke="#A7D74A" stroke-width="0.2"/>
</g>
<defs>
<clipPath id="clip0">
<rect width="40" height="40" fill="white"/>
</clipPath>
</defs>
</svg>
