<svg width="40" height="40" viewBox="0 0 40 40" fill="none" xmlns="http://www.w3.org/2000/svg">
<path d="M38.3187 36.9789L35.8743 25.9789C35.8125 25.6996 35.5645 25.5003 35.2778 25.5003H32.8336V24.2781C32.8336 21.7895 30.9638 19.7306 28.5558 19.4287V14.6506C28.5558 13.2199 27.3916 12.0557 25.961 12.0557H24.278V8.38904C24.278 4.6826 21.2621 1.66675 17.5557 1.66675C15.6414 1.66675 13.9114 2.47127 12.686 3.75984C12.0972 3.59083 11.4757 3.5001 10.8334 3.5001C7.12698 3.5001 4.11112 6.51595 4.11112 10.2224V12.0604C2.75022 12.1387 1.66669 13.2705 1.66669 14.6506V37.1116C1.66669 37.4489 1.94047 37.7227 2.27778 37.7227H7.16672H18.1666H18.1668H37.7222C37.908 37.7227 38.0834 37.6383 38.1995 37.4935C38.3151 37.3493 38.359 37.1598 38.3187 36.9789ZM31.6113 24.2781V25.5004H28.5557V20.6634C30.2878 20.9551 31.6113 22.4643 31.6113 24.2781ZM24.2779 25.5004V24.2781C24.2779 22.4642 25.6014 20.9551 27.3335 20.6633V25.5003H24.2779V25.5004ZM17.5557 2.88907C20.588 2.88907 23.0557 5.35679 23.0557 8.38912V12.0558H17.5557V10.2225C17.5557 7.6325 16.0829 5.38006 13.9311 4.25785C14.8998 3.40685 16.1682 2.88907 17.5557 2.88907ZM12.0557 12.0558V8.38912C12.0557 7.20217 12.435 6.10273 13.077 5.20289C14.994 6.06334 16.3335 7.989 16.3335 10.2225V12.0558H12.0557ZM10.8334 4.72249C11.1849 4.72249 11.5284 4.75701 11.8617 4.82039C11.2107 5.85523 10.8334 7.07892 10.8334 8.38912V12.0558H9.21212H5.33338V10.2225C5.33338 7.19014 7.80109 4.72249 10.8334 4.72249ZM2.88894 14.6506C2.88894 13.8941 3.50497 13.2781 4.26152 13.2781H6.97788C6.71118 13.6921 6.55563 14.1843 6.55563 14.7124V36.5005H2.88894V14.6506V14.6506ZM7.77782 14.7124C7.77782 13.9216 8.42135 13.2781 9.21212 13.2781H10.8334V18.167C10.8334 18.5043 11.1072 18.7781 11.4445 18.7781C11.7818 18.7781 12.0556 18.5043 12.0556 18.167V13.2781H23.0557V18.167C23.0557 18.5043 23.3295 18.7781 23.6668 18.7781C24.0041 18.7781 24.2779 18.5043 24.2779 18.167V13.2781H25.9609C26.7174 13.2781 27.3335 13.8941 27.3335 14.6506V19.4288C24.9254 19.7307 23.0557 21.7896 23.0557 24.2781V25.5004H20.611C20.325 25.5004 20.0769 25.6996 20.0146 25.9789L17.6765 36.5005H7.77782V14.7124ZM18.9286 36.5005L21.1018 26.7227H23.0557V31.0004C23.0557 31.3377 23.3295 31.6115 23.6668 31.6115C24.0041 31.6115 24.2779 31.3377 24.2779 31.0004V26.7227H31.6113V31.0004C31.6113 31.3377 31.8851 31.6115 32.2224 31.6115C32.5597 31.6115 32.8335 31.3377 32.8335 31.0004V26.7227H34.7876L36.9607 36.5005H18.9286V36.5005Z" fill="#A7D74A" stroke="#A7D74A" stroke-width="0.2"/>
</svg>
