<svg width="40" height="40" viewBox="0 0 40 40" fill="none" xmlns="http://www.w3.org/2000/svg">
<g clip-path="url(#clip0)">
<path d="M27.1308 16.4527C26.8325 16.4527 26.5648 16.2456 26.5006 15.9425L23.9187 3.86604H16.0809L13.5016 15.9311C13.4278 16.2795 13.0837 16.5007 12.736 16.4272C12.3878 16.3526 12.1652 16.0101 12.2402 15.6616L14.9288 3.08599C14.9923 2.78808 15.2551 2.57544 15.5593 2.57544H24.4403C24.7445 2.57544 25.0073 2.78808 25.0708 3.08599L27.762 15.673C27.837 16.0211 27.6144 16.3641 27.2662 16.4387C27.2208 16.4486 27.1754 16.4527 27.1308 16.4527Z" fill="#A7D74A"/>
<path d="M31.6129 37.4143H8.38691C8.19236 37.4143 8.00778 37.3265 7.88559 37.1751C7.76265 37.0237 7.7154 36.8248 7.75638 36.6343L11.1545 20.7403C11.2284 20.3922 11.5724 20.1695 11.9202 20.2441C12.2687 20.3191 12.4909 20.6616 12.416 21.0101L9.18467 36.1241H30.8151L27.5835 21.0101C27.5085 20.6616 27.7311 20.3191 28.0792 20.2441C28.4266 20.1688 28.7711 20.3918 28.8449 20.7403L32.2434 36.6343C32.2844 36.8248 32.2371 37.0234 32.1142 37.1751C31.992 37.3265 31.8074 37.4143 31.6129 37.4143Z" fill="#A7D74A"/>
<path d="M20 16.4527C19.6434 16.4527 19.3551 16.164 19.3551 15.8078V3.22074C19.3551 2.86449 19.6434 2.57544 20 2.57544C20.3566 2.57544 20.6453 2.86449 20.6453 3.22074V15.8078C20.6453 16.164 20.3566 16.4527 20 16.4527Z" fill="#A7D74A"/>
<path d="M20 36.5962C19.6434 36.5962 19.3551 36.3075 19.3551 35.9512V20.6402C19.3551 20.2839 19.6434 19.9949 20 19.9949C20.3566 19.9949 20.6453 20.2839 20.6453 20.6402V35.9512C20.6453 36.3075 20.3566 36.5962 20 36.5962Z" fill="#A7D74A"/>
<path d="M36.2161 25.8013H32.8161C32.4905 25.8013 32.2159 25.5584 32.176 25.235L31.688 21.2853H8.31211L7.8237 25.235C7.7842 25.5584 7.50954 25.8013 7.18357 25.8013H3.78394C3.45833 25.8013 3.18367 25.5584 3.1438 25.235L2.65577 21.2853H0.645299C0.288687 21.2853 0 20.9963 0 20.64V16.1241C0 15.7674 0.288687 15.4788 0.645299 15.4788H39.3548C39.7114 15.4788 40.0001 15.7674 40.0001 16.1241V20.64C40.0001 20.9963 39.7114 21.2853 39.3548 21.2853H37.3443L36.8563 25.235C36.8164 25.5584 36.5417 25.8013 36.2161 25.8013ZM33.3865 24.5111H35.6458L36.1342 20.561C36.1737 20.2376 36.4483 19.9947 36.7743 19.9947H38.7099V16.769H1.29023V19.9947H3.22576C3.55173 19.9947 3.82639 20.2376 3.86589 20.561L4.3543 24.5111H6.61358L7.10162 20.561C7.14149 20.2376 7.41615 19.9947 7.74212 19.9947H32.258C32.5839 19.9947 32.8586 20.2376 32.8981 20.561L33.3865 24.5111Z" fill="#A7D74A"/>
</g>
<defs>
<clipPath id="clip0">
<rect width="40" height="40" fill="white"/>
</clipPath>
</defs>
</svg>
