<svg width="44" height="48" viewBox="0 0 44 48" fill="none" xmlns="http://www.w3.org/2000/svg">
<g clip-path="url(#clip0)" filter="url(#filter0_d)">
<path d="M10 22.6667H2.66667C1.95967 22.6659 1.28185 22.3847 0.781925 21.8847C0.282 21.3848 0.000794036 20.707 0 20V2.66667C0.000794036 1.95967 0.282 1.28185 0.781925 0.781925C1.28185 0.282 1.95967 0.000794036 2.66667 0H20C20.707 0.000794036 21.3848 0.282 21.8847 0.781925C22.3847 1.28185 22.6659 1.95967 22.6667 2.66667V14H21.3333V2.66667C21.3329 2.31317 21.1923 1.97428 20.9423 1.72432C20.6924 1.47436 20.3535 1.33375 20 1.33333H2.66667C2.31317 1.33375 1.97428 1.47436 1.72432 1.72432C1.47436 1.97428 1.33375 2.31317 1.33333 2.66667V20C1.33375 20.3535 1.47436 20.6924 1.72432 20.9423C1.97428 21.1923 2.31317 21.3329 2.66667 21.3333H10V22.6667Z" fill="#A7D74A"/>
<path d="M8.66677 20.0001H4.66677C4.48996 20.0001 4.32039 19.9298 4.19537 19.8048C4.07034 19.6798 4.00011 19.5102 4.00011 19.3334V3.33341C4.00011 3.1566 4.07034 2.98703 4.19537 2.86201C4.32039 2.73699 4.48996 2.66675 4.66677 2.66675H12.6668C14.2581 2.66675 15.7842 3.29889 16.9094 4.42411C18.0346 5.54933 18.6668 7.07545 18.6668 8.66675C18.6668 10.258 18.0346 11.7842 16.9094 12.9094C15.7842 14.0346 14.2581 14.6667 12.6668 14.6667H9.33344V19.3334C9.33344 19.5102 9.2632 19.6798 9.13818 19.8048C9.01315 19.9298 8.84358 20.0001 8.66677 20.0001ZM5.33344 18.6667H8.00011V14.0001C8.00011 13.8233 8.07034 13.6537 8.19537 13.5287C8.32039 13.4037 8.48996 13.3334 8.66677 13.3334H12.6668C13.9044 13.3334 15.0914 12.8417 15.9666 11.9666C16.8418 11.0914 17.3334 9.90442 17.3334 8.66675C17.3334 7.42907 16.8418 6.24209 15.9666 5.36692C15.0914 4.49175 13.9044 4.00008 12.6668 4.00008H5.33344V18.6667ZM12.6668 10.6667H8.66677C8.48996 10.6667 8.32039 10.5965 8.19537 10.4715C8.07034 10.3465 8.00011 10.1769 8.00011 10.0001V7.33341C8.00011 7.1566 8.07034 6.98703 8.19537 6.86201C8.32039 6.73699 8.48996 6.66675 8.66677 6.66675H12.6668C13.1972 6.66675 13.7059 6.87746 14.081 7.25253C14.4561 7.62761 14.6668 8.13631 14.6668 8.66675C14.6668 9.19718 14.4561 9.70589 14.081 10.081C13.7059 10.456 13.1972 10.6667 12.6668 10.6667ZM9.33344 9.33341H12.6668C12.8436 9.33341 13.0132 9.26318 13.1382 9.13815C13.2632 9.01313 13.3334 8.84356 13.3334 8.66675C13.3334 8.48994 13.2632 8.32037 13.1382 8.19534C13.0132 8.07032 12.8436 8.00008 12.6668 8.00008H9.33344V9.33341Z" fill="#A7D74A"/>
<path d="M39.1383 26.1952C38.6097 25.6639 37.8972 25.3561 37.1481 25.3354L34.4218 17.1565C34.2452 16.6253 33.9057 16.1633 33.4515 15.836C32.9974 15.5087 32.4517 15.3328 31.8919 15.3333H16.1085C15.5488 15.3328 15.003 15.5087 14.5489 15.836C14.0948 16.1633 13.7553 16.6253 13.5786 17.1565L10.8523 25.3354C10.0879 25.3587 9.36269 25.6787 8.83027 26.2277C8.29786 26.7766 8.00014 27.5113 8.00021 28.276V33.3333C8.00101 34.0403 8.28221 34.7181 8.78214 35.218C9.28206 35.7179 9.95988 35.9991 10.6669 35.9999H15.3335V38.6666H11.3335V37.3332H10.0002V38.6666C10.0006 39.0201 10.1412 39.359 10.3912 39.6089C10.6412 39.8589 10.9801 39.9995 11.3335 39.9999H15.3335C15.687 39.9995 16.0259 39.8589 16.2759 39.6089C16.5258 39.359 16.6665 39.0201 16.6669 38.6666V35.9999H31.3335V38.6666C31.334 39.0201 31.4746 39.359 31.7245 39.6089C31.9745 39.8589 32.3134 39.9995 32.6669 39.9999H36.6669C37.0204 39.9995 37.3593 39.8589 37.6092 39.6089C37.8592 39.359 37.9998 39.0201 38.0002 38.6666V35.9155C38.5723 35.767 39.0789 35.4329 39.4408 34.9656C39.8027 34.4984 39.9994 33.9243 40.0002 33.3333V28.276C40.0013 27.8894 39.9256 27.5064 39.7777 27.1493C39.6297 26.7921 39.4124 26.4678 39.1383 26.1952V26.1952ZM16.1085 16.6666H31.8919C32.1718 16.6664 32.4447 16.7543 32.6718 16.918C32.8989 17.0817 33.0686 17.3127 33.157 17.5783L33.2975 17.9999H14.703L14.8435 17.5783C14.9318 17.3127 15.1016 17.0817 15.3287 16.918C15.5557 16.7543 15.8286 16.6664 16.1085 16.6666V16.6666ZM14.2585 19.3333H33.7419L35.7419 25.3333H12.2585L14.2585 19.3333ZM36.6669 38.6666H32.6669V35.9999H36.6669L36.6675 38.6666H36.6669ZM38.6669 33.3333C38.6665 33.6867 38.5258 34.0256 38.2759 34.2756C38.0259 34.5256 37.687 34.6662 37.3335 34.6666H10.6669C10.3134 34.6662 9.97449 34.5256 9.72453 34.2756C9.47458 34.0256 9.33397 33.6867 9.33355 33.3333V28.276C9.33357 27.8492 9.50314 27.4398 9.80496 27.138C10.1068 26.8362 10.5161 26.6666 10.943 26.6666H37.0575C37.4843 26.6666 37.8936 26.8362 38.1955 27.138C38.4973 27.4398 38.6668 27.8492 38.6669 28.276V33.3333Z" fill="#A7D74A"/>
<path d="M13.3332 28C12.8058 28 12.2903 28.1564 11.8517 28.4494C11.4132 28.7424 11.0714 29.1589 10.8696 29.6462C10.6677 30.1334 10.6149 30.6696 10.7178 31.1869C10.8207 31.7042 11.0747 32.1793 11.4476 32.5523C11.8206 32.9252 12.2957 33.1792 12.813 33.2821C13.3303 33.385 13.8665 33.3322 14.3537 33.1303C14.841 32.9285 15.2575 32.5867 15.5505 32.1482C15.8435 31.7096 15.9999 31.1941 15.9999 30.6667C15.9991 29.9597 15.7179 29.2818 15.218 28.7819C14.7181 28.282 14.0403 28.0008 13.3332 28V28ZM13.3332 32C13.0695 32 12.8118 31.9218 12.5925 31.7753C12.3732 31.6288 12.2023 31.4205 12.1014 31.1769C12.0005 30.9333 11.9741 30.6652 12.0255 30.4065C12.077 30.1479 12.204 29.9103 12.3904 29.7239C12.5769 29.5374 12.8145 29.4104 13.0731 29.3589C13.3318 29.3075 13.5999 29.3339 13.8435 29.4348C14.0871 29.5357 14.2954 29.7066 14.4419 29.9259C14.5884 30.1452 14.6666 30.403 14.6666 30.6667C14.6662 31.0202 14.5256 31.359 14.2756 31.609C14.0256 31.859 13.6867 31.9996 13.3332 32V32Z" fill="#A7D74A"/>
<path d="M34.6667 28C34.1393 28 33.6237 28.1564 33.1852 28.4494C32.7467 28.7424 32.4049 29.1589 32.2031 29.6462C32.0012 30.1334 31.9484 30.6696 32.0513 31.1869C32.1542 31.7042 32.4082 32.1793 32.7811 32.5523C33.1541 32.9252 33.6292 33.1792 34.1465 33.2821C34.6638 33.385 35.1999 33.3322 35.6872 33.1303C36.1745 32.9285 36.591 32.5867 36.884 32.1482C37.177 31.7096 37.3334 31.1941 37.3334 30.6667C37.3326 29.9597 37.0514 29.2818 36.5515 28.7819C36.0515 28.282 35.3737 28.0008 34.6667 28V28ZM34.6667 32C34.403 32 34.1452 31.9218 33.926 31.7753C33.7067 31.6288 33.5358 31.4205 33.4349 31.1769C33.334 30.9333 33.3076 30.6652 33.359 30.4065C33.4105 30.1479 33.5375 29.9103 33.7239 29.7239C33.9104 29.5374 34.148 29.4104 34.4066 29.3589C34.6652 29.3075 34.9333 29.3339 35.177 29.4348C35.4206 29.5357 35.6288 29.7066 35.7754 29.9259C35.9219 30.1452 36.0001 30.403 36.0001 30.6667C35.9996 31.0202 35.859 31.359 35.6091 31.609C35.3591 31.859 35.0202 31.9996 34.6667 32V32Z" fill="#A7D74A"/>
<path d="M30.6668 28.6667H17.3335V30.0001H30.6668V28.6667Z" fill="#A7D74A"/>
<path d="M30.6668 31.3333H17.3335V32.6666H30.6668V31.3333Z" fill="#A7D74A"/>
</g>
<defs>
<filter id="filter0_d" x="-4" y="0" width="48" height="48" filterUnits="userSpaceOnUse" color-interpolation-filters="sRGB">
<feFlood flood-opacity="0" result="BackgroundImageFix"/>
<feColorMatrix in="SourceAlpha" type="matrix" values="0 0 0 0 0 0 0 0 0 0 0 0 0 0 0 0 0 0 127 0"/>
<feOffset dy="4"/>
<feGaussianBlur stdDeviation="2"/>
<feColorMatrix type="matrix" values="0 0 0 0 0 0 0 0 0 0 0 0 0 0 0 0 0 0 0.25 0"/>
<feBlend mode="normal" in2="BackgroundImageFix" result="effect1_dropShadow"/>
<feBlend mode="normal" in="SourceGraphic" in2="effect1_dropShadow" result="shape"/>
</filter>
<clipPath id="clip0">
<rect width="40" height="40" fill="white"/>
</clipPath>
</defs>
</svg>
