<svg width="40" height="40" viewBox="0 0 40 40" fill="none" xmlns="http://www.w3.org/2000/svg">
<path fill-rule="evenodd" clip-rule="evenodd" d="M19.1456 37.4204L19.1497 37.425L19.2285 37.5123L19.3114 37.4204C19.5491 37.1591 22.7157 33.6272 25.812 28.9587C27.3598 26.6251 28.8683 24.0397 29.9853 21.4617C31.1096 18.8665 31.7904 16.3844 31.7904 14.2285C31.7904 7.30553 26.1516 1.66667 19.2285 1.66667C12.3055 1.66667 6.66667 7.30553 6.66667 14.2285C6.66667 16.3844 7.34745 18.8665 8.47184 21.4617C9.58876 24.0397 11.0973 26.6251 12.6451 28.9587C15.7414 33.6272 18.908 37.1591 19.1456 37.4204ZM20.5447 38.5416C21.0783 37.9546 33.4571 24.1352 33.4571 14.2285C33.4571 6.38506 27.072 0 19.2285 0C11.3851 0 5 6.38506 5 14.2285C5 24.1352 17.3788 37.9546 17.9124 38.5416L17.9912 38.6289C18.6531 39.3623 19.804 39.3623 20.4659 38.6289L20.5447 38.5416Z" fill="#A7D74A"/>
<path fill-rule="evenodd" clip-rule="evenodd" d="M15.7814 7.98926L11.5203 18.5321H10.4205V20.1404H16.7641V18.5321H15.7173L16.7196 15.8965L19.3106 20.1852L21.9464 15.8965L22.9487 18.5321H21.9464V20.1404H28.2901V18.5321H27.1456L22.8845 7.98926L19.3553 14.1095L19.333 14.1855L19.3106 14.1095L15.7814 7.98926Z" fill="#A7D74A"/>
</svg>
