<svg width="56" height="56" viewBox="0 0 56 56" fill="none" xmlns="http://www.w3.org/2000/svg">
<path d="M54.1935 35.2258H46.9677V31.6129H52.3871C54.3797 31.6129 56 29.9926 56 28C56 26.2985 54.8167 24.8678 53.2317 24.4863C52.8414 21.879 50.5859 19.871 47.871 19.871C47.5658 19.871 47.265 19.9062 46.9677 19.9578V5.41935H43.3548V0H12.6452V1.89333C12.0127 2.00227 11.4023 2.21749 10.8387 2.54782C10.0096 2.06137 9.08474 1.80645 8.12903 1.80645C5.41406 1.80645 3.15864 3.81445 2.76833 6.42181C1.18328 6.8033 0 8.234 0 9.93548C0 11.928 1.62034 13.5484 3.6129 13.5484H9.03226V30.7097H1.80645V50.5806H0V56H56V50.5806H54.1935V35.2258ZM51.4839 25.2903V26.1935H52.3871C53.3834 26.1935 54.1935 27.0037 54.1935 28C54.1935 28.9963 53.3834 29.8064 52.3871 29.8064H37.9355C36.9392 29.8064 36.129 28.9963 36.129 28C36.129 27.0037 36.9392 26.1935 37.9355 26.1935H38.8387V25.2903C38.8387 23.2978 40.459 21.6774 42.4516 21.6774C43.2256 21.6774 43.9754 21.9341 44.6166 22.4179L45.1613 22.8289L45.706 22.4179C46.3472 21.9341 47.097 21.6774 47.871 21.6774C49.8635 21.6774 51.4839 23.2978 51.4839 25.2903ZM45.1613 20.6123C44.3322 20.1259 43.4073 19.871 42.4516 19.871C40.0978 19.871 38.0934 21.3828 37.3476 23.4839H30.7097V25.2903H35.5535C34.8002 25.9532 34.3226 26.9208 34.3226 28C34.3226 29.9926 35.9429 31.6129 37.9355 31.6129H45.1613V35.2258H28.9032V7.22581H45.1613V20.6123ZM41.5484 5.41935H28.9032V1.80645H41.5484V5.41935ZM27.0968 1.80645V5.41935H14.4516V1.80645H27.0968ZM3.6129 11.7419C2.61662 11.7419 1.80645 10.9318 1.80645 9.93548C1.80645 8.9392 2.61662 8.12903 3.6129 8.12903H4.51613V7.22581C4.51613 5.23324 6.13647 3.6129 8.12903 3.6129C8.90304 3.6129 9.65278 3.86958 10.294 4.35339L10.8387 4.76443L11.3834 4.35339C11.7697 4.06187 12.198 3.86385 12.6452 3.74389V5.41935H9.03226V11.7419H3.6129ZM10.8387 7.22581H27.0968V35.2258H25.2903V30.7097H10.8387V7.22581ZM3.6129 32.5161H23.4839V40.6452H48.7742V38.8387H25.2903V37.0323H52.3871V38.8387H50.5806V40.6452H52.3871V50.5806H50.5806V42.4516H43.3548V50.5806H41.5484V42.4516H34.3226V50.5806H32.5161V42.4516H25.2903V50.5806H19.871V37.9355H18.0645V50.5806H14.4516V37.9355H12.6452V50.5806H9.03226V37.9355H7.22581V50.5806H3.6129V32.5161ZM48.7742 50.5806H45.1613V44.2581H48.7742V50.5806ZM39.7419 50.5806H36.129V44.2581H39.7419V50.5806ZM30.7097 50.5806H27.0968V44.2581H30.7097V50.5806ZM54.1935 54.1935H1.80645V52.3871H54.1935V54.1935Z" fill="#A7D74A"/>
<path d="M12.6455 10.0322H25.2907V11.8387H12.6455V10.0322Z" fill="#A7D74A"/>
<path d="M12.6455 16.2581H25.2907V18.0645H12.6455V16.2581Z" fill="#A7D74A"/>
<path d="M12.6455 23.4839H25.2907V25.2903H12.6455V23.4839Z" fill="#A7D74A"/>
<path d="M30.71 10.0322H43.3551V11.8387H30.71V10.0322Z" fill="#A7D74A"/>
<path d="M30.71 16.2581H43.3551V18.0645H30.71V16.2581Z" fill="#A7D74A"/>
</svg>
