<svg width="56" height="56" viewBox="0 0 56 56" fill="none" xmlns="http://www.w3.org/2000/svg">
<path d="M7.65116 7H48.3488C48.7085 7 49 7.29155 49 7.65116V48.3488C49 48.7085 48.7085 49 48.3488 49H7.65116C7.29155 49 7 48.7085 7 48.3488V7.65116C7 7.29155 7.29155 7 7.65116 7ZM47.6977 8.30233H8.30233V47.6977H47.6977V8.30233Z" fill="#A7D74A" stroke="#A7D74A"/>
<path d="M20.3369 48.3485C20.3369 48.7081 20.6285 48.9996 20.9881 48.9996C21.3477 48.9996 21.6392 48.7081 21.6392 48.3485V34.8955C21.6392 34.5359 21.3477 34.2444 20.9881 34.2444C20.6285 34.2444 20.3369 34.5359 20.3369 34.8955V48.3485Z" fill="#A7D74A" stroke="#A7D74A"/>
<path d="M7.65116 30.5115C7.29155 30.5115 7 30.803 7 31.1626C7 31.5223 7.29155 31.8138 7.65116 31.8138H16.0381C16.3978 31.8138 16.6893 31.5223 16.6893 31.1626C16.6893 30.803 16.3978 30.5115 16.0381 30.5115H7.65116Z" fill="#A7D74A" stroke="#A7D74A"/>
<path d="M27.6886 7.65116C27.6886 7.29155 27.397 7 27.0374 7C26.6778 7 26.3862 7.29155 26.3862 7.65116V15.2132C26.3862 15.5729 26.6778 15.8644 27.0374 15.8644C27.397 15.8644 27.6886 15.5729 27.6886 15.2132V7.65116Z" fill="#A7D74A" stroke="#A7D74A"/>
<path d="M48.349 30.4388C48.7086 30.4388 49.0001 30.1473 49.0001 29.7877C49.0001 29.428 48.7086 29.1365 48.349 29.1365H27.8263V21.6756C27.8263 21.316 27.5347 21.0244 27.1751 21.0244C26.8155 21.0244 26.5239 21.316 26.5239 21.6756V29.7877C26.5239 30.1473 26.8155 30.4388 27.1751 30.4388H48.349Z" fill="#A7D74A" stroke="#A7D74A"/>
<path d="M38.623 40.3223C38.623 40.6819 38.9146 40.9735 39.2742 40.9735C39.6338 40.9735 39.9254 40.6819 39.9254 40.3223V29.7874C39.9254 29.4278 39.6338 29.1362 39.2742 29.1362C38.9146 29.1362 38.623 29.4278 38.623 29.7874V40.3223Z" fill="#A7D74A" stroke="#A7D74A"/>
</svg>
