<svg width="58" height="59" viewBox="0 0 58 59" fill="none" xmlns="http://www.w3.org/2000/svg">
<g filter="url(#filter0_d)">
<path d="M5.17318 50.5307C4.50279 50.5307 4 50.0279 4 49.3575V9.63681C4 8.96642 4.50279 8.46362 5.17318 8.46362C5.84357 8.46362 6.34637 8.96642 6.34637 9.63681V49.3575C6.40223 50.0279 5.84357 50.5307 5.17318 50.5307Z" fill="#A7D74A"/>
<path d="M26.2347 50.5307C25.5643 50.5307 25.0615 50.0279 25.0615 49.3575V9.63681C25.0615 8.96642 25.5643 8.46362 26.2347 8.46362C26.9051 8.46362 27.4079 8.96642 27.4079 9.63681V49.3575C27.4638 50.0279 26.9051 50.5307 26.2347 50.5307Z" fill="#A7D74A"/>
<path d="M26.2346 50.5307H5.17318C4.50279 50.5307 4 50.0279 4 49.3575C4 48.6871 4.50279 48.1843 5.17318 48.1843H26.2346C26.905 48.1843 27.4078 48.6871 27.4078 49.3575C27.4637 50.0279 26.905 50.5307 26.2346 50.5307Z" fill="#A7D74A"/>
<path d="M26.2346 10.6984H5.17318C4.50279 10.6984 4 10.1956 4 9.52524C4 8.85484 4.50279 8.35205 5.17318 8.35205H26.2346C26.905 8.35205 27.4078 8.85484 27.4078 9.52524C27.4078 10.1956 26.905 10.6984 26.2346 10.6984Z" fill="#A7D74A"/>
<path d="M10.5921 9.52514C9.92174 9.52514 9.41895 9.02235 9.41895 8.35195V6.17318C9.41895 5.50279 9.92174 5 10.5921 5C11.2625 5 11.7653 5.50279 11.7653 6.17318V8.35195C11.7653 9.02235 11.2625 9.52514 10.5921 9.52514Z" fill="#A7D74A"/>
<path d="M22.0448 9.52514C21.3744 9.52514 20.8716 9.02235 20.8716 8.35195V6.17318C20.8716 5.50279 21.3744 5 22.0448 5C22.7152 5 23.218 5.50279 23.218 6.17318V8.35195C23.218 9.02235 22.7152 9.52514 22.0448 9.52514Z" fill="#A7D74A"/>
<path d="M21.8212 7.34637H10.8715C10.0893 7.34637 9.41895 6.84358 9.41895 6.17318C9.41895 5.50279 10.0335 5 10.8715 5H21.8212C22.6033 5 23.2737 5.50279 23.2737 6.17318C23.2737 6.84358 22.6033 7.34637 21.8212 7.34637Z" fill="#A7D74A"/>
<path d="M20.0337 44.2739H11.2069C10.5365 44.2739 10.0337 43.7711 10.0337 43.1007C10.0337 42.4303 10.5365 41.9275 11.2069 41.9275H20.0337C20.7041 41.9275 21.2069 42.4303 21.2069 43.1007C21.2069 43.7711 20.7041 44.2739 20.0337 44.2739Z" fill="#A7D74A"/>
<path d="M20.0337 38.7431H11.2069C10.5365 38.7431 10.0337 38.2403 10.0337 37.5699C10.0337 36.8995 10.5365 36.3967 11.2069 36.3967H20.0337C20.7041 36.3967 21.2069 36.8995 21.2069 37.5699C21.2069 38.2403 20.7041 38.7431 20.0337 38.7431Z" fill="#A7D74A"/>
<path d="M20.0337 33.1564H11.2069C10.5365 33.1564 10.0337 32.6536 10.0337 31.9832C10.0337 31.3129 10.5365 30.8101 11.2069 30.8101H20.0337C20.7041 30.8101 21.2069 31.3129 21.2069 31.9832C21.2069 32.6536 20.7041 33.1564 20.0337 33.1564Z" fill="#A7D74A"/>
<path d="M20.0337 27.5698H11.2069C10.5365 27.5698 10.0337 27.067 10.0337 26.3966C10.0337 25.7262 10.5365 25.2234 11.2069 25.2234H20.0337C20.7041 25.2234 21.2069 25.7262 21.2069 26.3966C21.2069 27.067 20.7041 27.5698 20.0337 27.5698Z" fill="#A7D74A"/>
<path d="M20.0337 22.1508H11.2069C10.5365 22.1508 10.0337 21.648 10.0337 20.9776C10.0337 20.3072 10.5365 19.8044 11.2069 19.8044H20.0337C20.7041 19.8044 21.2069 20.3072 21.2069 20.9776C21.2069 21.648 20.7041 22.1508 20.0337 22.1508Z" fill="#A7D74A"/>
<path d="M20.0337 16.7319H11.2069C10.5365 16.7319 10.0337 16.2291 10.0337 15.5587C10.0337 14.8883 10.5365 14.3855 11.2069 14.3855H20.0337C20.7041 14.3855 21.2069 14.8883 21.2069 15.5587C21.2069 16.2291 20.7041 16.7319 20.0337 16.7319Z" fill="#A7D74A"/>
<path d="M45.2289 24.1061C45.0055 24.3296 44.7262 24.4413 44.391 24.4413C43.7206 24.4413 43.2178 23.9385 43.2178 23.2681V8.74301C43.2178 8.07262 43.7206 7.56982 44.391 7.56982C45.0613 7.56982 45.5641 8.07262 45.5641 8.74301V23.2681C45.5641 23.6033 45.4524 23.8827 45.2289 24.1061Z" fill="#A7D74A"/>
<path d="M45.2289 9.581L36.8491 17.9609C36.4021 18.4078 35.62 18.4078 35.1731 17.9609C34.7262 17.514 34.7262 16.7318 35.1731 16.2849L43.553 7.90502C43.9999 7.45809 44.782 7.45809 45.2289 7.90502C45.6759 8.35195 45.6759 9.0782 45.2289 9.581Z" fill="#A7D74A"/>
<path d="M53.665 17.9609C53.2181 18.4078 52.4359 18.4078 51.989 17.9609L43.6091 9.581C43.1622 9.13407 43.1622 8.35195 43.6091 7.90502C44.056 7.45809 44.8382 7.45809 45.2851 7.90502L53.665 16.2849C54.1119 16.7318 54.1119 17.514 53.665 17.9609Z" fill="#A7D74A"/>
<path d="M43.553 33.2124C43.7764 32.9889 44.0558 32.8772 44.391 32.8772C45.0613 32.8772 45.5641 33.38 45.5641 34.0504V48.5755C45.5641 49.2459 45.0613 49.7487 44.391 49.7487C43.7206 49.7487 43.2178 49.2459 43.2178 48.5755V34.0504C43.2178 33.7152 43.3295 33.4359 43.553 33.2124Z" fill="#A7D74A"/>
<path d="M43.553 47.7375L51.9329 39.3577C52.3798 38.9107 53.1619 38.9107 53.6088 39.3577C54.0558 39.8046 54.0558 40.5867 53.6088 41.0336L45.2289 49.4135C44.782 49.8604 43.9999 49.8604 43.553 49.4135C43.106 48.9666 43.106 48.2403 43.553 47.7375Z" fill="#A7D74A"/>
<path d="M35.1731 39.3577C35.62 38.9107 36.4021 38.9107 36.8491 39.3577L45.2289 47.7375C45.6759 48.1845 45.6759 48.9666 45.2289 49.4135C44.782 49.8604 43.9999 49.8604 43.553 49.4135L35.1731 41.0336C34.7262 40.5867 34.7262 39.8046 35.1731 39.3577Z" fill="#A7D74A"/>
</g>
<defs>
<filter id="filter0_d" x="-3" y="0" width="64" height="64" filterUnits="userSpaceOnUse" color-interpolation-filters="sRGB">
<feFlood flood-opacity="0" result="BackgroundImageFix"/>
<feColorMatrix in="SourceAlpha" type="matrix" values="0 0 0 0 0 0 0 0 0 0 0 0 0 0 0 0 0 0 127 0"/>
<feOffset dy="4"/>
<feGaussianBlur stdDeviation="2"/>
<feColorMatrix type="matrix" values="0 0 0 0 0 0 0 0 0 0 0 0 0 0 0 0 0 0 0.25 0"/>
<feBlend mode="normal" in2="BackgroundImageFix" result="effect1_dropShadow"/>
<feBlend mode="normal" in="SourceGraphic" in2="effect1_dropShadow" result="shape"/>
</filter>
</defs>
</svg>
