<svg width="56" height="56" viewBox="0 0 56 56" fill="none" xmlns="http://www.w3.org/2000/svg">
<path d="M4.17318 50.5307C3.50279 50.5307 3 50.0279 3 49.3575V9.63681C3 8.96642 3.50279 8.46362 4.17318 8.46362C4.84357 8.46362 5.34637 8.96642 5.34637 9.63681V49.3575C5.40223 50.0279 4.84357 50.5307 4.17318 50.5307Z" fill="#A7D74A"/>
<path d="M25.2347 50.5307C24.5643 50.5307 24.0615 50.0279 24.0615 49.3575V9.63681C24.0615 8.96642 24.5643 8.46362 25.2347 8.46362C25.9051 8.46362 26.4079 8.96642 26.4079 9.63681V49.3575C26.4638 50.0279 25.9051 50.5307 25.2347 50.5307Z" fill="#A7D74A"/>
<path d="M25.2346 50.5307H4.17318C3.50279 50.5307 3 50.0279 3 49.3575C3 48.6871 3.50279 48.1843 4.17318 48.1843H25.2346C25.905 48.1843 26.4078 48.6871 26.4078 49.3575C26.4637 50.0279 25.905 50.5307 25.2346 50.5307Z" fill="#A7D74A"/>
<path d="M25.2346 10.6984H4.17318C3.50279 10.6984 3 10.1956 3 9.52524C3 8.85484 3.50279 8.35205 4.17318 8.35205H25.2346C25.905 8.35205 26.4078 8.85484 26.4078 9.52524C26.4078 10.1956 25.905 10.6984 25.2346 10.6984Z" fill="#A7D74A"/>
<path d="M9.59213 9.52514C8.92174 9.52514 8.41895 9.02235 8.41895 8.35195V6.17318C8.41895 5.50279 8.92174 5 9.59213 5C10.2625 5 10.7653 5.50279 10.7653 6.17318V8.35195C10.7653 9.02235 10.2625 9.52514 9.59213 9.52514Z" fill="#A7D74A"/>
<path d="M21.0448 9.52514C20.3744 9.52514 19.8716 9.02235 19.8716 8.35195V6.17318C19.8716 5.50279 20.3744 5 21.0448 5C21.7152 5 22.218 5.50279 22.218 6.17318V8.35195C22.218 9.02235 21.7152 9.52514 21.0448 9.52514Z" fill="#A7D74A"/>
<path d="M20.8212 7.34637H9.87146C9.08934 7.34637 8.41895 6.84358 8.41895 6.17318C8.41895 5.50279 9.03347 5 9.87146 5H20.8212C21.6033 5 22.2737 5.50279 22.2737 6.17318C22.2737 6.84358 21.6033 7.34637 20.8212 7.34637Z" fill="#A7D74A"/>
<path d="M19.0337 44.2739H10.2069C9.53648 44.2739 9.03369 43.7711 9.03369 43.1007C9.03369 42.4303 9.53648 41.9275 10.2069 41.9275H19.0337C19.7041 41.9275 20.2069 42.4303 20.2069 43.1007C20.2069 43.7711 19.7041 44.2739 19.0337 44.2739Z" fill="#A7D74A"/>
<path d="M19.0337 38.7431H10.2069C9.53648 38.7431 9.03369 38.2403 9.03369 37.5699C9.03369 36.8995 9.53648 36.3967 10.2069 36.3967H19.0337C19.7041 36.3967 20.2069 36.8995 20.2069 37.5699C20.2069 38.2403 19.7041 38.7431 19.0337 38.7431Z" fill="#A7D74A"/>
<path d="M19.0337 33.1564H10.2069C9.53648 33.1564 9.03369 32.6536 9.03369 31.9832C9.03369 31.3129 9.53648 30.8101 10.2069 30.8101H19.0337C19.7041 30.8101 20.2069 31.3129 20.2069 31.9832C20.2069 32.6536 19.7041 33.1564 19.0337 33.1564Z" fill="#A7D74A"/>
<path d="M19.0337 27.5698H10.2069C9.53648 27.5698 9.03369 27.067 9.03369 26.3966C9.03369 25.7262 9.53648 25.2234 10.2069 25.2234H19.0337C19.7041 25.2234 20.2069 25.7262 20.2069 26.3966C20.2069 27.067 19.7041 27.5698 19.0337 27.5698Z" fill="#A7D74A"/>
<path d="M19.0337 22.1508H10.2069C9.53648 22.1508 9.03369 21.648 9.03369 20.9776C9.03369 20.3072 9.53648 19.8044 10.2069 19.8044H19.0337C19.7041 19.8044 20.2069 20.3072 20.2069 20.9776C20.2069 21.648 19.7041 22.1508 19.0337 22.1508Z" fill="#A7D74A"/>
<path d="M19.0337 16.7319H10.2069C9.53648 16.7319 9.03369 16.2291 9.03369 15.5587C9.03369 14.8883 9.53648 14.3855 10.2069 14.3855H19.0337C19.7041 14.3855 20.2069 14.8883 20.2069 15.5587C20.2069 16.2291 19.7041 16.7319 19.0337 16.7319Z" fill="#A7D74A"/>
<path d="M44.2289 24.1061C44.0055 24.3296 43.7262 24.4413 43.391 24.4413C42.7206 24.4413 42.2178 23.9385 42.2178 23.2681V8.74301C42.2178 8.07262 42.7206 7.56982 43.391 7.56982C44.0613 7.56982 44.5641 8.07262 44.5641 8.74301V23.2681C44.5641 23.6033 44.4524 23.8827 44.2289 24.1061Z" fill="#A7D74A"/>
<path d="M44.2289 9.581L35.8491 17.9609C35.4021 18.4078 34.62 18.4078 34.1731 17.9609C33.7262 17.514 33.7262 16.7318 34.1731 16.2849L42.553 7.90502C42.9999 7.45809 43.782 7.45809 44.2289 7.90502C44.6759 8.35195 44.6759 9.0782 44.2289 9.581Z" fill="#A7D74A"/>
<path d="M52.665 17.9609C52.2181 18.4078 51.4359 18.4078 50.989 17.9609L42.6091 9.581C42.1622 9.13407 42.1622 8.35195 42.6091 7.90502C43.056 7.45809 43.8382 7.45809 44.2851 7.90502L52.665 16.2849C53.1119 16.7318 53.1119 17.514 52.665 17.9609Z" fill="#A7D74A"/>
<path d="M42.553 33.2124C42.7764 32.9889 43.0558 32.8772 43.391 32.8772C44.0613 32.8772 44.5641 33.38 44.5641 34.0504V48.5755C44.5641 49.2459 44.0613 49.7487 43.391 49.7487C42.7206 49.7487 42.2178 49.2459 42.2178 48.5755V34.0504C42.2178 33.7152 42.3295 33.4359 42.553 33.2124Z" fill="#A7D74A"/>
<path d="M42.553 47.7375L50.9329 39.3577C51.3798 38.9107 52.1619 38.9107 52.6088 39.3577C53.0558 39.8046 53.0558 40.5867 52.6088 41.0336L44.2289 49.4135C43.782 49.8604 42.9999 49.8604 42.553 49.4135C42.106 48.9666 42.106 48.2403 42.553 47.7375Z" fill="#A7D74A"/>
<path d="M34.1731 39.3577C34.62 38.9107 35.4021 38.9107 35.8491 39.3577L44.2289 47.7375C44.6759 48.1845 44.6759 48.9666 44.2289 49.4135C43.782 49.8604 42.9999 49.8604 42.553 49.4135L34.1731 41.0336C33.7262 40.5867 33.7262 39.8046 34.1731 39.3577Z" fill="#A7D74A"/>
</svg>
