<svg width="56" height="56" viewBox="0 0 56 56" fill="none" xmlns="http://www.w3.org/2000/svg">
<path d="M43.8666 21.4667V0.933333C43.8666 0.685798 43.7683 0.448401 43.5933 0.273367C43.4182 0.098333 43.1808 0 42.9333 0H13.0666C12.8191 0 12.5817 0.098333 12.4067 0.273367C12.2316 0.448401 12.1333 0.685798 12.1333 0.933333V21.4667C12.1333 21.7142 12.2316 21.9516 12.4067 22.1266C12.5817 22.3017 12.8191 22.4 13.0666 22.4H24.2666V31.7333C24.2666 31.9809 24.365 32.2183 24.54 32.3933C24.715 32.5683 24.9524 32.6667 25.2 32.6667H30.8C31.0475 32.6667 31.2849 32.5683 31.4599 32.3933C31.635 32.2183 31.7333 31.9809 31.7333 31.7333V22.4H42.9333C43.1808 22.4 43.4182 22.3017 43.5933 22.1266C43.7683 21.9516 43.8666 21.7142 43.8666 21.4667ZM29.8666 30.8H26.1333V22.4H29.8666V30.8ZM42 20.5333H14V1.86667H42V20.5333Z" fill="#A7D74A"/>
<path d="M38.2667 5.6001H17.7334V7.46676H38.2667V5.6001Z" fill="#A7D74A"/>
<path d="M38.2667 14.9333H17.7334V16.8H38.2667V14.9333Z" fill="#A7D74A"/>
<path d="M38.2667 10.2666H17.7334V12.1333H38.2667V10.2666Z" fill="#A7D74A"/>
<path d="M1.86667 9.33322H5.6V7.46655H0.933333C0.685798 7.46655 0.448401 7.56489 0.273367 7.73992C0.098333 7.91495 0 8.15235 0 8.39989V13.0666H1.86667V9.33322Z" fill="#A7D74A"/>
<path d="M1.86667 20.5334H0V28.0001H1.86667V20.5334Z" fill="#A7D74A"/>
<path d="M1.86667 35.4666H0V42.9332H1.86667V35.4666Z" fill="#A7D74A"/>
<path d="M0.933333 55.9999H5.6V54.1332H1.86667V50.3999H0V55.0666C0 55.3141 0.098333 55.5515 0.273367 55.7265C0.448401 55.9016 0.685798 55.9999 0.933333 55.9999Z" fill="#A7D74A"/>
<path d="M23.3331 54.1333H14.9331V56H23.3331V54.1333Z" fill="#A7D74A"/>
<path d="M41.0665 54.1333H32.6665V56H41.0665V54.1333Z" fill="#A7D74A"/>
<path d="M54.1332 54.1332H50.3999V55.9999H55.0666C55.3141 55.9999 55.5515 55.9016 55.7265 55.7265C55.9016 55.5515 55.9999 55.3141 55.9999 55.0666V50.3999H54.1332V54.1332Z" fill="#A7D74A"/>
<path d="M56 35.4666H54.1333V42.9332H56V35.4666Z" fill="#A7D74A"/>
<path d="M56 20.5334H54.1333V28.0001H56V20.5334Z" fill="#A7D74A"/>
<path d="M55.0666 7.46655H50.3999V9.33322H54.1332V13.0666H55.9999V8.39989C55.9999 8.15235 55.9016 7.91495 55.7265 7.73992C55.5515 7.56489 55.3141 7.46655 55.0666 7.46655Z" fill="#A7D74A"/>
</svg>
