<svg width="56" height="57" viewBox="0 0 56 57" fill="none" xmlns="http://www.w3.org/2000/svg">
<g clip-path="url(#clip0)">
<path d="M55.9777 54.5227L52.2443 37.7226C52.1501 37.296 51.7712 36.9917 51.3333 36.9917H47.6004V35.125C47.6004 31.3243 44.7448 28.1797 41.067 27.7187V20.4212C41.067 18.2362 39.289 16.4581 37.1041 16.4581H34.5337V10.8581C34.5337 5.19734 29.9276 0.591309 24.2669 0.591309C21.3433 0.591309 18.7011 1.82004 16.8294 3.78804C15.9303 3.52991 14.9811 3.39133 14.0001 3.39133C8.33936 3.39133 3.73332 7.99737 3.73332 13.6581V16.4652C1.65486 16.5849 0 18.3134 0 20.4213V54.7252C0 55.2404 0.418144 55.6586 0.933304 55.6586H8.40006H25.1999H25.2002H55.0667C55.3504 55.6586 55.6183 55.5297 55.7957 55.3086C55.9721 55.0884 56.0392 54.799 55.9777 54.5227ZM45.7336 35.1251V36.9918H41.0669V29.6043C43.7123 30.0499 45.7336 32.3548 45.7336 35.1251ZM34.5336 36.9918V35.1251C34.5336 32.3547 36.5549 30.0499 39.2003 29.6042V36.9917H34.5336V36.9918ZM24.2669 2.45814C28.8981 2.45814 32.6669 6.22701 32.6669 10.8582V16.4582H24.2669V13.6582C24.2669 9.70265 22.0175 6.26256 18.731 4.54864C20.2106 3.24892 22.1477 2.45814 24.2669 2.45814ZM15.8668 16.4582V10.8582C15.8668 9.04541 16.4462 7.36627 17.4267 5.99196C20.3545 7.30611 22.4002 10.2471 22.4002 13.6582V16.4582H15.8668ZM14.0001 5.25827C14.5369 5.25827 15.0615 5.31099 15.5705 5.40778C14.5763 6.98827 14.0001 8.85717 14.0001 10.8582V16.4582H11.5239H5.60004V13.6582C5.60004 9.02703 9.36891 5.25827 14.0001 5.25827ZM1.86672 20.4213C1.86672 19.2658 2.80757 18.325 3.96301 18.325H8.11164C7.70432 18.9574 7.46676 19.709 7.46676 20.5155V53.7919H1.86672V20.4213ZM9.33337 20.5155C9.33337 19.3078 10.3162 18.325 11.5239 18.325H14.0001V25.7917C14.0001 26.3069 14.4182 26.725 14.9334 26.725C15.4486 26.725 15.8667 26.3069 15.8667 25.7917V18.325H32.6668V25.7917C32.6668 26.3069 33.085 26.725 33.6001 26.725C34.1153 26.725 34.5334 26.3069 34.5334 25.7917V18.325H37.1039C38.2593 18.325 39.2002 19.2658 39.2002 20.4213V27.7188C35.5224 28.1798 32.6668 31.3244 32.6668 35.1251V36.9918H28.9332C28.4963 36.9918 28.1175 37.2961 28.0223 37.7227L24.4513 53.7919H9.33337V20.5155ZM26.3637 53.7919L29.6827 38.8585H32.6669V45.3919C32.6669 45.907 33.0851 46.3252 33.6003 46.3252C34.1154 46.3252 34.5336 45.907 34.5336 45.3919V38.8585H45.7336V45.3919C45.7336 45.907 46.1518 46.3252 46.6669 46.3252C47.1821 46.3252 47.6002 45.907 47.6002 45.3919V38.8585H50.5847L53.9037 53.7919H26.3637Z" fill="#A7D74A"/>
</g>
<defs>
<clipPath id="clip0">
<rect width="56" height="56" fill="white" transform="translate(0 0.125)"/>
</clipPath>
</defs>
</svg>
