<svg width="64" height="64" viewBox="0 0 64 64" fill="none" xmlns="http://www.w3.org/2000/svg">
<g clip-path="url(#clip0)" filter="url(#filter0_dd)">
<path d="M59.9777 54.5227L56.2443 37.7226C56.1501 37.296 55.7712 36.9917 55.3333 36.9917H51.6004V35.125C51.6004 31.3243 48.7448 28.1797 45.067 27.7187V20.4212C45.067 18.2362 43.289 16.4581 41.1041 16.4581H38.5337V10.8581C38.5337 5.19734 33.9276 0.591309 28.2669 0.591309C25.3433 0.591309 22.7011 1.82004 20.8294 3.78804C19.9303 3.52991 18.9811 3.39133 18.0001 3.39133C12.3394 3.39133 7.73332 7.99737 7.73332 13.6581V16.4652C5.65486 16.5849 4 18.3134 4 20.4213V54.7252C4 55.2404 4.41814 55.6586 4.9333 55.6586H12.4001H29.1999H29.2002H59.0667C59.3504 55.6586 59.6183 55.5297 59.7957 55.3086C59.9721 55.0884 60.0392 54.799 59.9777 54.5227ZM49.7336 35.1251V36.9918H45.0669V29.6043C47.7123 30.0499 49.7336 32.3548 49.7336 35.1251ZM38.5336 36.9918V35.1251C38.5336 32.3547 40.5549 30.0499 43.2003 29.6042V36.9917H38.5336V36.9918ZM28.2669 2.45814C32.8981 2.45814 36.6669 6.22701 36.6669 10.8582V16.4582H28.2669V13.6582C28.2669 9.70265 26.0175 6.26256 22.731 4.54864C24.2106 3.24892 26.1477 2.45814 28.2669 2.45814ZM19.8668 16.4582V10.8582C19.8668 9.04541 20.4462 7.36627 21.4267 5.99196C24.3545 7.30611 26.4002 10.2471 26.4002 13.6582V16.4582H19.8668ZM18.0001 5.25827C18.5369 5.25827 19.0615 5.31099 19.5705 5.40778C18.5763 6.98827 18.0001 8.85717 18.0001 10.8582V16.4582H15.5239H9.60004V13.6582C9.60004 9.02703 13.3689 5.25827 18.0001 5.25827ZM5.86672 20.4213C5.86672 19.2658 6.80757 18.325 7.96301 18.325H12.1116C11.7043 18.9574 11.4668 19.709 11.4668 20.5155V53.7919H5.86672V20.4213ZM13.3334 20.5155C13.3334 19.3078 14.3162 18.325 15.5239 18.325H18.0001V25.7917C18.0001 26.3069 18.4182 26.725 18.9334 26.725C19.4486 26.725 19.8667 26.3069 19.8667 25.7917V18.325H36.6668V25.7917C36.6668 26.3069 37.085 26.725 37.6001 26.725C38.1153 26.725 38.5334 26.3069 38.5334 25.7917V18.325H41.1039C42.2593 18.325 43.2002 19.2658 43.2002 20.4213V27.7188C39.5224 28.1798 36.6668 31.3244 36.6668 35.1251V36.9918H32.9332C32.4963 36.9918 32.1175 37.2961 32.0223 37.7227L28.4513 53.7919H13.3334V20.5155ZM30.3637 53.7919L33.6827 38.8585H36.6669V45.3919C36.6669 45.907 37.0851 46.3252 37.6003 46.3252C38.1154 46.3252 38.5336 45.907 38.5336 45.3919V38.8585H49.7336V45.3919C49.7336 45.907 50.1518 46.3252 50.6669 46.3252C51.1821 46.3252 51.6002 45.907 51.6002 45.3919V38.8585H54.5847L57.9037 53.7919H30.3637Z" fill="#A7D74A"/>
</g>
<defs>
<filter id="filter0_dd" x="0" y="0.125" width="64" height="64" filterUnits="userSpaceOnUse" color-interpolation-filters="sRGB">
<feFlood flood-opacity="0" result="BackgroundImageFix"/>
<feColorMatrix in="SourceAlpha" type="matrix" values="0 0 0 0 0 0 0 0 0 0 0 0 0 0 0 0 0 0 127 0"/>
<feOffset dy="4"/>
<feGaussianBlur stdDeviation="2"/>
<feColorMatrix type="matrix" values="0 0 0 0 0 0 0 0 0 0 0 0 0 0 0 0 0 0 0.25 0"/>
<feBlend mode="normal" in2="BackgroundImageFix" result="effect1_dropShadow"/>
<feColorMatrix in="SourceAlpha" type="matrix" values="0 0 0 0 0 0 0 0 0 0 0 0 0 0 0 0 0 0 127 0"/>
<feOffset dy="4"/>
<feGaussianBlur stdDeviation="2"/>
<feColorMatrix type="matrix" values="0 0 0 0 0 0 0 0 0 0 0 0 0 0 0 0 0 0 0.25 0"/>
<feBlend mode="normal" in2="effect1_dropShadow" result="effect2_dropShadow"/>
<feBlend mode="normal" in="SourceGraphic" in2="effect2_dropShadow" result="shape"/>
</filter>
<clipPath id="clip0">
<rect width="56" height="56" fill="white" transform="translate(4 0.125)"/>
</clipPath>
</defs>
</svg>
