<svg width="48" height="55" viewBox="0 0 48 55" fill="none" xmlns="http://www.w3.org/2000/svg">
<path d="M43.5786 27.397C42.8325 22.8689 40.2258 19.6652 36.0403 18.1321C34.951 17.7328 33.869 17.4607 32.8248 17.3232C31.0467 17.089 29.5099 17.261 28.2155 17.6311C27.468 17.8448 26.6345 17.2398 26.6585 16.4627C26.662 16.3492 26.6647 16.2313 26.6665 16.1093C26.6731 15.671 27.0718 15.3355 27.5065 15.3928C29.3437 15.6348 32.8088 15.7473 35.3711 13.7818C38.8673 11.0993 39.0546 5.74759 39.0608 5.52093C39.0783 4.88738 38.6494 4.32828 38.0329 4.18115C37.9898 4.17092 37.5922 4.07785 36.963 3.99496C35.1256 3.75295 31.6606 3.64054 29.0988 5.60617C27.5197 6.81754 26.6169 8.57292 26.0996 10.1552C25.6988 8.08537 25.0395 5.6963 23.9758 3.05184C23.6999 2.36585 22.9195 2.03288 22.2333 2.30912C21.5468 2.58514 21.2144 3.36528 21.4904 4.05163C23.6942 9.53043 24.0178 13.8432 23.9764 16.1784C23.9625 16.9654 23.0519 17.3331 22.3715 16.9373C21.2118 16.2628 19.7636 15.7228 17.9781 15.4877L17.9771 15.4875C16.9333 15.35 15.8261 15.2738 14.6702 15.3772C10.2307 15.7742 6.88698 18.1643 4.99381 22.3447C3.24279 26.2114 3.11551 30.8047 3.3153 33.9892C3.52754 37.3728 4.77372 41.2954 6.64759 44.4936C7.71612 46.3173 8.93957 47.8213 10.2832 48.971C11.9242 50.3755 13.7042 51.2106 15.5731 51.4568C18.8775 51.892 22.514 52.3697 25.8184 52.8049C27.6875 53.0511 29.6233 52.7034 31.5721 51.7719C33.1674 51.0093 34.7393 49.8695 36.2434 48.3848C38.8816 45.7809 41.1019 42.3079 42.1833 39.094C43.2006 36.0691 44.2685 31.5849 43.5786 27.397Z" fill="#2ADF91"/>
</svg>
