<svg width="102" height="70" viewBox="0 0 102 70" fill="none" xmlns="http://www.w3.org/2000/svg">
<mask id="mask0" mask-type="alpha" maskUnits="userSpaceOnUse" x="0" y="0" width="102" height="70">
<path d="M0.951172 0.589844H101.477V69.5192H0.951172V0.589844Z" fill="#C4C4C4"/>
</mask>
<g mask="url(#mask0)">
<path d="M59.8212 20.1104C59.3426 20.3496 58.5908 20.5943 58.5908 24.5601C58.5908 28.5262 63.6853 34.8538 63.6853 34.8538L68.6712 30.7979C68.6709 30.7979 63.1566 22.6148 59.8212 20.1104Z" fill="#E6C24C"/>
<path d="M58.2039 44.5792C58.2039 44.5792 62.2213 42.5987 61.4485 46.9053C60.6758 51.2121 54.7886 99.6443 54.7886 99.6443L49.275 99.9502C49.275 99.9502 48.5708 83.8024 48.7253 81.4835C48.8798 79.1645 49.7935 75.5773 49.7935 75.5773L50.2613 61.2524L55.4633 43.5654L58.2039 44.5792Z" fill="#355389"/>
<path d="M34.9821 66.4011C34.9821 66.4011 32.1802 63.4633 31.5564 62.2764C31.2223 61.6407 30.9195 60.0198 30.2219 59.7326C29.5241 59.4451 29.0998 59.5762 29.0998 59.5762L21.7473 65.3491C21.3466 65.6633 21.8111 65.702 22.3169 65.6734C23.1448 65.6278 23.7684 65.5354 26.0786 64.976C26.2293 64.9394 26.8258 64.8659 27.0384 64.8358C27.5767 64.7597 28.2176 64.8067 28.8087 64.8955C29.793 65.0435 32.0837 67.7734 32.0837 67.7734L34.9821 66.4011Z" fill="#F7A491"/>
<path d="M27.04 64.8349C28.5669 62.7936 30.2531 61.9718 31.3025 61.6426C31.0443 60.906 30.7621 59.9432 30.2832 59.6471C29.697 59.2849 29.2927 59.3599 29.0663 59.5337C27.2759 60.9108 22.5898 64.6783 21.2388 65.7455C21.0502 65.8947 21.1211 66.1927 21.3558 66.2364C22.003 66.3567 26.8272 64.865 27.04 64.8349Z" fill="#3C8F7C"/>
<path d="M28.7391 28.3205C32.7299 35.0668 38.5167 31.2784 38.2678 31.3061C38.467 31.2712 39.6247 31.5491 40.3873 31.6969C43.5637 32.3126 46.9595 30.7314 48.913 28.0357C53.7682 28.5251 57.8705 24.8966 57.3761 20.8064C60.0666 18.7042 60.3966 14.4165 59.0497 11.3045C59.6111 6.85538 54.1102 4.78805 49.8472 5.39185C47.6862 5.69816 45.6091 6.96902 44.2665 8.78589C40.5234 7.81132 36.6592 9.82469 34.9152 13.4821C28.677 13.7404 24.6667 21.4362 28.7391 28.3205Z" fill="#E68B75"/>
<path d="M59.8226 46.14C59.8226 46.14 50.8121 42.1347 50.67 42.5915C49.5407 46.229 46.0254 45.0556 43.9387 51.4626C43.0649 54.1457 42.1677 71.9931 42.1677 71.9931C42.1677 71.9931 38.6145 69.0453 33.5369 63.8943C33.1474 63.4991 29.3301 67.1284 29.3301 67.1284C39.4088 80.7423 43.7565 81.4525 45.4385 80.6902C48.9492 79.0992 56.3563 56.8431 56.3444 56.8455C57.2339 55.1129 59.8226 46.14 59.8226 46.14Z" fill="#466EB6"/>
<path d="M44.8826 20.9974C44.8826 20.9974 31.8585 20.9807 29.0699 20.8197C26.5459 20.6743 16.5362 20.9291 16.1446 20.8837C15.7532 20.8384 13.1657 16.4576 12.7358 16.9279C12.3057 17.3982 14.1756 19.1003 13.5972 19.5417C13.0191 19.9834 6.80645 18.9945 6.88908 19.4536C7.04335 20.3129 10.6678 20.2033 10.6639 20.618C10.6603 21.0327 6.87069 20.3852 6.61373 21.074C6.35654 21.7626 10.2592 21.3548 10.4149 21.662C10.5706 21.9693 6.79547 22.532 7.18162 23.1724C7.39129 23.5202 10.5264 22.5915 10.5113 23.0656C10.4961 23.5396 8.20874 24.6182 8.48934 24.9959C8.7697 25.3736 10.2845 23.837 11.6115 23.8179C12.9388 23.7988 13.889 23.1065 16.0075 23.6876C17.0537 23.9743 25.0398 24.9506 31.7878 25.5269C38.7054 26.1178 44.3761 26.3057 44.3761 26.3057L44.8826 20.9974Z" fill="#F7A491"/>
<path d="M64.7607 30.2389C65.5053 27.0134 63.2717 25.6175 59.8204 20.1105C58.666 19.9553 56.8824 20.3418 56.6089 20.3399C54.8393 20.3275 48.6554 20.1399 47.501 20.1191L48.1505 28.8905C52.632 37.6723 51.4184 42.2807 49.7135 43.9851C48.9116 44.7868 60.896 48.0412 61.4477 46.9055C62.0984 45.5666 63.8069 34.3709 64.7607 30.2389Z" fill="#FFD95E"/>
<path d="M50.6446 20.4501C49.504 19.9053 41.2494 20.1782 41.2494 20.1782C41.2494 20.1782 40.0957 25.9249 41.0278 27.3063C41.0278 27.3063 48.4086 28.4043 48.1987 29.0098L50.6446 20.4501Z" fill="#FFD95E"/>
<path d="M52.8077 16.7576C52.8077 16.7576 52.9527 19.8916 52.8058 21.1971C52.659 22.5023 54.1455 25.5631 56.9131 25.6163C59.6804 25.6696 57.3191 22.6797 57.0767 21.395C56.8343 20.1103 56.5437 15.0815 56.5437 15.0815L52.8077 16.7576Z" fill="#F7A491"/>
<path d="M56.5423 15.0815C56.5423 15.0815 56.6099 16.2488 56.7069 17.6022C55.8343 18.6434 54.4929 19.1749 52.8616 18.5412C52.8439 17.5707 52.8066 16.7573 52.8066 16.7573L56.5423 15.0815Z" fill="#E68B75"/>
<path d="M52.5794 7.41877C52.5794 7.41877 51.0123 7.88696 50.1328 9.45434C49.2533 11.0215 48.8831 15.4825 52.2623 17.3201C55.6414 19.1578 57.9581 16.0696 57.8038 13.2237C57.6496 10.3778 56.7791 6.62565 52.5794 7.41877Z" fill="#F7A491"/>
<path d="M57.3252 13.3227C57.736 13.456 58.2547 12.9924 58.4836 12.2873C58.7125 11.5822 58.565 10.9025 58.1541 10.7692C57.7432 10.6359 57.2246 11.0994 56.9957 11.8046C56.7668 12.5097 56.9143 13.1894 57.3252 13.3227Z" fill="#F7A491"/>
<path d="M53.0507 7.29199C53.0507 7.29199 51.3349 11.9824 49.5801 12.5115C47.8251 13.0408 48.0088 15.329 48.0088 15.329C48.0088 15.329 47.6842 10.0383 49.2716 8.7104C50.8587 7.38248 53.0507 7.29199 53.0507 7.29199Z" fill="#E68B75"/>
<path d="M49.9838 15.0632C50.4725 14.8702 50.637 14.1277 50.3514 13.405C50.0657 12.6822 49.4379 12.2528 48.9493 12.4459C48.4606 12.6389 48.296 13.3813 48.5817 14.1041C48.8674 14.8269 49.4951 15.2563 49.9838 15.0632Z" fill="#F7A491"/>
<path d="M90.9022 108.259C90.3625 108.259 89.867 107.902 89.7146 107.357L73.0128 47.6713C72.8289 47.0152 73.2125 46.3343 73.8687 46.1509C74.5257 45.9673 75.2063 46.3503 75.3897 47.0066L92.0915 106.693C92.2751 107.349 91.8919 108.03 91.2356 108.213C91.1243 108.244 91.0123 108.259 90.9022 108.259Z" fill="#F47458"/>
<path d="M85.0693 48.3024H58.2604C57.5399 48.3024 56.9561 47.75 56.9561 47.0688C56.9561 46.3874 57.5399 45.835 58.2604 45.835H85.0693C85.7896 45.835 86.3735 46.3874 86.3735 47.0688C86.3735 47.75 85.7896 48.3024 85.0693 48.3024Z" fill="#F47458"/>
<path d="M68.1006 39.672C67.7299 39.317 65.8768 37.5149 63.8789 34.6975L67.8279 31.4849L71.2013 36.8278C71.2013 36.8278 82.4599 44.0946 83.4154 45.2628C84.3689 46.4284 84.6756 47.958 84.4091 48.3033C83.876 48.9944 83.6236 48.7306 83.4034 48.7306C83.1833 48.7306 82.6951 48.9109 82.3025 48.9109C81.9095 48.9109 81.6238 48.6793 81.0526 48.6793C80.4814 48.6793 80.0171 48.3033 80.0171 48.3033C80.0171 48.3033 80.9456 47.7076 80.3027 46.1154C79.9111 45.1458 68.4879 40.0433 68.1006 39.672Z" fill="#F7A491"/>
</g>
</svg>
