<svg width="813" height="635" viewBox="0 0 813 635" fill="none" xmlns="http://www.w3.org/2000/svg">
<path opacity="0.3" d="M347 0L812.5 142.5V178L347 70L1 145.5V133L13 124.5L17.5 98.5L1.5 96.5L347 0Z" fill="#A7D74A"/>
<path opacity="0.5" d="M347 70.5L812.5 178L812 217L347 141L1 195V145.5L347 70.5Z" fill="#A7D74A"/>
<path opacity="0.3" d="M347 141L812 217L812.5 257L347 211L1 242V195L347 141Z" fill="#A7D74A"/>
<path opacity="0.5" d="M347 211L812.5 257V294.5L347 282L0.5 292L1 242L347 211Z" fill="#A7D74A"/>
<path opacity="0.3" d="M347 282L812.5 294.5V333.5L347 353L0.5 340V292L347 282Z" fill="#A7D74A"/>
<path opacity="0.5" d="M347 353L812.5 333.5V372.5L347 424L0.5 389V340L347 353Z" fill="#A7D74A"/>
<path opacity="0.3" d="M347 424L812.5 372.61V410.5L346.5 494L0.5 437V389L347 424Z" fill="#A7D74A"/>
<g opacity="0.5">
<path d="M439 495.606L356 512V531L370.5 534L439 518.228V495.606Z" fill="#A7D74A"/>
<path d="M457 492.03V514.083L523 498.886V478.915L457 492.03Z" fill="#A7D74A"/>
<path d="M539 475.735V495.202L592 482.999V465.204L539 475.735Z" fill="#A7D74A"/>
<path d="M607 462.223V479.545L651 469.414V453.48L607 462.223Z" fill="#A7D74A"/>
<path d="M665 450.698V466.19L702 457.671V443.346L665 450.698Z" fill="#A7D74A"/>
<path d="M715 440.763V454.677L744 448V435L715 440.763Z" fill="#A7D74A"/>
<path d="M195 486.795L137 476.5V488L195 499.31V486.795Z" fill="#A7D74A"/>
<path d="M213 489.99V502.906L286 517.281V502.948L213 489.99Z" fill="#A7D74A"/>
<path d="M304 506.143V520.828L337 527.32V512L304 506.143Z" fill="#A7D74A"/>
</g>
<g opacity="0.3">
<path d="M702 457.684L665 466.214V505.815L702 495.598V457.684Z" fill="#A7D74A"/>
<path d="M715 492.008L744 484V448L715 454.686V492.008Z" fill="#A7D74A"/>
<path d="M651 509.681V469.442L607 479.587V521.831L651 509.681Z" fill="#A7D74A"/>
<path d="M592 525.973V483.046L539 495.265V540.609L592 525.973Z" fill="#A7D74A"/>
<path d="M523 545.027V498.954L457 514.172V563.252L523 545.027Z" fill="#A7D74A"/>
<path d="M439 568.223V518.322L371 534L356 531.051V583.506L371 587L439 568.223Z" fill="#A7D74A"/>
<path d="M337 527.316V579.081L304 571.395V520.829L337 527.316Z" fill="#A7D74A"/>
<path d="M286 517.291V567.203L213 550.201V502.94L286 517.291Z" fill="#A7D74A"/>
<path d="M195 499.402V546.009L137 532.5V488L195 499.402Z" fill="#A7D74A"/>
</g>
<g opacity="0.5">
<path d="M702 495.598L665 505.815V539.627L702 527.625V495.598Z" fill="#A7D74A"/>
<path d="M715 523.408L744 514V484L715 492.008V523.408Z" fill="#A7D74A"/>
<path d="M651 544.169V509.681L607 521.831V558.442L651 544.169Z" fill="#A7D74A"/>
<path d="M592 563.308V525.973L539 540.609V580.501L592 563.308Z" fill="#A7D74A"/>
<path d="M523 585.692V545.027L457 563.252V607.102L523 585.692Z" fill="#A7D74A"/>
<path d="M439 612.941V568.223L371 587L356 583.514V630.746L371 635L439 612.941Z" fill="#A7D74A"/>
<path d="M136.5 532.5L195 546.096V585.09L136.5 568.5V532.5Z" fill="#A7D74A"/>
<path d="M213 550.279V590.194L286 610.896V567.245L213 550.279Z" fill="#A7D74A"/>
<path d="M337 625.358L304 616V571.429L337 579.098V625.358Z" fill="#A7D74A"/>
</g>
</svg>
