<svg width="21" height="17" viewBox="0 0 21 17" fill="none" xmlns="http://www.w3.org/2000/svg">
<path d="M12.1289 1.37674C12.6557 0.464263 13.9728 0.464262 14.4996 1.37674L19.8335 10.6154C20.3604 11.5279 19.7018 12.6685 18.6482 12.6685H7.98026C6.92662 12.6685 6.26809 11.5279 6.79491 10.6154L12.1289 1.37674Z" fill="#2ADF91"/>
<path d="M3.95304 9.21952C4.47986 8.30704 5.79692 8.30704 6.32374 9.21952L9.15093 14.1164C9.67775 15.0288 9.01923 16.1694 7.96558 16.1694H2.31119C1.25755 16.1694 0.599024 15.0288 1.12585 14.1164L3.95304 9.21952Z" fill="white"/>
<path fill-rule="evenodd" clip-rule="evenodd" d="M3.36038 8.87737C4.15062 7.50865 6.1262 7.50865 6.91643 8.87737L9.74362 13.7742C10.5339 15.1429 9.54607 16.8538 7.9656 16.8538H2.31121C0.730748 16.8538 -0.257042 15.1429 0.53319 13.7742L3.36038 8.87737ZM5.73108 9.56173C5.46767 9.10549 4.80914 9.10549 4.54573 9.56173L1.71854 14.4586C1.45513 14.9148 1.78439 15.4851 2.31121 15.4851H7.9656C8.49242 15.4851 8.82169 14.9148 8.55828 14.4586L5.73108 9.56173Z" fill="#2ADF91"/>
</svg>
