<svg width="13" height="11" viewBox="0 0 13 11" fill="none" xmlns="http://www.w3.org/2000/svg">
<path d="M6.8479 8.64121C6.8479 7.14826 8.05818 5.93799 9.55113 5.93799C11.0441 5.93799 12.2544 7.14826 12.2544 8.64121V10.529C12.2544 10.5755 12.2166 10.6132 12.1701 10.6132H6.93214C6.88562 10.6132 6.8479 10.5755 6.8479 10.529V8.64121Z" fill="#2ADF91"/>
<path d="M0.870605 9.00867C0.870605 8.07001 1.63154 7.30908 2.57019 7.30908C3.50884 7.30908 4.26977 8.07001 4.26977 9.00867V10.1132H0.870605V9.00867Z" stroke="#2ADF91"/>
<rect x="4.76978" y="8.27588" width="4.82004" height="1.75972" rx="0.879859" transform="rotate(-30 4.76978 8.27588)" fill="#2ADF91"/>
<circle cx="9.551" cy="2.90696" r="2.25413" fill="#2ADF91"/>
<circle cx="2.57024" cy="4.34246" r="1.33416" stroke="#2ADF91"/>
</svg>
