<svg width="13" height="11" viewBox="0 0 13 11" fill="none" xmlns="http://www.w3.org/2000/svg">
<path d="M5.09424 2.14371C5.09424 1.90292 4.92262 1.69634 4.68592 1.65219L1.32474 1.02524C1.01717 0.967869 0.733063 1.20388 0.733063 1.51676V9.41C0.733063 9.72287 1.01717 9.95889 1.32474 9.90152L4.68592 9.27457C4.92262 9.23042 5.09424 9.02384 5.09424 8.78305V2.14371Z" stroke="#2ADF91"/>
<rect x="3.07397" y="4.13916" width="6.75058" height="2.64899" rx="1.3245" fill="#2ADF91" stroke="#F9F9F9"/>
<path d="M11.2546 4.65178C11.8096 5.0508 11.8096 5.87667 11.2546 6.27569L8.59066 8.19079C7.92911 8.66638 7.00695 8.1936 7.00695 7.37883L7.00695 3.54864C7.00695 2.73387 7.92911 2.26109 8.59066 2.73668L11.2546 4.65178Z" fill="#2ADF91"/>
</svg>
