<svg width="57" height="56" viewBox="0 0 57 56" fill="none" xmlns="http://www.w3.org/2000/svg">
<circle opacity="0.2" cx="28.5" cy="28" r="28" fill="#A7D74A"/>
<circle cx="28.5" cy="28" r="18" fill="#A7D74A"/>
<path d="M21.7734 26.4453H22.9297C23.513 26.4401 23.974 26.2891 24.3125 25.9922C24.6562 25.6953 24.8281 25.2656 24.8281 24.7031C24.8281 24.1615 24.6849 23.7422 24.3984 23.4453C24.1172 23.1432 23.6849 22.9922 23.1016 22.9922C22.5911 22.9922 22.1719 23.1406 21.8438 23.4375C21.5156 23.7292 21.3516 24.112 21.3516 24.5859H19.4531C19.4531 24.0026 19.6068 23.4714 19.9141 22.9922C20.2266 22.513 20.6589 22.1406 21.2109 21.875C21.7682 21.6042 22.3906 21.4688 23.0781 21.4688C24.2135 21.4688 25.1042 21.7552 25.75 22.3281C26.401 22.8958 26.7266 23.6875 26.7266 24.7031C26.7266 25.2135 26.5625 25.6953 26.2344 26.1484C25.9115 26.5964 25.4922 26.9349 24.9766 27.1641C25.6016 27.3776 26.0755 27.7135 26.3984 28.1719C26.7266 28.6302 26.8906 29.1771 26.8906 29.8125C26.8906 30.8333 26.5391 31.6458 25.8359 32.25C25.138 32.8542 24.2188 33.1562 23.0781 33.1562C21.9844 33.1562 21.0885 32.8646 20.3906 32.2812C19.6927 31.6979 19.3438 30.9219 19.3438 29.9531H21.2422C21.2422 30.4531 21.4089 30.8594 21.7422 31.1719C22.0807 31.4844 22.5339 31.6406 23.1016 31.6406C23.6901 31.6406 24.1536 31.4844 24.4922 31.1719C24.8307 30.8594 25 30.4062 25 29.8125C25 29.2135 24.8229 28.7526 24.4688 28.4297C24.1146 28.1068 23.5885 27.9453 22.8906 27.9453H21.7734V26.4453ZM28.9766 33V21.625H32.3359C33.3411 21.625 34.2318 21.849 35.0078 22.2969C35.7891 22.7448 36.3932 23.3802 36.8203 24.2031C37.2474 25.026 37.4609 25.9688 37.4609 27.0312V27.6016C37.4609 28.6797 37.2448 29.6276 36.8125 30.4453C36.3854 31.263 35.7734 31.8932 34.9766 32.3359C34.1849 32.7786 33.276 33 32.25 33H28.9766ZM30.9531 23.2188V31.4219H32.2422C33.2786 31.4219 34.0729 31.099 34.625 30.4531C35.1823 29.8021 35.4661 28.8698 35.4766 27.6562V27.0234C35.4766 25.7891 35.2083 24.8464 34.6719 24.1953C34.1354 23.5443 33.3568 23.2188 32.3359 23.2188H30.9531Z" fill="white"/>
</svg>
