<svg width="20" height="20" viewBox="0 0 20 20" fill="none" xmlns="http://www.w3.org/2000/svg">
<path fill-rule="evenodd" clip-rule="evenodd" d="M9.67443 3.61204C10.2267 3.61204 10.6744 4.05975 10.6744 4.61204V10.8718C10.6744 11.4241 10.2267 11.8718 9.67443 11.8718C9.12215 11.8718 8.67443 11.4241 8.67443 10.8718V4.61204C8.67443 4.05975 9.12215 3.61204 9.67443 3.61204ZM9.67443 15.3624C9.12215 15.3624 8.67443 14.9147 8.67443 14.3624V13.3968C8.67443 12.8445 9.12215 12.3968 9.67443 12.3968C10.2267 12.3968 10.6744 12.8445 10.6744 13.3968V14.3624C10.6744 14.9147 10.2267 15.3624 9.67443 15.3624ZM9.67443 17.1164C13.7311 17.1164 17.0198 13.8278 17.0198 9.77111C17.0198 5.7144 13.7311 2.42578 9.67443 2.42578C5.61772 2.42578 2.3291 5.7144 2.3291 9.77111C2.3291 13.8278 5.61772 17.1164 9.67443 17.1164ZM9.67443 19.1164C14.8357 19.1164 19.0198 14.9324 19.0198 9.77111C19.0198 4.60983 14.8357 0.425781 9.67443 0.425781C4.51315 0.425781 0.329102 4.60983 0.329102 9.77111C0.329102 14.9324 4.51315 19.1164 9.67443 19.1164Z" fill="#2ADF91"/>
</svg>
