<svg width="12" height="15" viewBox="0 0 12 15" fill="none" xmlns="http://www.w3.org/2000/svg">
<path d="M2.77905 6.36865C1.95062 6.36865 1.27905 7.04022 1.27905 7.86865L1.27905 12.3535C1.27905 13.182 1.95063 13.8535 2.77905 13.8535L9.93007 13.8535C10.7585 13.8535 11.4301 13.182 11.4301 12.3535L11.4301 7.86865C11.4301 7.04023 10.7585 6.36865 9.93007 6.36865L2.77905 6.36865Z" stroke="#61C495"/>
<path d="M7.39024 7.7674C7.98877 8.59996 9.22758 8.59996 9.82611 7.7674L11.1975 5.85978C11.9109 4.86745 11.2017 3.48421 9.97956 3.48421L7.23679 3.48421C6.01464 3.48421 5.30547 4.86745 6.01886 5.85978L7.39024 7.7674Z" fill="#61C495" stroke="#F4F4F4"/>
<rect x="1.41187" y="10.2803" width="9.7106" height="2.09899" fill="#61C495"/>
<rect x="9.50073" y="0.416992" width="4.87616" height="1.7851" rx="0.89255" transform="rotate(90 9.50073 0.416992)" fill="#61C495"/>
</svg>
