<svg width="17" height="14" viewBox="0 0 17 14" fill="none" xmlns="http://www.w3.org/2000/svg">
<path d="M9.33087 10.899C9.33087 8.9754 10.8903 7.41602 12.8138 7.41602C14.7374 7.41602 16.2968 8.9754 16.2968 10.899V13.3313C16.2968 13.3912 16.2482 13.4398 16.1883 13.4398H9.43941C9.37947 13.4398 9.33087 13.3912 9.33087 13.3313V10.899Z" fill="#2ADF91"/>
<path d="M1.48517 11.3721C1.48517 10.0831 2.53016 9.03809 3.81922 9.03809C5.10829 9.03809 6.15328 10.0831 6.15328 11.3721V12.9396H1.48517V11.3721Z" stroke="#2ADF91"/>
<rect x="6.65326" y="10.4277" width="6.21039" height="2.26731" rx="1" transform="rotate(-30 6.65326 10.4277)" fill="#2ADF91"/>
<circle cx="12.8137" cy="3.51029" r="2.90433" fill="#2ADF91"/>
<circle cx="3.81921" cy="5.36029" r="1.86322" stroke="#2ADF91"/>
</svg>
