<svg width="12" height="15" viewBox="0 0 12 15" fill="none" xmlns="http://www.w3.org/2000/svg">
<path d="M2.2539 6.46338C1.42548 6.46338 0.753906 7.13495 0.753906 7.96338L0.753906 12.5134C0.753906 13.3418 1.42548 14.0134 2.25391 14.0134L9.4905 14.0134C10.3189 14.0134 10.9905 13.3418 10.9905 12.5134L10.9905 7.96338C10.9905 7.13495 10.3189 6.46338 9.49049 6.46338L2.2539 6.46338Z" stroke="white"/>
<path d="M6.92517 7.88312C7.52371 8.71568 8.76251 8.71568 9.36105 7.88312L10.7579 5.94005C11.4713 4.94771 10.7621 3.56447 9.53999 3.56447L6.74624 3.56447C5.52408 3.56447 4.81491 4.94771 5.5283 5.94005L6.92517 7.88312Z" fill="white" stroke="#4E4E4E"/>
<rect x="0.891602" y="10.4087" width="9.78512" height="2.11509" fill="white"/>
<rect x="9.04248" y="0.469727" width="4.91357" height="1.7988" rx="0.8994" transform="rotate(90 9.04248 0.469727)" fill="white"/>
</svg>
