<svg width="15" height="19" viewBox="0 0 15 19" fill="none" xmlns="http://www.w3.org/2000/svg">
<path d="M2.22461 7.7373C1.39618 7.7373 0.724609 8.40888 0.724609 9.2373L0.724609 16.171C0.724609 16.9994 1.39618 17.671 2.22461 17.671L12.5939 17.671C13.4223 17.671 14.0939 16.9994 14.0939 16.171L14.0939 9.2373C14.0939 8.40888 13.4223 7.73731 12.5939 7.73731L2.22461 7.7373Z" stroke="white"/>
<path d="M9.09547 9.92609C9.694 10.7587 10.9328 10.7587 11.5313 9.92609L13.8614 6.68489C14.5748 5.69256 13.8657 4.30932 12.6435 4.30932L7.98331 4.30932C6.76115 4.30931 6.05198 5.69256 6.76537 6.68489L9.09547 9.92609Z" fill="white" stroke="#0BCC6F"/>
<rect x="1.04004" y="12.9224" width="12.5131" height="2.70477" fill="white"/>
<rect x="11.4634" y="0.212402" width="6.28344" height="2.30029" rx="1.15015" transform="rotate(90 11.4634 0.212402)" fill="white"/>
</svg>
