<svg width="18" height="18" viewBox="0 0 18 18" fill="none" xmlns="http://www.w3.org/2000/svg">
<path d="M15.7344 7.90879C16.401 8.29369 16.401 9.25594 15.7344 9.64084L5.97791 15.2737C5.31124 15.6586 4.47791 15.1775 4.47791 14.4077L4.47791 3.14192C4.47791 2.37212 5.31124 1.89099 5.97791 2.27589L15.7344 7.90879Z" fill="#2ADF91"/>
<path d="M9.62226 8.1866C9.97546 8.50877 9.97545 9.03972 9.62226 9.36189C8.94634 9.97846 7.74025 10.859 6.36492 10.859C4.98958 10.859 3.78349 9.97846 3.10757 9.36189C2.75438 9.03972 2.75438 8.50877 3.10757 8.1866C3.78349 7.57003 4.98958 6.68945 6.36492 6.68945C7.74025 6.68945 8.94635 7.57003 9.62226 8.1866Z" fill="#2ADF91" stroke="white"/>
</svg>
