<svg width="18" height="14" viewBox="0 0 18 14" fill="none" xmlns="http://www.w3.org/2000/svg">
<ellipse cx="11.9403" cy="11.2429" rx="4.30751" ry="2.39773" fill="#2ADF91"/>
<path d="M11.9403 11.7427C13.1986 11.7427 14.3624 11.4599 15.2294 10.9773C16.0796 10.5041 16.7478 9.77065 16.7478 8.845C16.7478 7.91935 16.0796 7.18594 15.2294 6.71267C14.3624 6.23009 13.1986 5.94727 11.9403 5.94727C10.6821 5.94727 9.51822 6.23009 8.65127 6.71267C7.80105 7.18594 7.13281 7.91935 7.13281 8.845C7.13281 9.77065 7.80105 10.5041 8.65127 10.9773C9.51822 11.4599 10.6821 11.7427 11.9403 11.7427Z" fill="#2ADF91" stroke="#FAFAFA"/>
<path d="M11.9403 9.18707C13.1986 9.18707 14.3624 8.90425 15.2294 8.42167C16.0796 7.9484 16.7478 7.21499 16.7478 6.28934C16.7478 5.36368 16.0796 4.63027 15.2294 4.157C14.3624 3.67442 13.1986 3.3916 11.9403 3.3916C10.6821 3.3916 9.51822 3.67442 8.65127 4.157C7.80105 4.63027 7.13281 5.36368 7.13281 6.28934C7.13281 7.21499 7.80105 7.9484 8.65127 8.42167C9.51822 8.90425 10.6821 9.18707 11.9403 9.18707Z" fill="#2ADF91" stroke="#FAFAFA"/>
<path d="M11.9403 6.78912C13.1986 6.78912 14.3624 6.5063 15.2294 6.02372C16.0796 5.55045 16.7478 4.81704 16.7478 3.89139C16.7478 2.96573 16.0796 2.23232 15.2294 1.75906C14.3624 1.27647 13.1986 0.993652 11.9403 0.993652C10.6821 0.993652 9.51822 1.27647 8.65127 1.75906C7.80105 2.23232 7.13281 2.96573 7.13281 3.89139C7.13281 4.81704 7.80105 5.55045 8.65127 6.02372C9.51822 6.5063 10.6821 6.78912 11.9403 6.78912Z" fill="#2ADF91" stroke="#FAFAFA"/>
<ellipse rx="3.86361" ry="2.26403" transform="matrix(0.432038 -0.901855 0.911906 0.4104 4.66936 6.44719)" fill="white" stroke="#2ADF91"/>
</svg>
