<svg width="22" height="19" viewBox="0 0 22 19" fill="none" xmlns="http://www.w3.org/2000/svg">
<path d="M12.0725 15.0653C12.0725 12.4325 14.2069 10.2981 16.8397 10.2981C19.4726 10.2981 21.607 12.4325 21.607 15.0653V18.3944C21.607 18.4765 21.5404 18.543 21.4584 18.543H12.2211C12.139 18.543 12.0725 18.4765 12.0725 18.3944V15.0653Z" fill="#2ADF91"/>
<path fill-rule="evenodd" clip-rule="evenodd" d="M7.03888 17.174V15.713C7.03888 14.3266 5.91498 13.2027 4.52857 13.2027C3.14216 13.2027 2.01826 14.3266 2.01826 15.713V17.174H7.03888ZM4.52857 11.834C2.38624 11.834 0.649536 13.5707 0.649536 15.713V18.4219C0.649536 18.4886 0.703656 18.5427 0.770415 18.5427H8.28673C8.35349 18.5427 8.40761 18.4886 8.40761 18.4219V15.713C8.40761 13.5707 6.6709 11.834 4.52857 11.834Z" fill="#2ADF91"/>
<path d="M9.09195 15.6058C8.71399 14.9511 8.93829 14.114 9.59294 13.736L14.5837 10.8546C15.2384 10.4767 16.0755 10.701 16.4534 11.3556L16.6364 11.6725C17.0143 12.3271 16.79 13.1642 16.1354 13.5422L11.1446 16.4236C10.49 16.8016 9.65285 16.5773 9.27489 15.9226L9.09195 15.6058Z" fill="#2ADF91"/>
<path d="M20.8147 4.95227C20.8147 7.14773 19.0349 8.9275 16.8395 8.9275C14.644 8.9275 12.8643 7.14773 12.8643 4.95227C12.8643 2.75682 14.644 0.977051 16.8395 0.977051C19.0349 0.977051 20.8147 2.75682 20.8147 4.95227Z" fill="#2ADF91"/>
<path fill-rule="evenodd" clip-rule="evenodd" d="M4.52854 9.35022C5.55903 9.35022 6.39441 8.51484 6.39441 7.48435C6.39441 6.45386 5.55903 5.61848 4.52854 5.61848C3.49805 5.61848 2.66267 6.45386 2.66267 7.48435C2.66267 8.51484 3.49805 9.35022 4.52854 9.35022ZM4.52854 10.7189C6.31496 10.7189 7.76313 9.27077 7.76313 7.48435C7.76313 5.69793 6.31496 4.24976 4.52854 4.24976C2.74212 4.24976 1.29395 5.69793 1.29395 7.48435C1.29395 9.27077 2.74212 10.7189 4.52854 10.7189Z" fill="#2ADF91"/>
</svg>
