<svg width="24" height="24" viewBox="0 0 24 24" fill="none" xmlns="http://www.w3.org/2000/svg">
<path d="M12 24C18.6274 24 24 18.6274 24 12C24 5.37258 18.6274 0 12 0C5.37258 0 0 5.37258 0 12C0 18.6274 5.37258 24 12 24Z" fill="#1778F2"/>
<mask id="mask0" mask-type="alpha" maskUnits="userSpaceOnUse" x="0" y="0" width="24" height="24">
<path d="M12 24C18.6274 24 24 18.6274 24 12C24 5.37258 18.6274 0 12 0C5.37258 0 0 5.37258 0 12C0 18.6274 5.37258 24 12 24Z" fill="#1778F2"/>
</mask>
<g mask="url(#mask0)">
<path d="M16.4832 16.186H13.5581V26.9021H9.12631V16.186H7.01855V12.4199H9.12631V9.98278C9.12631 8.24 9.95416 5.51099 13.5975 5.51099L16.8803 5.52472V9.18035H14.4984C14.1077 9.18035 13.5584 9.37555 13.5584 10.2069V12.4234H16.8703L16.4832 16.186Z" fill="white"/>
</g>
</svg>
