<svg width="15" height="19" viewBox="0 0 15 19" fill="none" xmlns="http://www.w3.org/2000/svg">
<path d="M2.22461 7.94922C1.39618 7.94922 0.724609 8.62079 0.724609 9.44922L0.724609 16.3829C0.724609 17.2113 1.39618 17.8829 2.22461 17.8829L12.5939 17.8829C13.4223 17.8829 14.0939 17.2113 14.0939 16.3829L14.0939 9.44922C14.0939 8.62079 13.4223 7.94922 12.5939 7.94922L2.22461 7.94922Z" stroke="#2ADF91"/>
<rect x="8.66333" y="11.4751" width="7.28344" height="3.30029" rx="1.65015" transform="rotate(-90 8.66333 11.4751)" fill="#2ADF91" stroke="#F1F1F1"/>
<path d="M9.50135 1.55327C9.90037 0.998228 10.7262 0.998227 11.1253 1.55327L13.4554 4.79447C13.931 5.45602 13.4582 6.37818 12.6434 6.37818L7.98321 6.37818C7.16844 6.37818 6.69566 5.45602 7.17125 4.79447L9.50135 1.55327Z" fill="#2ADF91"/>
<rect x="1.04004" y="13.1338" width="12.5131" height="2.70477" fill="#2ADF91"/>
</svg>
