<svg width="25" height="23" viewBox="0 0 25 23" fill="none" xmlns="http://www.w3.org/2000/svg">
<path d="M24.8603 14.9562C24.7014 13.5376 24.2915 12.1387 23.6652 10.8606H23.6965C23.5724 10.6085 23.4119 10.3329 23.2268 10.0455C23.2248 10.0422 23.223 10.0388 23.221 10.0355C22.6379 9.04773 21.3617 7.41506 20.5496 6.6543H20.4107H14.294H14.1551C13.3429 7.41506 12.0667 9.04777 11.4836 10.0355C11.4817 10.0388 11.4798 10.0422 11.4779 10.0455C11.2928 10.3329 11.1323 10.6085 11.0082 10.8606H11.0395C10.4131 12.1387 10.0033 13.5376 9.84436 14.9562C9.71606 16.1018 10.0852 17.2539 10.8573 18.1173C11.6369 18.9891 12.7543 19.4891 13.923 19.4891H14.8642H19.8406H20.7817C21.9504 19.4891 23.0679 18.9891 23.8475 18.1173C24.6195 17.2539 24.9886 16.1018 24.8603 14.9562Z" fill="#2ADF91"/>
<path d="M20.4638 4.17334H14.2082C13.6722 4.17334 13.2375 4.60795 13.2375 5.14403C13.2375 5.68012 13.6722 6.11473 14.2082 6.11473H20.4638C20.9999 6.11473 21.4345 5.68012 21.4345 5.14403C21.4345 4.60795 20.9999 4.17334 20.4638 4.17334Z" fill="#2ADF91"/>
<path d="M15.3725 3.63432L19.5929 3.62047C20.0663 3.16848 20.8017 1.86852 21.0087 1.25345C21.174 0.762447 20.7161 0.290948 20.217 0.430038C19.3619 0.668225 18.4364 0.574823 17.6365 0.150004C17.4487 0.0502592 17.2232 0.0502592 17.0354 0.150004C16.2355 0.574909 15.31 0.668268 14.4549 0.430038C13.9558 0.290991 13.4979 0.762447 13.6632 1.25345C13.8702 1.86852 14.2245 2.42738 14.6978 2.87938L15.3725 3.63432Z" fill="#2ADF91"/>
<path fill-rule="evenodd" clip-rule="evenodd" d="M15.8171 8.64156H16.5763V9.6296C16.8179 9.58304 17.0711 9.55966 17.336 9.55966C17.498 9.55966 17.6555 9.56611 17.8087 9.57931V8.63965H18.5678V9.70658C18.6023 9.71555 18.6364 9.72482 18.6704 9.73449C19.0768 9.85108 19.4335 10.0514 19.7405 10.3356L18.8026 11.3588C18.6207 11.1711 18.4162 11.0291 18.1887 10.9325C17.9613 10.8359 17.6771 10.7876 17.3361 10.7876C17.052 10.7876 16.7947 10.8359 16.5645 10.9325C16.3344 11.0291 16.1369 11.1641 15.972 11.3375C15.8072 11.5109 15.6807 11.717 15.5926 11.9556C15.5045 12.1943 15.4604 12.453 15.4604 12.7315C15.4604 13.0157 15.5046 13.2757 15.5926 13.5117C15.6807 13.7475 15.8072 13.9521 15.972 14.1256C16.1369 14.299 16.3344 14.434 16.5645 14.5305C16.7948 14.6271 17.052 14.6755 17.3361 14.6755C17.626 14.6755 17.876 14.6428 18.0865 14.5774C18.2968 14.5121 18.4644 14.4452 18.5895 14.3771V13.3966H17.5066V12.1689H19.8683V15.3234C19.4761 15.5281 19.0669 15.6759 18.6406 15.7668L18.5919 15.7771V16.6574H17.8327V15.8839C17.6684 15.8969 17.5029 15.9031 17.3361 15.9031C17.0708 15.9031 16.8172 15.8799 16.5752 15.8331V16.6803H15.816V15.5927C15.5082 15.4529 15.2361 15.2709 14.9999 15.0461C14.71 14.7706 14.4841 14.4365 14.3222 14.0444C14.1601 13.6523 14.0791 13.2146 14.0791 12.7314C14.0791 12.2484 14.1601 11.8106 14.3222 11.4184C14.4841 11.0262 14.71 10.6923 14.9999 10.4167C15.2364 10.1918 15.5089 10.0094 15.8173 9.86962V8.64156H15.8171Z" fill="white"/>
<path d="M1.7616 15.9138V17.0259C1.7616 17.7509 2.34919 18.3386 3.07422 18.3386H12.9463C13.6712 18.3386 14.2589 17.7509 14.2589 17.0259V15.9138C14.2589 15.1888 13.6713 14.6011 12.9463 14.6011H3.07422C2.34916 14.6011 1.7616 15.1889 1.7616 15.9138Z" fill="#FEFEFE" stroke="#2ADF91"/>
<path d="M0.585938 19.7644V20.8765C0.585938 21.6014 1.17353 22.1891 1.89856 22.1891H11.7707C12.4956 22.1891 13.0833 21.6015 13.0833 20.8765V19.7644C13.0833 19.0394 12.4956 18.4517 11.7707 18.4517H1.89856C1.17352 18.4517 0.585938 19.0394 0.585938 19.7644Z" fill="#FEFEFE" stroke="#2ADF91"/>
<path d="M11.6131 10.835H2.05602C1.34531 10.835 0.769287 11.411 0.769287 12.1217V13.1984C0.769287 13.9091 1.34531 14.4851 2.05598 14.4851H11.6131C12.3237 14.4851 12.8999 13.9091 12.8999 13.1984V12.1217C12.8999 11.411 12.3238 10.835 11.6131 10.835Z" fill="#FEFEFE" stroke="#2ADF91"/>
</svg>
