<svg width="24" height="20" viewBox="0 0 24 20" fill="none" xmlns="http://www.w3.org/2000/svg">
<path d="M22.2929 15.3246C22.2929 17.1371 19.6533 18.6064 16.3971 18.6064C13.141 18.6064 10.5013 17.1371 10.5013 15.3246C10.5013 13.5121 13.141 12.0427 16.3971 12.0427C19.6533 12.0427 22.2929 13.5121 22.2929 15.3246Z" fill="#2ADF91"/>
<path d="M22.2929 12.0426C22.2929 13.8551 19.6533 15.3244 16.3971 15.3244C13.141 15.3244 10.5013 13.8551 10.5013 12.0426C10.5013 10.2301 13.141 8.76074 16.3971 8.76074C19.6533 8.76074 22.2929 10.2301 22.2929 12.0426Z" fill="#2ADF91"/>
<path fill-rule="evenodd" clip-rule="evenodd" d="M21.2318 15.5589C19.9255 16.2861 18.2135 16.693 16.3972 16.693C14.5809 16.693 12.8689 16.2861 11.5625 15.5589C10.302 14.8573 9.13269 13.6701 9.13269 12.0424C9.13269 10.4147 10.302 9.22752 11.5625 8.52587C12.8689 7.79872 14.5809 7.39185 16.3972 7.39185C18.2135 7.39185 19.9255 7.79872 21.2318 8.52587C22.4923 9.22752 23.6617 10.4147 23.6617 12.0424C23.6617 13.6701 22.4923 14.8573 21.2318 15.5589ZM16.3972 15.3242C19.6533 15.3242 22.293 13.8549 22.293 12.0424C22.293 10.2299 19.6533 8.76057 16.3972 8.76057C13.141 8.76057 10.5014 10.2299 10.5014 12.0424C10.5014 13.8549 13.141 15.3242 16.3972 15.3242Z" fill="#FAFAFA"/>
<path d="M22.2929 8.54453C22.2929 10.357 19.6533 11.8264 16.3971 11.8264C13.141 11.8264 10.5013 10.357 10.5013 8.54453C10.5013 6.73202 13.141 5.2627 16.3971 5.2627C19.6533 5.2627 22.2929 6.73202 22.2929 8.54453Z" fill="#2ADF91"/>
<path fill-rule="evenodd" clip-rule="evenodd" d="M21.2318 12.0611C19.9255 12.7883 18.2135 13.1952 16.3972 13.1952C14.5809 13.1952 12.8689 12.7883 11.5625 12.0611C10.302 11.3595 9.13269 10.1723 9.13269 8.5446C9.13269 6.91693 10.302 5.72971 11.5625 5.02806C12.8689 4.30092 14.5809 3.89404 16.3972 3.89404C18.2135 3.89404 19.9255 4.30092 21.2318 5.02806C22.4923 5.72971 23.6617 6.91693 23.6617 8.5446C23.6617 10.1723 22.4923 11.3595 21.2318 12.0611ZM16.3972 11.8264C19.6533 11.8264 22.293 10.3571 22.293 8.5446C22.293 6.73209 19.6533 5.26277 16.3972 5.26277C13.141 5.26277 10.5014 6.73209 10.5014 8.5446C10.5014 10.3571 13.141 11.8264 16.3972 11.8264Z" fill="#FAFAFA"/>
<path d="M22.2929 5.2623C22.2929 7.07481 19.6533 8.54414 16.3971 8.54414C13.141 8.54414 10.5013 7.07481 10.5013 5.2623C10.5013 3.4498 13.141 1.98047 16.3971 1.98047C19.6533 1.98047 22.2929 3.4498 22.2929 5.2623Z" fill="#2ADF91"/>
<path fill-rule="evenodd" clip-rule="evenodd" d="M21.2318 8.77891C19.9255 9.50605 18.2135 9.91293 16.3972 9.91293C14.5809 9.91293 12.8689 9.50605 11.5625 8.77891C10.302 8.07726 9.13269 6.89004 9.13269 5.26237C9.13269 3.6347 10.302 2.44749 11.5625 1.74584C12.8689 1.01869 14.5809 0.611816 16.3972 0.611816C18.2135 0.611816 19.9255 1.01869 21.2318 1.74584C22.4923 2.44749 23.6617 3.6347 23.6617 5.26237C23.6617 6.89004 22.4923 8.07726 21.2318 8.77891ZM16.3972 8.54421C19.6533 8.54421 22.293 7.07488 22.293 5.26237C22.293 3.44987 19.6533 1.98054 16.3972 1.98054C13.141 1.98054 10.5014 3.44987 10.5014 5.26237C10.5014 7.07488 13.141 8.54421 16.3972 8.54421Z" fill="#FAFAFA"/>
<path d="M8.73071 8.09763C10.2914 8.8 10.5337 11.5046 9.27184 14.1386C8.01004 16.7725 5.72196 18.3384 4.16129 17.636C2.60062 16.9336 2.35835 14.229 3.62016 11.5951C4.88196 8.96111 7.17003 7.39525 8.73071 8.09763Z" fill="white"/>
<path fill-rule="evenodd" clip-rule="evenodd" d="M3.52028 15.2698C3.60737 16.2419 3.98938 16.808 4.45703 17.0184C4.92468 17.2289 5.61731 17.1465 6.43975 16.5837C7.24648 16.0316 8.0601 15.0842 8.64784 13.8573C9.23557 12.6305 9.45727 11.4167 9.37185 10.4631C9.28476 9.49092 8.90275 8.92489 8.4351 8.71443C7.96745 8.50396 7.27482 8.58635 6.45237 9.14919C5.64565 9.70128 4.83203 10.6487 4.24429 11.8755C3.65656 13.1024 3.43486 14.3162 3.52028 15.2698ZM2.14444 15.4092C2.03401 14.1764 2.32208 12.7209 2.99615 11.3138C3.67022 9.90672 4.63154 8.7542 5.67447 8.04046C6.70168 7.33748 7.93342 6.98813 9.02644 7.48004C10.1195 7.97195 10.6389 9.10942 10.7477 10.3236C10.8581 11.5565 10.5701 13.012 9.89598 14.4191C9.22191 15.8261 8.26059 16.9787 7.21766 17.6924C6.19044 18.3954 4.95871 18.7447 3.86569 18.2528C2.77266 17.7609 2.25321 16.6234 2.14444 15.4092Z" fill="#2ADF91"/>
</svg>
