<svg width="12" height="16" viewBox="0 0 12 16" fill="none" xmlns="http://www.w3.org/2000/svg">
<path d="M2.04102 6.85645C1.21259 6.85645 0.541016 7.52802 0.541016 8.35645L0.541015 13.2512C0.541015 14.0796 1.21259 14.7512 2.04102 14.7512L9.73063 14.7512C10.5591 14.7512 11.2306 14.0796 11.2306 13.2512L11.2306 8.35644C11.2306 7.52802 10.5591 6.85645 9.73063 6.85645L2.04102 6.85645Z" stroke="white"/>
<rect x="6.81274" y="9.7251" width="6.11168" height="2.87132" rx="1.43566" transform="rotate(-90 6.81274 9.7251)" fill="white" stroke="#4F4F4F"/>
<path d="M7.43648 1.77105C7.8355 1.216 8.66137 1.216 9.0604 1.77104L10.5922 3.90184C11.0678 4.5634 10.595 5.48556 9.78027 5.48556L6.71661 5.48556C5.90184 5.48556 5.42905 4.5634 5.90465 3.90184L7.43648 1.77105Z" fill="white"/>
<rect x="0.704346" y="10.9814" width="10.1796" height="2.20037" fill="white"/>
</svg>
