<svg width="13" height="17" viewBox="0 0 13 17" fill="none" xmlns="http://www.w3.org/2000/svg">
<path fill-rule="evenodd" clip-rule="evenodd" d="M1.74829 14.6999L1.74829 10.1499C1.74829 9.59762 2.19601 9.1499 2.74829 9.1499L9.98488 9.1499C10.5372 9.1499 10.9849 9.59762 10.9849 10.1499L10.9849 14.6999C10.9849 15.2522 10.5372 15.6999 9.98488 15.6999L2.74829 15.6999C2.19601 15.6999 1.74829 15.2522 1.74829 14.6999ZM0.748291 10.1499C0.748291 9.04533 1.64372 8.1499 2.74829 8.1499L9.98488 8.1499C11.0894 8.1499 11.9849 9.04533 11.9849 10.1499L11.9849 14.6999C11.9849 15.8045 11.0895 16.6999 9.98488 16.6999L2.74829 16.6999C1.64372 16.6999 0.748291 15.8045 0.748291 14.6999L0.748291 10.1499Z" fill="#2ADF91"/>
<path d="M1.38599 12.5957H11.1711V14.7108H1.38599V12.5957Z" fill="#2ADF91"/>
<path d="M6.28848 12.0077C5.60492 12.0139 5.11684 11.3476 5.32877 10.6977L6.07068 8.42258C6.32327 7.64795 7.34657 7.48435 7.82809 8.14161L9.47915 10.3953C9.96067 11.0525 9.49619 11.9789 8.68145 11.9862L6.28848 12.0077Z" fill="#2ADF91"/>
<path fill-rule="evenodd" clip-rule="evenodd" d="M4.37809 10.3875L5.12 8.11238C5.62519 6.56314 7.67179 6.23594 8.63482 7.55046L10.2859 9.80412C11.2489 11.1186 10.32 12.9714 8.69049 12.986L6.29751 13.0075C4.93039 13.0198 3.95423 11.6874 4.37809 10.3875ZM5.32882 10.6976C5.11689 11.3475 5.60497 12.0137 6.28853 12.0076L8.6815 11.9861C9.49624 11.9787 9.96072 11.0524 9.4792 10.3951L7.82814 8.14144C7.34662 7.48418 6.32332 7.64778 6.07073 8.42241L5.32882 10.6976Z" fill="white"/>
<path fill-rule="evenodd" clip-rule="evenodd" d="M8.01643 8.4954C9.06221 7.72925 9.2889 6.26039 8.52275 5.21461C7.75659 4.16883 6.28773 3.94214 5.24195 4.70829C4.19617 5.47445 3.96949 6.94331 4.73564 7.98909L3.12228 9.17106C1.70334 7.23424 2.12317 4.51387 4.05998 3.09493C5.9968 1.67599 8.71717 2.09582 10.1361 4.03263C11.555 5.96945 11.1352 8.68983 9.19841 10.1088L8.01643 8.4954Z" fill="#2ADF91"/>
</svg>
