<svg width="143" height="32" viewBox="0 0 143 32" fill="none" xmlns="http://www.w3.org/2000/svg">
<path fill-rule="evenodd" clip-rule="evenodd" d="M7.09493 0.989605H9.94128V4.69394C10.8469 4.5194 11.7963 4.43175 12.7895 4.43175C13.3967 4.43175 13.9872 4.45593 14.5618 4.50542V0.982422H17.4078V4.98259C17.537 5.01621 17.6651 5.05096 17.7924 5.08723C19.316 5.52435 20.6535 6.27541 21.8043 7.34081L18.2881 11.177C17.6061 10.4736 16.8392 9.94085 15.9865 9.57891C15.1338 9.2166 14.0684 9.03564 12.7899 9.03564C11.7245 9.03564 10.76 9.2166 9.89708 9.57891C9.03418 9.94085 8.29369 10.4471 7.67561 11.0973C7.05752 11.7475 6.58338 12.5201 6.25319 13.4147C5.92261 14.3097 5.75751 15.2796 5.75751 16.3238C5.75751 17.3892 5.92299 18.3639 6.25319 19.2487C6.58338 20.1328 7.05752 20.9001 7.67561 21.5503C8.29369 22.2005 9.03418 22.7068 9.89708 23.0683C10.7604 23.4306 11.7245 23.612 12.7899 23.612C13.8768 23.612 14.8142 23.4896 15.603 23.2444C16.3915 22.9995 17.0201 22.7487 17.489 22.4933V18.8173H13.4292V14.2142H22.2837V26.0412C20.8133 26.8085 19.279 27.3628 17.6805 27.7036L17.4981 27.7421V31.0426H14.6517V28.1426C14.0355 28.1913 13.4152 28.2147 12.7899 28.2147C11.7952 28.2147 10.8442 28.1278 9.93713 27.9521V31.1287H7.09078V27.0507C5.93659 26.5267 4.91653 25.8444 4.03096 25.0015C2.94403 23.9686 2.09699 22.7162 1.48987 21.2458C0.882361 19.7758 0.578613 18.135 0.578613 16.3234C0.578613 14.5122 0.882361 12.8711 1.48987 11.4007C2.09699 9.93027 2.94403 8.67824 4.03096 7.64495C4.91766 6.8017 5.93923 6.11787 7.09531 5.59386V0.989605H7.09493Z" fill="url(#paint0_linear)"/>
<path d="M35.1458 28.0113C33.3017 28.0113 31.6568 27.6119 30.1867 26.8393C28.7163 26.0675 27.5452 24.9711 26.7231 23.6001C25.8757 22.2298 25.4521 20.6596 25.4521 18.9403C25.4521 17.2209 25.8757 15.6508 26.7231 14.2805C27.5455 12.9098 28.7167 11.8134 30.1867 11.0408C31.6568 10.2682 33.3017 9.86963 35.1458 9.86963C36.9894 9.86963 38.6593 10.2682 40.1294 11.0408C41.5998 11.813 42.746 12.9098 43.593 14.2805C44.4155 15.6508 44.839 17.2209 44.839 18.9403C44.839 20.6596 44.4151 22.2298 43.593 23.6001C42.746 24.9711 41.5998 26.0675 40.1294 26.8393C38.659 27.6123 36.9894 28.0113 35.1458 28.0113ZM35.1458 23.9242C36.0177 23.9242 36.8153 23.7251 37.538 23.3016C38.2604 22.8781 38.8089 22.3046 39.2324 21.532C39.656 20.7843 39.8554 19.9123 39.8554 18.9406C39.8554 17.9689 39.656 17.0966 39.2324 16.324C38.8089 15.5763 38.2604 15.0032 37.538 14.5797C36.8153 14.1562 36.0177 13.9567 35.1458 13.9567C34.2734 13.9567 33.4763 14.1562 32.7535 14.5797C32.0308 15.0032 31.4826 15.5763 31.0591 16.324C30.6352 17.0966 30.4361 17.9689 30.4361 18.9406C30.4361 19.9123 30.6352 20.7847 31.0591 21.532C31.4826 22.3046 32.0308 22.8777 32.7535 23.3016C33.4759 23.7251 34.2734 23.9242 35.1458 23.9242Z" fill="url(#paint1_linear)"/>
<path d="M56.2271 28.0113C54.383 28.0113 52.7385 27.6119 51.2681 26.8393C49.7977 26.0675 48.6265 24.9711 47.8044 23.6001C46.957 22.2298 46.5334 20.6596 46.5334 18.9403C46.5334 17.2209 46.957 15.6508 47.8044 14.2805C48.6268 12.9098 49.798 11.8134 51.2681 11.0408C52.7385 10.2682 54.383 9.86963 56.2271 9.86963C58.0707 9.86963 59.7406 10.2682 61.2107 11.0408C62.6811 11.813 63.8273 12.9098 64.6743 14.2805C65.4968 15.6508 65.9203 17.2209 65.9203 18.9403C65.9203 20.6596 65.4964 22.2298 64.6743 23.6001C63.8273 24.9711 62.6811 26.0675 61.2107 26.8393C59.7406 27.6123 58.0711 28.0113 56.2271 28.0113ZM56.2271 23.9242C57.0994 23.9242 57.8966 23.7251 58.6193 23.3016C59.3417 22.8781 59.8902 22.3046 60.3138 21.532C60.7373 20.7843 60.9367 19.9123 60.9367 18.9406C60.9367 17.9689 60.7373 17.0966 60.3138 16.324C59.8902 15.5763 59.3417 15.0032 58.6193 14.5797C57.8966 14.1562 57.0994 13.9567 56.2271 13.9567C55.3547 13.9567 54.5576 14.1562 53.8348 14.5797C53.1121 15.0032 52.5639 15.5763 52.1404 16.324C51.7165 17.0966 51.5174 17.9689 51.5174 18.9406C51.5174 19.9123 51.7165 20.7847 52.1404 21.532C52.5639 22.3046 53.1121 22.8777 53.8348 23.3016C54.5576 23.7251 55.3551 23.9242 56.2271 23.9242Z" fill="url(#paint2_linear)"/>
<path d="M68.5122 10.219H76.7607C78.6792 10.219 80.3733 10.5681 81.8441 11.2904C83.3141 12.0132 84.4607 13.0098 85.2828 14.3306C86.1057 15.6514 86.5039 17.1713 86.5039 18.9405C86.5039 20.7098 86.1053 22.2301 85.2828 23.5508C84.4607 24.8716 83.3141 25.8679 81.8441 26.591C80.3733 27.3134 78.6792 27.6625 76.7607 27.6625H68.5122V10.219ZM76.5616 23.7254C78.0566 23.7254 79.2527 23.3019 80.1742 22.4548C81.0715 21.6078 81.5199 20.4359 81.5199 18.9409C81.5199 17.446 81.0711 16.2744 80.1742 15.4274C79.2527 14.58 78.0566 14.1564 76.5616 14.1564H73.4463V23.7254H76.5616Z" fill="url(#paint3_linear)"/>
<path d="M115.858 10.219L110.202 27.6625H104.919L101.579 17.0466L98.0911 27.6625H92.8079L87.1511 10.219H92.2344L95.7484 21.3581L99.4365 10.219H103.972L107.486 21.4578L111.148 10.219H115.858Z" fill="url(#paint4_linear)"/>
<path d="M117.628 10.219H122.562V27.6625H117.628V10.219Z" fill="url(#paint5_linear)"/>
<path d="M142.671 10.219V27.6625H138.61L130.91 18.3674V27.6625H126.075V10.219H130.137L137.837 19.514V10.219H142.671Z" fill="url(#paint6_linear)"/>
<defs>
<linearGradient id="paint0_linear" x1="11.4306" y1="31.1284" x2="11.4306" y2="0.982724" gradientUnits="userSpaceOnUse">
<stop stop-color="#035A2F"/>
<stop offset="1" stop-color="#2ADF91"/>
</linearGradient>
<linearGradient id="paint1_linear" x1="35.1456" y1="28.0114" x2="35.1456" y2="9.87008" gradientUnits="userSpaceOnUse">
<stop stop-color="#808080"/>
<stop offset="1" stop-color="#D2D2D2"/>
</linearGradient>
<linearGradient id="paint2_linear" x1="56.2272" y1="28.0114" x2="56.2272" y2="9.87008" gradientUnits="userSpaceOnUse">
<stop stop-color="#808080"/>
<stop offset="1" stop-color="#D2D2D2"/>
</linearGradient>
<linearGradient id="paint3_linear" x1="77.508" y1="27.6626" x2="77.508" y2="10.2192" gradientUnits="userSpaceOnUse">
<stop stop-color="#808080"/>
<stop offset="1" stop-color="#D2D2D2"/>
</linearGradient>
<linearGradient id="paint4_linear" x1="101.505" y1="27.6626" x2="101.505" y2="10.2192" gradientUnits="userSpaceOnUse">
<stop stop-color="#808080"/>
<stop offset="1" stop-color="#D2D2D2"/>
</linearGradient>
<linearGradient id="paint5_linear" x1="120.095" y1="27.6626" x2="120.095" y2="10.2192" gradientUnits="userSpaceOnUse">
<stop stop-color="#808080"/>
<stop offset="1" stop-color="#D2D2D2"/>
</linearGradient>
<linearGradient id="paint6_linear" x1="134.373" y1="27.6626" x2="134.373" y2="10.2192" gradientUnits="userSpaceOnUse">
<stop stop-color="#808080"/>
<stop offset="1" stop-color="#D2D2D2"/>
</linearGradient>
</defs>
</svg>
