<svg width="146" height="50" viewBox="0 0 146 50" fill="none" xmlns="http://www.w3.org/2000/svg">
<path d="M27.3718 21.0426L27.3718 17.4521L17.5646 17.4521L17.5646 21.0426L27.3718 21.0426Z" fill="white"/>
<path d="M21.9888 4.1543H17.5663V21.0427H21.9888V4.1543Z" fill="white"/>
<path d="M40.5834 21.0421L40.5834 17.4517L30.065 17.4517L30.065 21.0421L40.5834 21.0421Z" fill="white"/>
<path d="M39.8719 13.9942L39.8719 10.4038L30.0646 10.4038L30.0646 13.9942L39.8719 13.9942Z" fill="white"/>
<path d="M40.5834 7.74425L40.5834 4.15381L30.065 4.15381L30.065 7.74425L40.5834 7.74425Z" fill="white"/>
<path d="M34.488 4.15381H30.0654V21.0423H34.488V4.15381Z" fill="white"/>
<path d="M72.6165 21.0426L72.6165 17.4521L62.098 17.4521L62.098 21.0426L72.6165 21.0426Z" fill="white"/>
<path d="M71.9053 13.9947L71.9053 10.4043L62.098 10.4043L62.098 13.9947L71.9053 13.9947Z" fill="white"/>
<path d="M72.6165 7.74474L72.6165 4.1543L62.098 4.1543L62.098 7.74474L72.6165 7.74474Z" fill="white"/>
<path d="M65.7984 4.1543H61.3759V21.0427H65.7984V4.1543Z" fill="white"/>
<path fill-rule="evenodd" clip-rule="evenodd" d="M86.6094 14.7026L90.3896 21.0426C88.5997 21.0426 87.061 21.0426 85.2709 21.0426L81.4906 14.7026C83.2805 14.7026 84.8192 14.7026 86.6094 14.7026Z" fill="white"/>
<path d="M80.6296 4.1543H76.207V21.0427H80.6296V4.1543Z" fill="white"/>
<path d="M78.4178 4.1543H83.8281C85.398 4.1543 86.8292 4.79959 87.8699 5.83876L87.8737 5.83495C88.9104 6.87158 89.5544 8.30386 89.5544 9.8806C89.5544 11.4576 88.9104 12.8899 87.8737 13.9265C86.8371 14.9631 85.4048 15.6072 83.8281 15.6072H78.4178V11.8378H83.8281C84.3641 11.8378 84.8531 11.6165 85.2084 11.2614C85.5637 10.9061 85.7848 10.4172 85.7848 9.88111C85.7848 9.3448 85.5635 8.85588 85.2084 8.50054V8.49293C84.8576 8.14215 84.3687 7.92393 83.8281 7.92393H78.4178V4.15455V4.1543Z" fill="white"/>
<path fill-rule="evenodd" clip-rule="evenodd" d="M42.3784 4.09131C44.1186 4.09131 45.8586 4.09131 47.5988 4.09131L51.2691 12.1431L52.9394 18.0121L51.7093 20.9798H50.768H49.9701L42.3784 4.09131Z" fill="white"/>
<path fill-rule="evenodd" clip-rule="evenodd" d="M59.5811 4.09131C57.8409 4.09131 56.1009 4.09131 54.3607 4.09131L49.3322 15.1227L51.1915 20.9798H51.9894L59.5811 4.09131Z" fill="white"/>
<path d="M4.42253 4.1543H0V21.0427H4.42253V4.1543Z" fill="white"/>
<path fill-rule="evenodd" clip-rule="evenodd" d="M9.54174 12.1992L14.914 21.0425C13.1241 21.0425 11.5853 21.0425 9.7952 21.0425L4.42297 12.1992C6.21287 12.1992 7.75159 12.1992 9.54174 12.1992Z" fill="white"/>
<path d="M13.5801 4.1543C13.3023 7.17066 11.9628 9.87959 9.93871 11.9037C8.15439 13.688 5.83781 14.9406 3.24725 15.4026V11.0255C4.65545 10.6359 5.9141 9.88719 6.91804 8.883C8.16732 7.63372 9.02222 5.98982 9.27998 4.1543H13.5798H13.5801Z" fill="white"/>
<path d="M4.42253 29.5176H0V46.406H4.42253V29.5176Z" fill="white"/>
<path d="M1.48187 29.5181H7.2467C8.91925 29.5181 10.4445 30.2057 11.5534 31.3128L11.5575 31.3087C12.662 32.4135 13.3481 33.9396 13.3481 35.6195C13.3481 37.2996 12.6618 38.8259 11.5575 39.9305C10.4526 41.0353 8.9266 41.7211 7.2467 41.7211H1.48187V37.7049H7.2467C7.81799 37.7049 8.33884 37.4692 8.7175 37.0905C9.0959 36.7121 9.33162 36.1908 9.33162 35.6197C9.33162 35.0482 9.0959 34.5273 8.7175 34.1487V34.1406C8.34365 33.767 7.8228 33.5346 7.2467 33.5346H1.48187V29.5181Z" fill="white"/>
<path d="M24.9473 46.4059L24.9473 42.8154L15.14 42.8154L15.14 46.4059L24.9473 46.4059Z" fill="white"/>
<path d="M19.5638 29.5176H15.1413V46.406H19.5638V29.5176Z" fill="white"/>
<path fill-rule="evenodd" clip-rule="evenodd" d="M26.7426 46.406C28.4828 46.406 29.9716 46.406 31.7118 46.406L35.3821 38.3543L37.0523 32.4853L36.0735 29.5176H35.1322H34.3343L26.7426 46.406Z" fill="white"/>
<path fill-rule="evenodd" clip-rule="evenodd" d="M43.9449 46.406C42.2047 46.406 40.7159 46.406 38.9757 46.406L33.9471 35.3747L35.5553 29.5176H36.3532L43.9449 46.406Z" fill="white"/>
<path d="M40.2472 44.611L40.2472 41.0205L30.4399 41.0205L30.4399 44.611L40.2472 44.611Z" fill="white"/>
<path d="M60.3623 46.4059L60.3623 42.8154L50.555 42.8154L50.555 46.4059L60.3623 46.4059Z" fill="white"/>
<path d="M57.1996 33.108L57.1996 29.5176L47.0315 29.5176L47.0315 33.108L57.1996 33.108Z" fill="white"/>
<path fill-rule="evenodd" clip-rule="evenodd" d="M45.7402 46.4061C47.4804 46.4061 49.2204 46.4061 50.9606 46.4061L58.4978 32.4854H53.2777L45.7402 46.4061Z" fill="white"/>
<path fill-rule="evenodd" clip-rule="evenodd" d="M47.9257 43.4388C49.6659 43.4388 51.4059 43.4388 53.1461 43.4388L60.6833 29.5181H55.4632L47.9257 43.4388Z" fill="white"/>
<path fill-rule="evenodd" clip-rule="evenodd" d="M62.1582 46.406C63.8984 46.406 65.3872 46.406 67.1274 46.406L70.7977 38.3543L72.468 32.4853L71.4891 29.5176H70.5478H69.7499L62.1582 46.406Z" fill="white"/>
<path fill-rule="evenodd" clip-rule="evenodd" d="M79.3602 46.406C77.62 46.406 76.1312 46.406 74.391 46.406L69.3624 35.3747L70.9706 29.5176H71.7685L79.3602 46.406Z" fill="white"/>
<path d="M75.663 44.6109L75.663 41.0205L65.8557 41.0205L65.8557 44.6109L75.663 44.6109Z" fill="white"/>
<path d="M105.38 39.1081C105.934 39.3417 105.74 39.8177 105.611 40.1748C104.61 42.9431 100.966 50.5746 91.341 49.9655C91.3174 49.964 91.2901 49.9508 91.2601 49.9283C90.3056 49.8837 89.5458 49.0957 89.5458 48.1303C89.5458 47.1365 90.3515 46.3305 91.3458 46.3305C91.4649 46.3305 91.5815 46.3424 91.6943 46.3645C98.7589 46.9999 102.854 41.9827 104.28 39.8083C104.466 39.525 104.742 38.9007 105.38 39.1083V39.1081ZM109.774 13.8777C109.411 13.5598 109.017 13.3216 108.608 13.1576C108.127 12.9655 107.624 12.874 107.125 12.874C106.834 12.874 106.546 12.9039 106.268 12.9612C105.986 13.0195 105.708 13.1069 105.443 13.221C105.172 13.3375 104.916 13.479 104.68 13.6427C104.448 13.8036 104.232 13.9887 104.038 14.1952C103.312 14.9665 102.969 15.9725 102.969 16.9878C102.969 18.0515 103.344 19.1244 104.047 19.9509L104.055 19.9611C104.344 20.3408 104.724 20.782 105.223 21.2798C105.724 21.7804 106.346 22.3397 107.117 22.9529L107.363 23.149L107.117 23.3452C106.346 23.9583 105.724 24.5174 105.223 25.018C104.724 25.5158 104.344 25.9571 104.055 26.3365L104.047 26.3466C103.345 27.1731 102.969 28.246 102.969 29.31C102.969 30.3253 103.312 31.3313 104.038 32.1026C104.232 32.3089 104.448 32.4944 104.68 32.6551C104.918 32.8196 105.174 32.9613 105.443 33.0769C105.708 33.1912 105.986 33.2783 106.267 33.3364C106.546 33.3937 106.834 33.4236 107.125 33.4236C107.624 33.4236 108.128 33.3323 108.608 33.14C109.016 32.9765 109.41 32.7387 109.772 32.4217C112.865 29.3328 115.955 26.2402 119.045 23.1488L109.774 13.8777ZM107.569 37.5582C107.421 37.5663 107.273 37.5703 107.125 37.5703C106.559 37.5703 105.992 37.5105 105.437 37.396C104.876 37.2799 104.329 37.1073 103.807 36.883C103.288 36.6602 102.787 36.3814 102.315 36.0514C101.85 35.7262 101.416 35.3529 101.025 34.9375C100.334 34.2032 99.7712 33.3356 99.3882 32.3565C99.0288 31.4375 98.8273 30.4206 98.8273 29.3242C98.8273 28.209 99.0496 27.1437 99.4526 26.1712C99.871 25.1607 100.484 24.2518 101.243 23.4922C101.341 23.3959 101.437 23.3034 101.533 23.2167L101.608 23.1493L101.534 23.0824C101.43 22.9883 101.333 22.8958 101.243 22.8061C100.484 22.0465 99.8708 21.1374 99.4526 20.1281C99.0498 19.1546 98.8273 18.0891 98.8273 16.9739C98.8273 15.8774 99.0288 14.8606 99.3882 13.9415C99.7712 12.9624 100.334 12.0951 101.025 11.3614C101.416 10.9457 101.849 10.5729 102.314 10.2474C102.785 9.91844 103.286 9.63964 103.807 9.41584C104.329 9.19128 104.876 9.01842 105.437 8.90234C105.993 8.78727 106.559 8.72771 107.125 8.72771C107.285 8.72771 107.445 8.73253 107.605 8.74191C107.597 8.59389 107.593 8.44536 107.593 8.2976C107.593 7.73138 107.653 7.16516 107.767 6.6101C107.883 6.04895 108.056 5.50174 108.28 4.97962C108.503 4.4608 108.782 3.95998 109.112 3.48779C109.437 3.02245 109.81 2.58853 110.226 2.19771C110.96 1.50704 111.828 0.943865 112.807 0.560895C113.726 0.201497 114.743 0 115.839 0C116.954 0 118.02 0.222281 118.992 0.625274C120.003 1.04373 120.912 1.65658 121.671 2.41618C121.755 2.49982 121.847 2.59715 121.947 2.7074L122.014 2.78116L122.08 2.70766C122.175 2.60475 122.267 2.50768 122.357 2.4172C123.117 1.65658 124.026 1.04347 125.035 0.625274C126.009 0.222534 127.074 0 128.19 0C129.286 0 130.303 0.201497 131.222 0.560895C132.201 0.943865 133.068 1.50704 133.802 2.19771C134.218 2.58853 134.591 3.02219 134.916 3.48703C135.245 3.95795 135.524 4.45903 135.748 4.97962C135.972 5.50123 136.145 6.0487 136.261 6.60985C136.376 7.16542 136.436 7.73138 136.436 8.29735C136.436 8.45728 136.431 8.61746 136.421 8.7779C136.57 8.76979 136.718 8.76573 136.866 8.76573C137.432 8.76573 137.998 8.82555 138.553 8.94011C139.114 9.05619 139.662 9.22879 140.184 9.4531C140.703 9.67589 141.203 9.95469 141.676 10.2847C142.141 10.6101 142.575 10.9832 142.966 11.3986C143.656 12.1329 144.22 13.0005 144.602 13.9795C144.962 14.8986 145.163 15.9154 145.163 17.0119C145.163 18.1273 144.941 19.1926 144.538 20.1649C144.12 21.1736 143.508 22.0822 142.747 22.8426C142.65 22.9402 142.553 23.0329 142.457 23.1199L142.382 23.187L142.456 23.2529C142.559 23.3472 142.656 23.4397 142.746 23.53C143.507 24.2896 144.12 25.1987 144.538 26.208C144.941 27.1815 145.164 28.247 145.164 29.3622C145.164 30.4587 144.962 31.4755 144.603 32.3945C144.22 33.3736 143.657 34.241 142.966 34.9747C142.575 35.3904 142.141 35.7632 141.677 36.0886C141.206 36.4176 140.705 36.6964 140.184 36.9202C139.662 37.1448 139.115 37.3177 138.554 37.4337C137.998 37.5488 137.432 37.6084 136.866 37.6084C136.706 37.6084 136.546 37.6038 136.386 37.5942C136.394 37.7424 136.398 37.8907 136.398 38.0385C136.398 38.6047 136.338 39.1709 136.224 39.726C136.107 40.2871 135.935 40.8343 135.711 41.3565C135.488 41.8753 135.209 42.3761 134.879 42.8483C134.554 43.3139 134.18 43.7475 133.765 44.1384C133.031 44.829 132.163 45.3922 131.184 45.7752C130.265 46.1346 129.248 46.3361 128.152 46.3361C127.036 46.3361 125.971 46.1138 124.999 45.7108C123.99 45.2931 123.081 44.6803 122.321 43.9199C122.224 43.8231 122.131 43.7265 122.044 43.6307L121.977 43.5552L121.91 43.6297C121.816 43.7331 121.723 43.8302 121.634 43.9199C120.874 44.6795 119.965 45.2926 118.956 45.7108C117.982 46.1135 116.917 46.3361 115.801 46.3361C114.705 46.3361 113.688 46.1346 112.769 45.7752C111.79 45.3922 110.923 44.829 110.189 44.1384C109.773 43.7475 109.4 43.3139 109.075 42.849C108.746 42.3784 108.467 41.877 108.243 41.3565C108.019 40.8348 107.846 40.2874 107.73 39.7262C107.615 39.1707 107.555 38.6049 107.555 38.0387C107.555 37.8788 107.56 37.7186 107.569 37.5582H107.569ZM112.707 35.3873C112.388 35.7508 112.149 36.1462 111.985 36.5555C111.793 37.0358 111.702 37.5392 111.702 38.0385C111.702 38.3294 111.731 38.6169 111.789 38.8957C111.847 39.1765 111.934 39.4535 112.049 39.7201C112.164 39.9891 112.306 40.2453 112.47 40.482C112.631 40.715 112.816 40.9314 113.023 41.1256C113.794 41.8512 114.8 42.1936 115.815 42.1936C116.879 42.1936 117.952 41.8188 118.778 41.1164L118.789 41.1086C119.168 40.8194 119.61 40.4389 120.107 39.9404C120.608 39.4393 121.167 38.8171 121.78 38.0463L121.977 37.7995L122.173 38.0463C122.786 38.8171 123.345 39.4393 123.846 39.9404C124.343 40.4389 124.785 40.8194 125.164 41.1086L125.174 41.1164C126.001 41.8185 127.074 42.1936 128.138 42.1936C129.153 42.1936 130.159 41.8514 130.93 41.1256C131.137 40.9314 131.322 40.7147 131.483 40.4828C131.647 40.2451 131.789 39.9891 131.904 39.7201C132.018 39.455 132.106 39.1778 132.164 38.8957C132.221 38.6174 132.251 38.3294 132.251 38.0385C132.251 37.5389 132.16 37.0356 131.968 36.5553C131.804 36.1472 131.567 35.7531 131.249 35.3909L121.976 26.118L112.707 35.3871V35.3873ZM134.217 32.4582C134.58 32.776 134.974 33.0142 135.383 33.1782C135.864 33.3703 136.367 33.4618 136.866 33.4618C137.157 33.4618 137.445 33.4319 137.723 33.3744C138.004 33.3164 138.281 33.2289 138.548 33.1144C138.817 32.999 139.073 32.8576 139.31 32.6931C139.543 32.5322 139.759 32.3472 139.953 32.1406C140.679 31.3693 141.021 30.3634 141.021 29.348C141.021 28.2843 140.647 27.2114 139.944 26.3849L139.936 26.3747C139.647 25.9953 139.267 25.5541 138.768 25.056C138.267 24.5555 137.645 23.9961 136.874 23.383L136.627 23.1868L136.874 22.9906C137.645 22.3775 138.267 21.8184 138.768 21.3178C139.267 20.82 139.647 20.379 139.936 19.9993L139.944 19.9892C140.646 19.1627 141.021 18.0898 141.021 17.0258C141.021 16.0105 140.679 15.0045 139.953 14.2333C139.759 14.0267 139.543 13.8414 139.311 13.6807C139.073 13.5165 138.817 13.3748 138.548 13.2592C138.283 13.1452 138.006 13.0577 137.723 12.9994C137.445 12.9422 137.157 12.9122 136.866 12.9122C136.367 12.9122 135.863 13.0035 135.383 13.1959C134.975 13.3593 134.581 13.5968 134.219 13.9139C131.13 17.0068 128.037 20.0969 124.946 23.1873L134.217 32.4582ZM131.287 10.9449C131.604 10.5822 131.842 10.1884 132.006 9.78006C132.198 9.29976 132.289 8.7964 132.289 8.29709C132.289 8.00613 132.259 7.71846 132.202 7.44016C132.144 7.15807 132.056 6.88079 131.942 6.61517C131.826 6.34473 131.684 6.08824 131.521 5.85227C131.36 5.62061 131.175 5.40416 130.968 5.21001C130.197 4.48437 129.191 4.14196 128.176 4.14196C127.112 4.14196 126.039 4.51682 125.212 5.21914L125.202 5.227C124.823 5.51619 124.382 5.89662 123.884 6.39517C123.383 6.8965 122.824 7.51873 122.211 8.28924L122.014 8.53585L121.818 8.28924C121.205 7.51873 120.646 6.89625 120.145 6.39517C119.648 5.89662 119.207 5.51619 118.827 5.227L118.817 5.21914C117.99 4.51707 116.917 4.14196 115.853 4.14196C114.838 4.14196 113.832 4.48412 113.061 5.21001C112.854 5.40416 112.669 5.62086 112.508 5.85252C112.344 6.09052 112.202 6.34676 112.087 6.61542C111.972 6.88079 111.885 7.15807 111.827 7.43991C111.77 7.71871 111.74 8.00613 111.74 8.29709C111.74 8.79665 111.831 9.30001 112.023 9.78031C112.187 10.1884 112.425 10.5822 112.742 10.9444L122.015 20.2176L131.287 10.9449Z" fill="#A7D74A"/>
</svg>
