<svg width="807" height="168" viewBox="0 0 807 168" fill="none" xmlns="http://www.w3.org/2000/svg">
<rect x="0.226318" y="0.22168" width="806.403" height="167.73" fill="url(#paint0_linear)"/>
<mask id="mask0" mask-type="alpha" maskUnits="userSpaceOnUse" x="265" y="0" width="542" height="168">
<path d="M265.173 0.22168H806.629V167.952H265.173V0.22168Z" fill="white"/>
</mask>
<g mask="url(#mask0)">
<g filter="url(#filter0_d)">
<path d="M339.047 94.4155L270.353 168.585H806.63V0.22168H709.798C703.453 0.22168 697.389 2.8429 693.043 7.46517L605.978 100.048C596.552 110.071 580.493 109.631 571.63 99.106L546.771 69.5856C543.673 65.906 539.498 63.2905 534.836 62.1072L506.544 54.9271C499.719 53.1951 492.478 54.6844 486.89 58.9688L433.306 100.059C427.352 104.625 419.545 105.999 412.39 103.742L362.841 88.1098C354.358 85.4334 345.092 87.889 339.047 94.4155Z" fill="#2ADF91"/>
</g>
</g>
<mask id="mask1" mask-type="alpha" maskUnits="userSpaceOnUse" x="265" y="0" width="542" height="168">
<path d="M265.173 0.22168H806.63V167.952H265.173V0.22168Z" fill="#C4C4C4"/>
</mask>
<g mask="url(#mask1)">
<path d="M487.357 47.7227C486.193 48.3048 484.363 48.9003 484.363 58.5506C484.363 68.2015 496.76 83.5987 496.76 83.5987L508.892 73.7294C508.892 73.7294 495.474 53.8169 487.357 47.7227Z" fill="#E6C24C"/>
<path d="M483.421 107.265C483.421 107.265 493.197 102.446 491.316 112.925C489.436 123.405 475.11 241.258 475.11 241.258L461.694 242.002C461.694 242.002 459.98 202.709 460.356 197.066C460.732 191.423 462.955 182.694 462.955 182.694L464.094 147.837L476.752 104.798L483.421 107.265Z" fill="#355389"/>
<path d="M426.911 160.364C426.911 160.364 420.093 153.215 418.575 150.327C417.762 148.78 417.025 144.836 415.328 144.137C413.63 143.438 412.597 143.757 412.597 143.757L394.706 157.804C393.731 158.569 394.861 158.663 396.092 158.593C398.106 158.482 399.624 158.257 405.245 156.896C405.612 156.807 407.064 156.628 407.581 156.555C408.891 156.37 410.45 156.484 411.889 156.7C414.284 157.061 419.858 163.703 419.858 163.703L426.911 160.364Z" fill="#F7A491"/>
<path d="M407.584 156.554C411.3 151.587 415.403 149.587 417.957 148.786C417.328 146.994 416.641 144.651 415.476 143.93C414.05 143.049 413.066 143.232 412.515 143.654C408.158 147.005 396.755 156.173 393.468 158.77C393.009 159.133 393.182 159.858 393.753 159.964C395.328 160.257 407.067 156.627 407.584 156.554Z" fill="#3C8F7C"/>
<path d="M411.722 67.7011C421.433 84.1173 435.514 74.8986 434.909 74.966C435.393 74.8812 438.211 75.5574 440.066 75.917C447.795 77.4153 456.059 73.5676 460.812 67.008C472.627 68.199 482.609 59.3695 481.406 49.4165C487.953 44.3011 488.756 33.8677 485.478 26.2948C486.845 15.4686 473.459 10.4381 463.085 11.9073C457.827 12.6527 452.773 15.7452 449.506 20.1663C440.397 17.7948 430.994 22.694 426.751 31.5938C411.571 32.2224 401.812 50.9491 411.722 67.7011Z" fill="#E68B75"/>
<path d="M487.357 111.062C487.357 111.062 465.431 101.316 465.085 102.428C462.337 111.279 453.783 108.424 448.705 124.014C446.579 130.543 444.396 173.972 444.396 173.972C444.396 173.972 435.75 166.799 423.394 154.265C422.446 153.304 413.157 162.135 413.157 162.135C437.682 195.262 448.262 196.991 452.355 195.136C460.898 191.264 478.922 137.107 478.893 137.113C481.057 132.897 487.357 111.062 487.357 111.062Z" fill="#466EB6"/>
<path d="M451.005 49.881C451.005 49.881 419.313 49.8403 412.527 49.4488C406.386 49.095 382.028 49.7149 381.075 49.6045C380.123 49.4941 373.827 38.834 372.781 39.9785C371.734 41.123 376.284 45.2647 374.877 46.3389C373.47 47.4137 358.352 45.0073 358.553 46.1245C358.929 48.2154 367.748 47.9487 367.739 48.9579C367.73 49.967 358.509 48.3914 357.883 50.0675C357.258 51.743 366.754 50.7507 367.133 51.4984C367.512 52.2461 358.326 53.6154 359.265 55.1736C359.775 56.02 367.404 53.7601 367.368 54.9139C367.33 56.0671 361.765 58.6919 362.447 59.6109C363.13 60.53 366.816 56.791 370.045 56.7445C373.275 56.698 375.587 55.0132 380.742 56.4273C383.288 57.125 402.721 59.5006 419.141 60.903C435.974 62.3409 449.773 62.7981 449.773 62.7981L451.005 49.881Z" fill="#F7A491"/>
<path d="M499.378 72.3693C501.19 64.5205 495.755 61.1237 487.356 47.7232C484.547 47.3456 480.207 48.2862 479.542 48.2815C475.236 48.2513 460.188 47.7947 457.379 47.7441L458.959 69.0881C469.865 90.4575 466.911 101.671 462.763 105.819C460.811 107.77 489.974 115.689 491.316 112.925C492.9 109.667 497.057 82.424 499.378 72.3693Z" fill="#FFD95E"/>
<path d="M465.025 48.5507C462.25 47.2249 442.163 47.889 442.163 47.889C442.163 47.889 439.356 61.8727 441.624 65.2341C441.624 65.2341 459.584 67.906 459.073 69.3793L465.025 48.5507Z" fill="#FFD95E"/>
<path d="M470.291 39.5647C470.291 39.5647 470.643 47.1909 470.286 50.3676C469.929 53.5437 473.546 60.9917 480.28 61.1212C487.014 61.2508 481.268 53.9754 480.678 50.8492C480.089 47.7231 479.381 35.4863 479.381 35.4863L470.291 39.5647Z" fill="#F7A491"/>
<path d="M479.381 35.4863C479.381 35.4863 479.545 38.3266 479.781 41.6201C477.658 44.1537 474.394 45.4469 470.424 43.905C470.381 41.5434 470.291 39.5641 470.291 39.5641L479.381 35.4863Z" fill="#E68B75"/>
<path d="M469.733 16.8383C469.733 16.8383 465.92 17.9776 463.779 21.7916C461.639 25.605 460.738 36.4603 468.961 40.9319C477.184 45.4036 482.821 37.8889 482.446 30.9638C482.07 24.0388 479.952 14.9084 469.733 16.8383Z" fill="#F7A491"/>
<path d="M481.286 31.2062C482.286 31.5305 483.548 30.4026 484.105 28.6867C484.662 26.9709 484.303 25.317 483.303 24.9926C482.303 24.6682 481.041 25.7962 480.484 27.512C479.927 29.2279 480.286 30.8818 481.286 31.2062Z" fill="#F7A491"/>
<path d="M470.88 16.5322C470.88 16.5322 466.705 27.9458 462.435 29.2332C458.164 30.5212 458.611 36.0891 458.611 36.0891C458.611 36.0891 457.821 23.215 461.684 19.9837C465.546 16.7524 470.88 16.5322 470.88 16.5322Z" fill="#E68B75"/>
<path d="M463.416 35.4403C464.605 34.9705 465.005 33.1639 464.31 31.4052C463.615 29.6464 462.087 28.6015 460.898 29.0713C459.709 29.541 459.309 31.3476 460.004 33.1064C460.699 34.8651 462.227 35.91 463.416 35.4403Z" fill="#F7A491"/>
<path d="M562.994 262.22C561.68 262.22 560.474 261.353 560.104 260.027L519.462 114.789C519.015 113.192 519.948 111.536 521.545 111.089C523.144 110.643 524.8 111.574 525.246 113.172L565.887 258.409C566.334 260.006 565.402 261.662 563.805 262.109C563.534 262.184 563.261 262.22 562.994 262.22Z" fill="#F47458"/>
<path d="M548.797 116.325H483.561C481.808 116.325 480.387 114.98 480.387 113.323C480.387 111.665 481.808 110.32 483.561 110.32H548.797C550.55 110.32 551.971 111.665 551.971 113.323C551.971 114.98 550.55 116.325 548.797 116.325Z" fill="#F47458"/>
<path d="M507.501 95.3232C506.599 94.4593 502.089 90.0742 497.228 83.2183L506.837 75.4009L515.046 88.4022C515.046 88.4022 542.442 106.085 544.767 108.928C547.088 111.764 547.834 115.486 547.185 116.326C545.888 118.008 545.274 117.366 544.738 117.366C544.202 117.366 543.015 117.805 542.059 117.805C541.103 117.805 540.408 117.241 539.018 117.241C537.628 117.241 536.498 116.326 536.498 116.326C536.498 116.326 538.757 114.877 537.193 111.002C536.24 108.643 508.443 96.2266 507.501 95.3232Z" fill="#F7A491"/>
<path d="M267.632 140.628C270.326 139.362 273.53 138.624 276.939 138.583C280.1 133.232 287.472 129.662 295.849 129.662C300.876 129.662 305.644 130.988 309.32 133.261C313.411 126.613 322.806 121.967 333.451 121.967C340.444 121.967 347.077 123.93 351.993 127.406C352.697 127.326 353.408 127.286 354.12 127.286C361.738 127.286 367.935 131.693 367.935 137.11C367.935 138.326 367.618 139.516 367.015 140.628H267.632Z" fill="white"/>
<path d="M580.652 55.9804C585.37 53.7629 590.981 52.4697 596.95 52.3976C602.486 43.0291 615.394 36.7762 630.064 36.7762C638.867 36.7762 647.215 39.0977 653.652 43.0784C660.815 31.4366 677.269 23.3008 695.91 23.3008C708.156 23.3008 719.771 26.7383 728.379 32.8245C729.612 32.6856 730.857 32.6153 732.104 32.6153C745.444 32.6153 756.295 40.3328 756.295 49.8182C756.295 51.9485 755.74 54.0319 754.685 55.9798L580.652 55.9804Z" fill="white"/>
</g>
<defs>
<filter id="filter0_d" x="241.353" y="-37.7783" width="592.277" height="224.364" filterUnits="userSpaceOnUse" color-interpolation-filters="sRGB">
<feFlood flood-opacity="0" result="BackgroundImageFix"/>
<feColorMatrix in="SourceAlpha" type="matrix" values="0 0 0 0 0 0 0 0 0 0 0 0 0 0 0 0 0 0 127 0"/>
<feOffset dx="-1" dy="-10"/>
<feGaussianBlur stdDeviation="14"/>
<feColorMatrix type="matrix" values="0 0 0 0 0 0 0 0 0 0 0 0 0 0 0 0 0 0 0.1 0"/>
<feBlend mode="normal" in2="BackgroundImageFix" result="effect1_dropShadow"/>
<feBlend mode="normal" in="SourceGraphic" in2="effect1_dropShadow" result="shape"/>
</filter>
<linearGradient id="paint0_linear" x1="403.428" y1="0.22168" x2="403.428" y2="167.952" gradientUnits="userSpaceOnUse">
<stop stop-color="#4F4F4F"/>
<stop offset="1" stop-color="#363636"/>
</linearGradient>
</defs>
</svg>
