<svg width="375" height="200" viewBox="0 0 375 200" fill="none" xmlns="http://www.w3.org/2000/svg">
<g clip-path="url(#clip0)">
<path d="M0.390991 0.113281H374.948V200.059H0.390991V0.113281Z" fill="url(#paint0_linear)"/>
<mask id="mask0" mask-type="alpha" maskUnits="userSpaceOnUse" x="0" y="64" width="375" height="137">
<path d="M0.390869 64.1816H374.948V200.059H0.390869V64.1816Z" fill="white"/>
</mask>
<g mask="url(#mask0)">
<g filter="url(#filter0_d)">
<path d="M76.5726 144.773L32.0389 200.572H386.403C397.449 200.572 406.403 191.618 406.403 180.572V84.1816C406.403 73.1359 397.449 64.1816 386.403 64.1816H342.831C335.894 64.1816 329.329 67.312 324.962 72.701L272.85 137.007C263.327 148.758 245.249 148.276 236.366 136.034L226.276 122.131C223.293 118.019 219.032 115.011 214.159 113.576L201.624 109.884C194.006 107.64 185.769 109.486 179.837 114.765L149.439 141.815C143.111 147.447 134.198 149.143 126.242 146.231L102.456 137.522C93.167 134.121 82.7435 137.041 76.5726 144.773Z" fill="#2ADF91"/>
</g>
</g>
<mask id="mask1" mask-type="alpha" maskUnits="userSpaceOnUse" x="16" y="82" width="358" height="119">
<path d="M16.6958 82.0337H373.453V200.059H16.6958V82.0337Z" fill="#C4C4C4"/>
</mask>
<g mask="url(#mask1)">
<path d="M170.992 115.459C170.172 115.869 168.885 116.288 168.885 123.078C168.885 129.869 177.608 140.704 177.608 140.704L186.145 133.759C186.145 133.759 176.703 119.747 170.992 115.459Z" fill="#E6C24C"/>
<path d="M168.221 157.356C168.221 157.356 175.1 153.965 173.777 161.339C172.454 168.713 162.373 251.642 162.373 251.642L152.933 252.166C152.933 252.166 151.727 224.516 151.991 220.546C152.256 216.575 153.82 210.433 153.82 210.433L154.621 185.905L163.529 155.62L168.221 157.356Z" fill="#355389"/>
<path d="M128.457 194.72C128.457 194.72 123.66 189.69 122.591 187.658C122.019 186.569 121.501 183.794 120.307 183.302C119.112 182.81 118.385 183.034 118.385 183.034L105.796 192.919C105.11 193.457 105.905 193.523 106.771 193.474C108.189 193.396 109.256 193.238 113.212 192.28C113.47 192.218 114.492 192.092 114.855 192.04C115.777 191.91 116.875 191.99 117.887 192.143C119.572 192.396 123.494 197.07 123.494 197.07L128.457 194.72Z" fill="#F7A491"/>
<path d="M114.858 192.039C117.472 188.544 120.36 187.137 122.156 186.573C121.714 185.312 121.231 183.663 120.411 183.157C119.407 182.536 118.715 182.665 118.328 182.962C115.262 185.32 107.238 191.771 104.925 193.599C104.602 193.854 104.723 194.364 105.125 194.439C106.233 194.645 114.494 192.091 114.858 192.039Z" fill="#3C8F7C"/>
<path d="M117.769 129.517C124.603 141.068 134.511 134.582 134.085 134.629C134.426 134.569 136.408 135.045 137.714 135.298C143.153 136.353 148.967 133.645 152.312 129.029C160.626 129.867 167.65 123.654 166.803 116.651C171.41 113.051 171.975 105.71 169.669 100.381C170.63 92.763 161.211 89.2232 153.912 90.2571C150.212 90.7815 146.655 92.9576 144.356 96.0686C137.947 94.3998 131.331 97.8472 128.344 104.11C117.663 104.552 110.796 117.729 117.769 129.517Z" fill="#E68B75"/>
<path d="M170.991 160.029C170.991 160.029 155.562 153.171 155.319 153.953C153.385 160.181 147.366 158.172 143.793 169.143C142.297 173.737 140.761 204.296 140.761 204.296C140.761 204.296 134.677 199.249 125.983 190.429C125.316 189.752 118.779 195.966 118.779 195.966C136.037 219.277 143.481 220.493 146.361 219.188C152.372 216.464 165.055 178.355 165.035 178.359C166.558 175.393 170.991 160.029 170.991 160.029Z" fill="#466EB6"/>
<path d="M145.412 116.978C145.412 116.978 123.111 116.95 118.336 116.674C114.015 116.425 96.8753 116.861 96.2047 116.784C95.5345 116.706 91.104 109.205 90.368 110.01C89.6316 110.816 92.8333 113.73 91.8429 114.486C90.853 115.242 80.2153 113.549 80.3568 114.335C80.621 115.806 86.8269 115.619 86.8203 116.329C86.8142 117.039 80.3253 115.93 79.8853 117.109C79.445 118.288 86.1273 117.59 86.3939 118.116C86.6605 118.642 80.1965 119.606 80.8577 120.702C81.2167 121.298 86.5848 119.708 86.5591 120.52C86.5329 121.331 82.6164 123.178 83.0969 123.825C83.5769 124.472 86.1706 121.84 88.4429 121.808C90.7156 121.775 92.3426 120.59 95.97 121.585C97.7614 122.076 111.436 123.747 122.99 124.734C134.835 125.746 144.544 126.067 144.544 126.067L145.412 116.978Z" fill="#F7A491"/>
<path d="M179.45 132.802C180.725 127.279 176.901 124.889 170.991 115.459C169.014 115.194 165.96 115.856 165.492 115.852C162.462 115.831 151.874 115.51 149.897 115.474L151.009 130.493C158.683 145.53 156.605 153.421 153.685 156.339C152.312 157.712 172.833 163.284 173.777 161.339C174.892 159.047 177.817 139.877 179.45 132.802Z" fill="#FFD95E"/>
<path d="M155.277 116.041C153.324 115.108 139.19 115.576 139.19 115.576C139.19 115.576 137.214 125.415 138.81 127.781C138.81 127.781 151.448 129.661 151.089 130.697L155.277 116.041Z" fill="#FFD95E"/>
<path d="M158.982 109.718C158.982 109.718 159.23 115.085 158.979 117.32C158.727 119.555 161.273 124.796 166.012 124.887C170.75 124.978 166.707 119.859 166.292 117.659C165.877 115.459 165.379 106.849 165.379 106.849L158.982 109.718Z" fill="#F7A491"/>
<path d="M165.378 106.849C165.378 106.849 165.494 108.848 165.66 111.165C164.166 112.948 161.869 113.858 159.076 112.773C159.046 111.111 158.982 109.718 158.982 109.718L165.378 106.849Z" fill="#E68B75"/>
<path d="M158.59 93.727C158.59 93.727 155.907 94.5286 154.401 97.2124C152.895 99.8957 152.261 107.534 158.047 110.681C163.833 113.827 167.8 108.539 167.535 103.667C167.271 98.7936 165.781 92.3689 158.59 93.727Z" fill="#F7A491"/>
<path d="M166.719 103.837C167.423 104.065 168.311 103.271 168.703 102.064C169.095 100.857 168.842 99.6928 168.139 99.4646C167.435 99.2363 166.547 100.03 166.155 101.237C165.763 102.445 166.016 103.609 166.719 103.837Z" fill="#F7A491"/>
<path d="M159.397 93.5107C159.397 93.5107 156.459 101.542 153.454 102.448C150.449 103.354 150.764 107.272 150.764 107.272C150.764 107.272 150.208 98.2132 152.926 95.9394C155.643 93.6657 159.397 93.5107 159.397 93.5107Z" fill="#E68B75"/>
<path d="M154.145 106.817C154.981 106.486 155.263 105.215 154.774 103.977C154.285 102.74 153.21 102.004 152.373 102.335C151.536 102.666 151.255 103.937 151.744 105.174C152.233 106.412 153.308 107.147 154.145 106.817Z" fill="#F7A491"/>
<path d="M224.214 266.393C223.29 266.393 222.441 265.782 222.18 264.85L193.582 162.651C193.268 161.528 193.924 160.362 195.048 160.048C196.173 159.734 197.338 160.389 197.652 161.513L226.25 263.711C226.565 264.835 225.908 266 224.785 266.315C224.594 266.368 224.402 266.393 224.214 266.393Z" fill="#F47458"/>
<path d="M214.224 163.731H168.32C167.087 163.731 166.087 162.785 166.087 161.619C166.087 160.452 167.087 159.506 168.32 159.506H214.224C215.458 159.506 216.457 160.452 216.457 161.619C216.457 162.785 215.458 163.731 214.224 163.731Z" fill="#F47458"/>
<path d="M185.166 148.954C184.531 148.346 181.358 145.26 177.937 140.436L184.699 134.935L190.475 144.084C190.475 144.084 209.753 156.526 211.389 158.527C213.021 160.522 213.546 163.141 213.09 163.733C212.177 164.916 211.745 164.464 211.368 164.464C210.991 164.464 210.155 164.773 209.483 164.773C208.81 164.773 208.321 164.376 207.343 164.376C206.365 164.376 205.57 163.733 205.57 163.733C205.57 163.733 207.16 162.713 206.059 159.986C205.388 158.326 185.829 149.589 185.166 148.954Z" fill="#F7A491"/>
<path d="M16.3796 180.833C18.2753 179.942 20.53 179.422 22.9286 179.393C25.1531 175.628 30.34 173.116 36.2348 173.116C39.7722 173.116 43.1269 174.049 45.7136 175.649C48.5923 170.97 55.2034 167.701 62.6941 167.701C67.6149 167.701 72.2821 169.083 75.7414 171.528C76.2366 171.472 76.7371 171.444 77.238 171.444C82.5984 171.444 86.9589 174.545 86.9589 178.357C86.9589 179.213 86.7361 180.05 86.3116 180.833H16.3796Z" fill="white"/>
<path d="M236.64 121.269C239.96 119.708 243.908 118.798 248.108 118.748C252.004 112.155 261.087 107.756 271.409 107.756C277.604 107.756 283.478 109.389 288.007 112.19C293.048 103.998 304.626 98.2734 317.743 98.2734C326.36 98.2734 334.533 100.692 340.59 104.975C341.458 104.877 342.334 104.828 343.211 104.828C352.598 104.828 360.234 110.258 360.234 116.933C360.234 118.432 359.843 119.898 359.101 121.268L236.64 121.269Z" fill="white"/>
</g>
</g>
<defs>
<filter id="filter0_d" x="3.03894" y="26.1816" width="430.364" height="192.391" filterUnits="userSpaceOnUse" color-interpolation-filters="sRGB">
<feFlood flood-opacity="0" result="BackgroundImageFix"/>
<feColorMatrix in="SourceAlpha" type="matrix" values="0 0 0 0 0 0 0 0 0 0 0 0 0 0 0 0 0 0 127 0"/>
<feOffset dx="-1" dy="-10"/>
<feGaussianBlur stdDeviation="14"/>
<feColorMatrix type="matrix" values="0 0 0 0 0 0 0 0 0 0 0 0 0 0 0 0 0 0 0.1 0"/>
<feBlend mode="normal" in2="BackgroundImageFix" result="effect1_dropShadow"/>
<feBlend mode="normal" in="SourceGraphic" in2="effect1_dropShadow" result="shape"/>
</filter>
<linearGradient id="paint0_linear" x1="187.67" y1="0.113281" x2="187.67" y2="200.059" gradientUnits="userSpaceOnUse">
<stop stop-color="#4F4F4F"/>
<stop offset="1" stop-color="#363636"/>
</linearGradient>
<clipPath id="clip0">
<rect width="375" height="200" fill="white"/>
</clipPath>
</defs>
</svg>
