<svg width="893" height="201" viewBox="0 0 893 201" fill="none" xmlns="http://www.w3.org/2000/svg">
<mask id="mask0" mask-type="alpha" maskUnits="userSpaceOnUse" x="0" y="14" width="807" height="168">
<path d="M0.0281982 34.1973C0.0281982 23.1516 8.9825 14.1973 20.0282 14.1973H790.431C799.268 14.1973 806.431 21.3607 806.431 30.1973V165.927C806.431 174.764 799.268 181.927 790.431 181.927H20.0282C8.9825 181.927 0.0281982 172.973 0.0281982 161.927V34.1973Z" fill="white"/>
</mask>
<g mask="url(#mask0)">
<g filter="url(#filter0_d)">
<path d="M338.849 108.391L270.155 182.561H786.431C797.477 182.561 806.431 173.607 806.431 162.561V34.1973C806.431 23.1516 797.477 14.1973 786.431 14.1973H709.599C703.254 14.1973 697.191 16.8185 692.844 21.4408L605.78 114.023C596.354 124.047 580.294 123.606 571.431 113.082L546.573 83.5612C543.474 79.8816 539.3 77.2661 534.638 76.0828L506.346 68.9027C499.521 67.1707 492.279 68.66 486.692 72.9444L433.108 114.035C427.154 118.6 419.347 119.975 412.192 117.717L362.643 102.085C354.16 99.409 344.893 101.865 338.849 108.391Z" fill="#2ADF91"/>
</g>
</g>
<mask id="mask1" mask-type="alpha" maskUnits="userSpaceOnUse" x="270" y="12" width="623" height="170">
<path d="M270.155 12.856H892.302V181.927H270.155V12.856Z" fill="#C4C4C4"/>
</mask>
<g mask="url(#mask1)">
<path d="M494.115 60.7373C492.941 61.3241 491.097 61.9243 491.097 71.6518C491.097 81.3799 503.593 96.9003 503.593 96.9003L515.823 86.952C515.822 86.952 502.296 66.8803 494.115 60.7373Z" fill="#E6C24C"/>
<path d="M490.147 120.755C490.147 120.755 500.001 115.897 498.106 126.461C496.21 137.024 481.77 255.82 481.77 255.82L468.246 256.57C468.246 256.57 466.519 216.963 466.898 211.275C467.277 205.587 469.518 196.788 469.518 196.788L470.666 161.651L483.425 118.269L490.147 120.755Z" fill="#355389"/>
<path d="M433.185 174.279C433.185 174.279 426.313 167.073 424.783 164.162C423.963 162.603 423.22 158.627 421.509 157.923C419.798 157.217 418.757 157.539 418.757 157.539L400.723 171.699C399.74 172.47 400.879 172.564 402.12 172.494C404.151 172.382 405.68 172.156 411.347 170.784C411.716 170.694 413.179 170.514 413.701 170.44C415.021 170.253 416.593 170.368 418.043 170.586C420.457 170.949 426.076 177.645 426.076 177.645L433.185 174.279Z" fill="#F7A491"/>
<path d="M413.704 170.439C417.45 165.432 421.586 163.416 424.159 162.609C423.526 160.802 422.834 158.44 421.659 157.714C420.221 156.826 419.23 157.01 418.674 157.436C414.283 160.814 402.789 170.055 399.475 172.672C399.012 173.038 399.186 173.769 399.762 173.876C401.35 174.172 413.182 170.513 413.704 170.439Z" fill="#3C8F7C"/>
<path d="M417.875 80.8753C427.663 97.4228 441.858 88.1304 441.247 88.1983C441.736 88.1128 444.575 88.7945 446.446 89.157C454.237 90.6673 462.566 86.7888 467.358 80.1767C479.267 81.3772 489.329 72.4771 488.116 62.4445C494.715 57.2883 495.525 46.7714 492.221 39.138C493.598 28.2252 480.106 23.1544 469.649 24.6354C464.349 25.3867 459.254 28.5039 455.961 32.9604C446.78 30.57 437.302 35.5084 433.024 44.4793C417.723 45.1129 407.886 63.9894 417.875 80.8753Z" fill="#E68B75"/>
<path d="M494.115 124.583C494.115 124.583 472.013 114.759 471.665 115.88C468.895 124.802 460.273 121.924 455.154 137.639C453.011 144.22 450.81 187.996 450.81 187.996C450.81 187.996 442.095 180.766 429.64 168.131C428.685 167.162 419.322 176.064 419.322 176.064C444.043 209.457 454.707 211.199 458.833 209.329C467.444 205.426 485.612 150.836 485.583 150.842C487.765 146.592 494.115 124.583 494.115 124.583Z" fill="#466EB6"/>
<path d="M457.473 62.913C457.473 62.913 425.527 62.872 418.687 62.4773C412.496 62.1207 387.944 62.7456 386.983 62.6343C386.023 62.523 379.677 51.7777 378.622 52.9314C377.567 54.085 382.154 58.2598 380.735 59.3426C379.317 60.426 364.079 58.0004 364.281 59.1265C364.66 61.2341 373.55 60.9653 373.54 61.9825C373.532 62.9997 364.236 61.4115 363.606 63.101C362.975 64.7899 372.547 63.7897 372.929 64.5434C373.311 65.297 364.052 66.6773 364.999 68.2479C365.513 69.1011 373.203 66.8231 373.166 67.9861C373.129 69.1486 367.518 71.7943 368.206 72.7208C368.894 73.6472 372.61 69.8782 375.865 69.8314C379.12 69.7845 381.451 68.0863 386.647 69.5117C389.213 70.215 408.802 72.6095 425.353 74.0232C442.321 75.4725 456.23 75.9334 456.23 75.9334L457.473 62.913Z" fill="#F7A491"/>
<path d="M506.232 85.5808C508.058 77.6693 502.58 74.2452 494.114 60.7376C491.283 60.357 486.908 61.3051 486.237 61.3004C481.897 61.2699 466.729 60.8096 463.897 60.7587L465.49 82.2733C476.483 103.814 473.506 115.117 469.324 119.298C467.357 121.264 496.753 129.247 498.106 126.461C499.702 123.177 503.892 95.7159 506.232 85.5808Z" fill="#FFD95E"/>
<path d="M471.604 61.5715C468.807 60.2351 448.56 60.9044 448.56 60.9044C448.56 60.9044 445.73 75 448.016 78.3883C448.016 78.3883 466.12 81.0815 465.605 82.5666L471.604 61.5715Z" fill="#FFD95E"/>
<path d="M476.912 52.5138C476.912 52.5138 477.268 60.201 476.907 63.4031C476.547 66.6047 480.193 74.1121 486.982 74.2427C493.769 74.3733 487.977 67.0398 487.383 63.8886C486.788 60.7375 486.076 48.4028 486.076 48.4028L476.912 52.5138Z" fill="#F7A491"/>
<path d="M486.075 48.4033C486.075 48.4033 486.241 51.2663 486.479 54.5862C484.338 57.14 481.048 58.4435 477.047 56.8893C477.003 54.5089 476.912 52.5137 476.912 52.5137L486.075 48.4033Z" fill="#E68B75"/>
<path d="M476.35 29.606C476.35 29.606 472.506 30.7544 470.349 34.5989C468.191 38.4429 467.283 49.3849 475.572 53.8923C483.86 58.3997 489.543 50.8249 489.164 43.8445C488.786 36.8641 486.651 27.6607 476.35 29.606Z" fill="#F7A491"/>
<path d="M487.995 44.0882C489.003 44.4152 490.275 43.2782 490.837 41.5486C491.398 39.8191 491.036 38.1519 490.028 37.825C489.021 37.498 487.749 38.635 487.187 40.3645C486.626 42.0941 486.988 43.7612 487.995 44.0882Z" fill="#F7A491"/>
<path d="M477.506 29.2969C477.506 29.2969 473.297 40.8017 468.993 42.0994C464.689 43.3977 465.139 49.0101 465.139 49.0101C465.139 49.0101 464.343 36.0331 468.236 32.776C472.129 29.5188 477.506 29.2969 477.506 29.2969Z" fill="#E68B75"/>
<path d="M469.982 48.3569C471.181 47.8834 471.584 46.0624 470.884 44.2896C470.183 42.5168 468.643 41.4635 467.445 41.937C466.246 42.4106 465.842 44.2316 466.543 46.0044C467.244 47.7772 468.784 48.8305 469.982 48.3569Z" fill="#F7A491"/>
<path d="M570.356 276.95C569.033 276.95 567.817 276.076 567.443 274.739L526.477 128.34C526.026 126.731 526.967 125.061 528.576 124.611C530.188 124.16 531.857 125.1 532.307 126.71L573.273 273.108C573.724 274.718 572.784 276.388 571.174 276.838C570.901 276.914 570.626 276.95 570.356 276.95Z" fill="#F47458"/>
<path d="M556.046 129.888H490.289C488.522 129.888 487.09 128.533 487.09 126.862C487.09 125.191 488.522 123.835 490.289 123.835H556.046C557.813 123.835 559.245 125.191 559.245 126.862C559.245 128.533 557.813 129.888 556.046 129.888Z" fill="#F47458"/>
<path d="M514.42 108.718C513.511 107.848 508.965 103.427 504.065 96.5166L513.751 88.6367L522.025 101.742C522.025 101.742 549.641 119.566 551.984 122.431C554.323 125.29 555.075 129.042 554.422 129.889C553.114 131.585 552.495 130.937 551.955 130.937C551.415 130.937 550.218 131.38 549.255 131.38C548.29 131.38 547.59 130.812 546.189 130.812C544.788 130.812 543.649 129.889 543.649 129.889C543.649 129.889 545.926 128.428 544.349 124.523C543.389 122.145 515.37 109.629 514.42 108.718Z" fill="#F7A491"/>
<path d="M272.633 154.386C275.349 153.11 278.578 152.365 282.014 152.324C285.201 146.93 292.631 143.332 301.076 143.332C306.143 143.332 310.948 144.668 314.654 146.959C318.778 140.258 328.248 135.575 338.979 135.575C346.028 135.575 352.713 137.553 357.669 141.057C358.378 140.976 359.095 140.937 359.813 140.937C367.491 140.937 373.738 145.379 373.738 150.839C373.738 152.065 373.419 153.265 372.811 154.386H272.633Z" fill="white"/>
<path d="M588.156 69.0606C592.912 66.8253 598.568 65.5218 604.584 65.4492C610.165 56.0057 623.176 49.7028 637.963 49.7028C646.837 49.7028 655.252 52.0429 661.74 56.0554C668.96 44.3205 685.545 36.1196 704.336 36.1196C716.679 36.1196 728.388 39.5847 737.065 45.7195C738.307 45.5795 739.562 45.5087 740.819 45.5087C754.265 45.5087 765.204 53.2879 765.204 62.8491C765.204 64.9965 764.644 67.0965 763.581 69.06L588.156 69.0606Z" fill="white"/>
</g>
<defs>
<filter id="filter0_d" x="241.155" y="-23.8027" width="592.277" height="224.364" filterUnits="userSpaceOnUse" color-interpolation-filters="sRGB">
<feFlood flood-opacity="0" result="BackgroundImageFix"/>
<feColorMatrix in="SourceAlpha" type="matrix" values="0 0 0 0 0 0 0 0 0 0 0 0 0 0 0 0 0 0 127 0"/>
<feOffset dx="-1" dy="-10"/>
<feGaussianBlur stdDeviation="14"/>
<feColorMatrix type="matrix" values="0 0 0 0 0 0 0 0 0 0 0 0 0 0 0 0 0 0 0.1 0"/>
<feBlend mode="normal" in2="BackgroundImageFix" result="effect1_dropShadow"/>
<feBlend mode="normal" in="SourceGraphic" in2="effect1_dropShadow" result="shape"/>
</filter>
</defs>
</svg>
