<svg width="718" height="228" viewBox="0 0 718 228" fill="none" xmlns="http://www.w3.org/2000/svg">
<rect x="0.441162" y="0.803711" width="716.913" height="226.543" fill="url(#paint0_linear)"/>
<mask id="mask0" mask-type="alpha" maskUnits="userSpaceOnUse" x="0" y="0" width="718" height="228">
<path d="M0.441162 0.803711H717.354V227.669H0.441162V0.803711Z" fill="white"/>
</mask>
<g mask="url(#mask0)">
<g filter="url(#filter0_d)">
<path d="M148.059 124.721L78.1423 182.924C57.0449 200.486 68.6622 234.814 96.0894 235.954L721.545 261.965C737.683 262.636 751.456 250.41 752.702 234.307L774.033 -41.1883C775.988 -66.4335 747.718 -82.5966 726.954 -68.1055L641.81 -8.68433L502.665 96.1873C489.693 105.964 471.296 103.64 461.162 90.9451L441.359 66.1356C432.847 55.4714 418.21 51.895 405.739 57.4319L321.495 94.8352C319.574 95.6877 317.749 96.7396 316.049 97.9735L263.119 136.383C255.092 142.208 244.705 143.689 235.37 140.34L177.382 119.539C167.38 115.951 156.226 117.922 148.059 124.721Z" fill="#2ADF91"/>
</g>
</g>
<mask id="mask1" mask-type="alpha" maskUnits="userSpaceOnUse" x="162" y="0" width="464" height="228">
<rect width="462.895" height="226.543" rx="20" transform="matrix(-1 0 0 1 625.15 0.803711)" fill="url(#paint1_linear)"/>
</mask>
<g mask="url(#mask1)">
<path d="M243.749 12.2809C243.749 12.2809 248.281 5.81662 259.103 8.28947C269.926 10.7623 268.843 22.4866 276.352 18.5407C283.861 14.5948 291.626 13.5912 293.449 20.3153C296.152 30.2835 300.324 25.6502 304.98 34.2378C309.178 41.9791 306.538 46.1647 300.139 44.6669C291.023 42.533 299.063 50.4446 287.272 54.1177C275.481 57.7908 259.171 49.881 255.785 43.1412C252.399 36.4015 248.342 33.1095 245.253 30.6269C242.163 28.1444 237.221 19.251 243.749 12.2809Z" fill="#163560"/>
<path d="M317.82 76.9713L318.464 79.2509C318.644 79.8859 318.433 80.5671 317.926 80.99L314.703 83.6822C314.084 84.1989 313.293 84.4631 312.488 84.4223L308.965 84.2429L317.82 76.9713Z" fill="#163560"/>
<path d="M287.327 94.009L297.364 85.7673C298.285 85.0117 298.419 83.6408 297.664 82.7207L269.524 48.4518C266.728 45.0469 258.838 41.1177 255.433 43.9135L254.447 44.7233C251.034 47.5262 253.352 56.0433 256.155 59.4568L284.281 93.7098C285.036 94.63 286.407 94.7647 287.327 94.009Z" fill="#D86036"/>
<path d="M277.071 34.1474L250.805 38.8544L294.01 87.325L307.642 80.8434L277.071 34.1474Z" fill="#D86036"/>
<path d="M308.965 84.2428L319.002 76.001C319.922 75.2455 320.057 73.8744 319.301 72.9545L291.162 38.6857C288.366 35.2809 280.475 31.3517 277.071 34.1473L276.085 34.9571C272.671 37.76 274.989 46.2773 277.792 49.6906L305.918 83.9435C306.674 84.8638 308.045 84.9983 308.965 84.2428Z" fill="#F77D48"/>
<path d="M314.704 83.6823L314.888 83.8781L316.717 85.8298L482.205 262.421C483.733 262.424 485.296 262.416 486.894 262.394C501.299 262.194 513.746 259.81 524.457 255.696C538.011 250.488 548.786 242.511 557.234 232.676L499.616 196.155L401.176 133.756L382.134 121.687L317.927 80.9898L316.161 82.4639C316.161 82.466 316.161 82.466 316.161 82.466L316.102 82.5135L314.704 83.6823Z" fill="#F8FBFF"/>
<path d="M291.434 146.187C291.434 146.187 297.567 146.053 304.432 150.019C308.116 152.146 312.75 154.185 313.584 152.782C313.985 152.105 313.684 148.164 308.916 146.025C304.342 143.973 304.343 138.032 300.203 137.998C297.375 137.975 297.915 140.735 290.931 139.316L291.434 146.187Z" fill="#233862"/>
<path d="M246.44 136.874C249.304 146.936 295.885 147.871 295.885 147.871C295.885 147.871 296.176 141.583 292.031 139.19C292.031 139.19 280.436 133.32 275.166 131.196C268.892 128.671 264.633 128.781 264.633 128.781C264.637 128.368 266.176 127.499 268.507 126.308L268.511 126.307C275.736 122.619 290.538 115.865 290.648 110.161C290.658 109.642 290.599 109.097 290.483 108.533C288.919 100.929 276.723 89.9519 276.723 89.9519L266.318 88.1788C266.318 88.1788 266.665 99.2685 263.755 102.444C260.845 105.618 243.576 126.812 246.44 136.874Z" fill="#F99746"/>
<path d="M247.549 41.8457C247.549 41.8457 219.822 38.7795 215.673 37.7254C211.525 36.6714 196.259 22.3634 196.259 22.3634L192.97 25.0995C192.97 25.0995 199.446 39.7587 212.089 45.7642C217.025 48.1088 243.54 53.7325 243.54 53.7325L247.549 41.8457Z" fill="#FFB27D"/>
<path d="M357.537 157.959C357.537 157.959 362.107 161.421 364.33 165.048C366.553 168.675 369.598 172.716 371.006 171.89C371.684 171.492 373.326 167.896 370.186 163.72C367.173 159.712 370.046 154.512 366.439 152.481C363.975 151.093 363.114 153.771 357.685 149.152L357.537 157.959Z" fill="#233862"/>
<path d="M265.466 92.2668C265.466 92.2668 299.829 123.562 314.107 132.633C321.689 137.449 357.34 158.403 357.34 158.403C357.34 158.403 359.135 155.921 359.487 153.965C360.178 150.12 358.72 148.081 358.72 148.081C358.72 148.081 341.036 124.25 327.126 118.86C317.486 115.124 306.751 83.6384 286.071 75.6974C265.39 67.7566 265.466 92.2668 265.466 92.2668Z" fill="#F99746"/>
<path d="M246.625 72.0043C258.506 88.677 262.254 96.8643 265.691 98.2082C269.127 99.5497 298.519 90.1058 300.287 85.1454C300.754 83.8311 300.311 82.5023 299.3 81.1384C299.3 81.1384 299.3 81.1384 299.297 81.1361C296.492 77.348 289.323 73.2912 285.172 68.5623C282.476 65.4916 280.422 62.7687 278.853 60.3589C271.177 48.5675 275.111 44.2564 272.13 43.0313C266.91 40.8887 243.763 38.1136 237.2 41.6477C233.986 43.379 239.511 49.6731 240.157 55.5086C240.971 62.8353 242.892 66.7653 246.625 72.0043Z" fill="#739AF0"/>
<path d="M273.608 43.7415C273.608 43.7415 296.03 54.1971 301.625 60.6856C307.22 67.1744 316.451 82.9591 316.451 82.9591C316.451 82.9591 316.4 84.0807 312.482 84.0733C312.482 84.0733 296.748 67.2644 294.449 65.6948C292.15 64.1252 273.013 57.414 273.013 57.414L273.608 43.7415Z" fill="#FFB27D"/>
<path d="M232.413 49.3022C233.766 51.7705 236.228 54.5351 240.357 57.0871L247.397 40.1375C247.397 40.1375 237.066 40.1757 231.305 39.9555C231.305 39.9555 229.59 44.1524 232.413 49.3022Z" fill="#739AF0"/>
<path d="M257.146 40.3582C257.146 40.3582 266.953 40.1376 274.948 43.0675C278.263 44.2822 287.209 49.8337 287.209 49.8337C287.209 49.8337 286.215 57.321 277.615 60.9551C269.014 64.5891 268.064 47.0805 268.064 47.0805L257.146 40.3582Z" fill="#739AF0"/>
<path d="M196.405 22.5043C196.405 22.5043 193.544 14.1923 191.744 14.6008C189.944 15.0094 189.047 18.0966 189.072 19.7526C189.097 21.4086 193.116 25.2405 193.116 25.2405L196.405 22.5043Z" fill="#FFB27D"/>
<path d="M312.154 84.8863C312.154 84.8863 312.111 88.9234 312.992 90.401C313.873 91.8787 315.86 92.832 317.07 92.529C318.281 92.226 315.725 89.6922 316.245 87.9335C316.765 86.1748 317.584 82.4899 315.142 82.0464C312.701 81.6028 312.154 84.8863 312.154 84.8863Z" fill="#FFB27D"/>
<path d="M312.383 83.4928C312.383 83.4928 311.901 86.1593 311.527 87.101C311.154 88.0426 312.931 86.4389 313.287 85.5526C313.644 84.6662 312.383 83.4928 312.383 83.4928Z" fill="#FFB27D"/>
<path d="M266.972 55.0893C270.914 62.5776 278.695 64.5133 281.889 65.0014C282.541 65.0994 283.001 65.1389 283.198 65.1526L283.291 65.1591L283.492 61.4023C283.464 61.4029 282.433 61.3338 280.927 60.9703L280.925 60.9703C277.889 60.2366 272.917 58.31 270.299 53.3344C266.681 46.4618 271.993 40.3477 272.678 39.6057C271.108 39.4363 269.554 39.3737 268.123 39.3773C265.755 43.0693 263.783 49.0331 266.972 55.0893Z" fill="#D86036"/>
<path d="M250.528 41.324C250.528 41.324 240.569 44.3341 240.357 57.0875C240.357 57.0875 237.981 56.6561 237.208 54.8362C237.208 54.8362 238.168 43.3862 248.538 39.663C249.139 39.4473 251.563 38.3577 251.563 38.3577L251.757 38.9173C251.757 38.9173 251.952 40.3918 251.906 40.5801C251.861 40.7684 250.528 41.324 250.528 41.324Z" fill="#D86036"/>
<path d="M261.984 40.42C260.817 38.4611 259.606 35.4677 258.853 31.5662L258.308 31.7892L249.159 35.5489C249.159 35.5489 249.965 38.5026 250.528 41.3239C250.532 41.3474 250.537 41.3708 250.542 41.3941C252.297 50.0705 262.953 42.0461 261.984 40.42Z" fill="#FFB27D"/>
<path d="M249.159 35.5488C249.159 35.5488 249.159 35.5488 249.907 38.5056C255.205 37.3066 257.685 34.7102 258.309 31.7891L249.159 35.5488Z" fill="#E8945B"/>
<path d="M246.878 35.8571C246.878 35.8571 259.683 36.9183 260.221 28.9337C260.759 20.9492 262.775 15.7087 254.622 14.6935C246.469 13.6782 244.673 16.6179 243.845 19.2394C243.018 21.8607 243.561 35.3751 246.878 35.8571Z" fill="#FFB27D"/>
<path d="M248.796 14.111C248.796 14.111 251.685 23.7118 256.98 25.454C262.274 27.1962 264.706 25.9078 264.706 25.9078C264.706 25.9078 260.792 22.3516 260.315 16.5655C260.315 16.5654 251.739 9.8276 248.796 14.111Z" fill="#163560"/>
<path d="M249.615 14.9293C249.615 14.9293 246.948 15.7297 245.751 17.5569C244.581 19.3437 243.526 21.7431 243.532 24.7729C243.532 24.7729 241.31 18.2301 244.521 14.8251C247.925 11.2144 249.615 14.9293 249.615 14.9293Z" fill="#163560"/>
<path d="M249.697 31.2833C249.697 31.2833 249.413 32.2095 247.082 31.9093C247.082 31.9093 245.124 31.6574 245.253 30.6272C245.253 30.6273 247.207 30.0178 249.697 31.2833Z" fill="white"/>
<path d="M525.94 126.418L526.748 128.356L530.352 136.996L530.353 136.999L540.953 162.403L560.426 209.081L580.502 257.205L609.117 325.794C624.731 319.795 637.144 310.606 646.875 299.276C666.177 276.8 674.935 245.908 677.213 214.801L533.881 120.364L533.854 120.384L530.305 123.09L529.87 123.424L526.547 125.954L526.491 125.997L525.94 126.418Z" fill="#F8FBFF"/>
<path d="M490.12 225.351C490.12 225.351 498.974 226.33 508.1 233.349C512.996 237.116 519.279 240.936 520.747 239.075C521.454 238.178 521.773 232.446 515.317 228.457C509.124 224.629 510.261 216.076 504.308 215.237C500.241 214.663 500.492 218.74 490.708 215.362L490.12 225.351Z" fill="#233862"/>
<path d="M439.319 195.207C442.067 208.702 493.97 230.109 493.97 230.109C493.97 230.109 498.575 226.37 496.576 215.388C496.576 215.388 477.691 196.34 467.023 190.527C465.32 189.6 464.942 187.317 468.474 183.757L468.477 183.757C469.494 182.732 470.833 181.601 472.559 180.368C472.559 180.368 489.001 168.696 498.777 159.585C500.63 157.857 502.243 156.222 503.457 154.776C503.897 154.257 479.034 133.671 479.034 133.671L465.389 131.346C465.389 131.346 461.93 140.271 459.111 146.291C456.716 151.405 436.386 180.791 439.319 195.207Z" fill="#2A4E96"/>
<path d="M532.933 116.648L533.778 119.638C534.013 120.47 533.737 121.364 533.073 121.918L528.846 125.449C528.034 126.127 526.997 126.473 525.941 126.419L521.32 126.184L532.933 116.648Z" fill="#163560"/>
<path d="M492.943 138.992L506.106 128.183C507.312 127.193 507.489 125.394 506.498 124.188L469.594 79.2455C465.928 74.7802 455.58 69.627 451.114 73.2937L449.821 74.3557C445.344 78.0315 448.384 89.2016 452.06 93.6782L488.947 138.6C489.938 139.806 491.736 139.983 492.943 138.992Z" fill="#D86036"/>
<path d="M479.492 60.4848L447.619 66.7313L501.707 130.226L519.585 121.725L479.492 60.4848Z" fill="#D86036"/>
<path d="M521.32 126.184L534.483 115.375C535.69 114.385 535.866 112.586 534.876 111.38L497.972 66.4374C494.305 61.9721 483.957 56.8189 479.492 60.4855L478.199 61.5475C473.722 65.2233 476.762 76.3934 480.438 80.8703L517.324 125.791C518.315 126.998 520.113 127.175 521.32 126.184Z" fill="#F77D48"/>
<path d="M440.775 70.5809C440.775 70.5809 404.412 66.5598 398.971 65.1774C393.53 63.795 373.511 45.0306 373.511 45.0306L369.197 48.6191C369.197 48.6191 377.689 67.8443 394.271 75.7203C400.744 78.7952 435.518 86.1704 435.518 86.1704L440.775 70.5809Z" fill="#FFB27D"/>
<path d="M584.1 222.628C584.1 222.628 590.738 227.656 593.966 232.923C597.193 238.189 601.615 244.058 603.66 242.859C604.645 242.281 607.028 237.059 602.469 230.993C598.094 225.174 602.266 217.622 597.028 214.672C593.448 212.657 592.198 216.546 584.315 209.838L584.1 222.628Z" fill="#233862"/>
<path d="M464.273 136.707C464.273 136.707 509.339 177.75 528.064 189.646C538.007 195.961 584.763 223.442 584.763 223.442C584.763 223.442 587.117 220.187 587.578 217.622C588.485 212.579 586.573 209.906 586.573 209.906C586.573 209.906 560.11 176.605 544.228 165.179C531.221 155.822 518.417 125.392 491.295 114.977C464.173 104.563 464.273 136.707 464.273 136.707Z" fill="#2A4E96"/>
<path d="M441.503 116.397C454.685 139.787 458.926 146.836 463.764 146.751C501.715 146.084 511.636 136.821 513.955 130.315C514.568 128.592 511.731 124.765 508.644 122.112C508.644 122.112 508.644 122.112 508.641 122.109C504.963 117.141 495.56 111.821 490.116 105.619C486.58 101.592 483.887 98.0211 481.829 94.8607C471.763 79.3967 476.922 73.7426 473.012 72.1363C466.167 69.3261 435.809 65.6868 427.202 70.3215C422.988 72.5921 430.233 80.8467 431.081 88.4999C432.148 98.1081 436.656 107.795 441.503 116.397Z" fill="#F99746"/>
<path d="M474.951 73.0671C474.951 73.0671 504.356 86.7794 511.694 95.2889C519.032 103.798 531.138 124.5 531.138 124.5C531.138 124.5 531.072 125.97 525.933 125.961C525.933 125.961 505.299 103.917 502.283 101.858C499.268 99.7995 474.17 90.998 474.17 90.998L474.951 73.0671Z" fill="#FFB27D"/>
<path d="M420.924 80.3609C422.698 83.5981 425.928 87.2236 431.343 90.5706L440.576 68.3416C440.576 68.3416 427.027 68.3917 419.472 68.1029C419.472 68.1031 417.222 73.6071 420.924 80.3609Z" fill="#F99746"/>
<path d="M453.362 68.6302C453.362 68.6302 466.223 68.3409 476.708 72.1833C481.055 73.7764 492.787 81.0568 492.787 81.0568C492.787 81.0568 491.485 90.8764 480.205 95.6423C468.925 100.408 467.68 77.4461 467.68 77.4461L453.362 68.6302Z" fill="#F99746"/>
<path d="M373.702 45.2151C373.702 45.2151 369.95 34.3143 367.589 34.85C365.228 35.3857 364.052 39.4346 364.085 41.6061C364.117 43.7779 369.388 48.8035 369.388 48.8035L373.702 45.2151Z" fill="#FFB27D"/>
<path d="M525.503 127.028C525.503 127.028 525.445 132.322 526.601 134.26C527.757 136.198 530.363 137.448 531.95 137.051C533.537 136.653 530.186 133.33 530.867 131.024C531.549 128.717 532.623 123.885 529.421 123.303C526.219 122.721 525.503 127.028 525.503 127.028Z" fill="#FFB27D"/>
<path d="M525.802 125.2C525.802 125.2 525.17 128.697 524.68 129.932C524.191 131.167 526.521 129.064 526.989 127.901C527.457 126.739 525.802 125.2 525.802 125.2Z" fill="#FFB27D"/>
<path d="M466.247 87.9501C471.417 97.7708 481.622 100.309 485.811 100.95C486.666 101.078 487.269 101.13 487.528 101.148L487.649 101.156L487.912 96.2295C487.876 96.2305 486.524 96.1396 484.549 95.663L484.546 95.6628C480.565 94.7005 474.044 92.1741 470.61 85.6486C465.866 76.6355 472.832 68.6166 473.73 67.6439C471.672 67.4219 469.634 67.3396 467.757 67.3445C464.652 72.186 462.065 80.0077 466.247 87.9501Z" fill="#D86036"/>
<path d="M444.681 69.8967C444.681 69.8967 431.622 73.8442 431.343 90.5701C431.343 90.5701 428.227 90.0042 427.213 87.6176C427.213 87.6176 428.472 72.6011 442.072 67.7186C442.86 67.4357 446.04 66.0068 446.04 66.0068L446.295 66.7408C446.295 66.7408 446.549 68.6747 446.489 68.9215C446.43 69.1685 444.681 69.8967 444.681 69.8967Z" fill="#D86036"/>
<path d="M459.707 68.7115C458.176 66.1424 456.588 62.2167 455.6 57.1L454.886 57.3925L442.886 62.3232C442.886 62.3232 443.944 66.1968 444.681 69.8968C444.687 69.9276 444.694 69.9583 444.7 69.9889C447.002 81.3677 460.977 70.8442 459.707 68.7115Z" fill="#FFB27D"/>
<path d="M442.886 62.3233C442.886 62.3233 442.886 62.3233 443.867 66.2009C450.816 64.6284 454.068 61.2233 454.886 57.3926L442.886 62.3233Z" fill="#E8945B"/>
<path d="M437.383 62.1523C437.383 62.1523 453.64 66.2296 456.036 56.2264C458.432 46.2233 462.144 40.0129 451.866 36.9866C441.588 33.9603 438.65 37.3025 437.025 40.4474C435.4 43.5927 433.216 60.8338 437.383 62.1523Z" fill="#FFB27D"/>
<path d="M463.7 36.7565C463.865 36.5975 464.221 36.4879 464.993 36.5106C464.993 36.5106 464.411 36.0754 463.592 35.9861C463.521 34.9048 463.111 32.9668 461.311 32.3532C461.311 32.3532 462.255 32.9625 462.289 34.1088C460.343 31.744 455.915 29.7702 443.199 29.7088C426.442 29.6279 431.035 40.7462 433.084 42.1975C435.132 43.6486 440.849 40.6199 444.838 41.275C448.827 41.9303 449.104 47.7965 450.4 48.7069C451.695 49.6172 451.277 48.1646 453.191 47.4858C455.104 46.8073 455.023 49.8761 454.324 51.8171C453.625 53.7581 455.938 56.5896 455.938 56.5896C455.938 56.5896 455.938 56.5896 458.728 54.048C461.518 51.5061 464.909 40.0344 463.954 37.4484C463.87 37.2202 463.787 36.9892 463.7 36.7565Z" fill="#2C3A64"/>
</g>
<defs>
<filter id="filter0_d" x="38.2859" y="-111.571" width="762.843" height="391.562" filterUnits="userSpaceOnUse" color-interpolation-filters="sRGB">
<feFlood flood-opacity="0" result="BackgroundImageFix"/>
<feColorMatrix in="SourceAlpha" type="matrix" values="0 0 0 0 0 0 0 0 0 0 0 0 0 0 0 0 0 0 127 0"/>
<feOffset dx="-1" dy="-10"/>
<feGaussianBlur stdDeviation="14"/>
<feColorMatrix type="matrix" values="0 0 0 0 0 0 0 0 0 0 0 0 0 0 0 0 0 0 0.1 0"/>
<feBlend mode="normal" in2="BackgroundImageFix" result="effect1_dropShadow"/>
<feBlend mode="normal" in="SourceGraphic" in2="effect1_dropShadow" result="shape"/>
</filter>
<linearGradient id="paint0_linear" x1="358.898" y1="0.803711" x2="358.898" y2="227.347" gradientUnits="userSpaceOnUse">
<stop stop-color="#4F4F4F"/>
<stop offset="1" stop-color="#363636"/>
</linearGradient>
<linearGradient id="paint1_linear" x1="231.448" y1="0" x2="231.448" y2="226.543" gradientUnits="userSpaceOnUse">
<stop stop-color="#4F4F4F"/>
<stop offset="1" stop-color="#363636"/>
</linearGradient>
</defs>
</svg>
