<svg width="376" height="255" viewBox="0 0 376 255" fill="none" xmlns="http://www.w3.org/2000/svg">
<rect x="-42.8516" y="0.642578" width="716.913" height="226.543" rx="20" fill="url(#paint0_linear)"/>
<mask id="mask0" mask-type="alpha" maskUnits="userSpaceOnUse" x="0" y="0" width="376" height="255">
<path d="M0.948242 0.642578H375.948V254.709H0.948242V0.642578Z" fill="white"/>
</mask>
<g mask="url(#mask0)">
<g filter="url(#filter0_d)">
<path d="M-188.493 235.166L-265.336 306.805C-284.764 324.917 -272.807 357.48 -246.275 358.716L385.381 388.134C401.669 388.892 415.581 376.502 416.705 360.235L438.497 45.0515C440.288 19.1456 410.554 3.35428 390.094 19.3452L306.025 85.0514L168.461 201.163C155.061 212.473 134.859 209.929 124.681 195.65L105.984 169.418C97.424 157.408 81.404 153.402 68.198 159.968L-14.1987 200.937C-16.1796 201.922 -18.0454 203.123 -19.7622 204.518L-71.7859 246.796C-80.2469 253.672 -91.7722 255.416 -101.889 251.352L-156.853 229.272C-167.65 224.934 -179.982 227.232 -188.493 235.166Z" fill="#2ADF91"/>
</g>
</g>
<mask id="mask1" mask-type="alpha" maskUnits="userSpaceOnUse" x="26" y="0" width="351" height="255">
<rect width="350.667" height="254.067" transform="matrix(-1 0 0 1 376.696 0.642578)" fill="url(#paint1_linear)"/>
</mask>
<g mask="url(#mask1)">
<path d="M161.69 75.4616C161.69 75.4616 166.307 70.7267 174.923 74.2286C183.539 77.7306 181.065 87.2793 187.805 85.0276C194.545 82.7759 201.101 82.9917 201.703 88.7972C202.596 97.4035 206.669 94.1341 209.363 101.862C211.792 108.828 209.045 111.934 203.956 109.833C196.705 106.842 202.288 114.466 192.044 115.915C181.8 117.365 169.378 108.628 167.486 102.6C165.594 96.5708 162.683 93.3025 160.463 90.8338C158.242 88.365 155.353 80.3458 161.69 75.4616Z" fill="#163560"/>
<path d="M214.226 138.925L214.451 140.897C214.514 141.446 214.248 141.981 213.772 142.262L210.745 144.054C210.164 144.398 209.474 144.51 208.814 144.368L205.925 143.745L214.226 138.925Z" fill="#163560"/>
<path d="M186.718 148.907L196.127 143.443C196.989 142.943 197.285 141.827 196.784 140.965L178.131 108.84C176.278 105.648 170.283 101.337 167.091 103.19L166.166 103.727C162.967 105.585 163.736 112.939 165.595 116.139L184.239 148.249C184.74 149.112 185.855 149.408 186.718 148.907Z" fill="#D86036"/>
<path d="M186.297 98.0294L163.945 98.3847L193.144 144.281L205.288 140.757L186.297 98.0294Z" fill="#D86036"/>
<path d="M205.925 143.745L215.334 138.282C216.196 137.781 216.492 136.666 215.991 135.803L197.338 103.679C195.485 100.487 189.49 96.1755 186.298 98.0286L185.373 98.5654C182.174 100.423 182.943 107.778 184.801 110.978L203.446 143.088C203.947 143.95 205.062 144.246 205.925 143.745Z" fill="#F77D48"/>
<path d="M210.746 144.055L210.871 144.241L212.121 146.101L325.179 314.401C326.442 314.61 327.736 314.814 329.06 315.011C340.998 316.785 351.611 316.49 361.021 314.531C372.93 312.049 382.913 306.904 391.223 299.91L348.498 261.953L275.504 197.102L261.384 184.559L213.773 142.262L212.114 143.243C212.114 143.245 212.114 143.245 212.114 143.245L212.059 143.276L210.746 144.055Z" fill="#F8FBFF"/>
<path d="M183.088 192.605C183.088 192.605 188.177 193.321 193.32 197.524C196.079 199.779 199.636 202.089 200.514 201.041C200.938 200.536 201.219 197.236 197.565 194.826C194.059 192.513 194.86 187.601 191.441 187.015C189.106 186.615 189.181 188.97 183.597 186.856L183.088 192.605Z" fill="#233862"/>
<path d="M147.138 178.845C148.151 187.551 186.541 194.596 186.541 194.596C186.541 194.596 187.629 189.436 184.524 186.899C184.524 186.899 175.726 180.484 171.655 178.019C166.808 175.086 163.271 174.603 163.271 174.603C163.33 174.262 164.72 173.751 166.807 173.08L166.811 173.08C173.281 171.003 186.43 167.412 187.289 162.71C187.367 162.282 187.392 161.824 187.372 161.341C187.103 154.844 178.496 144.125 178.496 144.125L170.131 141.258C170.131 141.258 168.925 150.474 166.091 152.708C163.258 154.94 146.125 170.14 147.138 178.845Z" fill="#F99746"/>
<path d="M160.851 100.419C160.851 100.419 138.337 94.1503 135.049 92.7201C131.76 91.2899 121.065 77.4037 121.065 77.4037L117.977 79.2232C117.977 79.2232 121.357 92.2163 131.003 98.8845C134.769 101.488 155.936 109.708 155.936 109.708L160.851 100.419Z" fill="#FFB27D"/>
<path d="M236.161 211.24C236.161 211.24 239.474 214.718 240.824 218.016C242.173 221.314 244.147 225.066 245.422 224.573C246.037 224.335 247.878 221.582 245.844 217.706C243.893 213.987 246.969 210.074 244.26 207.908C242.408 206.429 241.336 208.527 237.47 203.977L236.161 211.24Z" fill="#233862"/>
<path d="M168.876 144.524C168.876 144.524 193.076 175.028 203.661 184.45C209.281 189.453 235.939 211.58 235.939 211.58C235.939 211.58 237.757 209.77 238.311 208.2C239.401 205.114 238.469 203.232 238.469 203.232C238.469 203.232 227.056 181.145 216.28 174.815C208.812 170.428 204.175 142.948 188.145 133.597C172.114 124.247 168.876 144.524 168.876 144.524Z" fill="#F99746"/>
<path d="M156.026 125.232C163.604 140.618 165.601 147.892 168.262 149.466C170.922 151.038 196.497 147.187 198.627 143.323C199.19 142.3 199.003 141.141 198.351 139.877C198.351 139.877 198.351 139.877 198.349 139.875C196.54 136.365 191.158 132.045 188.362 127.576C186.546 124.674 185.215 122.146 184.242 119.942C179.483 109.159 183.316 106.124 181.016 104.709C176.989 102.235 158.222 96.8234 152.32 98.8619C149.43 99.8608 153.15 105.809 152.899 110.721C152.585 116.889 153.644 120.397 156.026 125.232Z" fill="#739AF0"/>
<path d="M182.143 105.497C182.143 105.497 199.275 117.161 203.027 123.28C206.78 129.398 212.287 143.693 212.287 143.693C212.287 143.693 212.094 144.614 208.856 144.08C208.856 144.08 198.109 128.063 196.419 126.455C194.73 124.848 179.809 116.722 179.809 116.722L182.143 105.497Z" fill="#FFB27D"/>
<path d="M147.331 104.547C148.117 106.77 149.781 109.388 152.852 112.054L160.955 98.9866C160.955 98.9866 152.408 97.6271 147.674 96.6694C147.674 96.6694 145.69 99.9086 147.331 104.547Z" fill="#739AF0"/>
<path d="M168.987 100.481C168.987 100.481 177.125 101.619 183.342 105.118C185.919 106.569 192.568 112.364 192.568 112.364C192.568 112.364 190.739 118.421 183.138 120.268C175.537 122.114 177.109 107.509 177.109 107.509L168.987 100.481Z" fill="#739AF0"/>
<path d="M121.166 77.5398C121.166 77.5398 119.92 70.2817 118.376 70.3771C116.833 70.4725 115.675 72.9045 115.473 74.2771C115.271 75.6497 118.078 79.3594 118.078 79.3594L121.166 77.5398Z" fill="#FFB27D"/>
<path d="M208.475 144.708C208.475 144.708 207.896 148.04 208.425 149.38C208.955 150.721 210.469 151.777 211.511 151.689C212.553 151.602 210.78 149.162 211.447 147.778C212.114 146.394 213.287 143.457 211.328 142.762C209.369 142.066 208.475 144.708 208.475 144.708Z" fill="#FFB27D"/>
<path d="M208.852 143.585C208.852 143.585 208.094 145.725 207.659 146.454C207.223 147.182 208.908 146.095 209.323 145.41C209.737 144.726 208.852 143.585 208.852 143.585Z" fill="#FFB27D"/>
<path d="M175.127 113.984C177.378 120.707 183.552 123.355 186.127 124.189C186.653 124.358 187.028 124.452 187.189 124.49L187.265 124.508L187.937 121.429C187.914 121.425 187.071 121.23 185.875 120.726L185.873 120.726C183.461 119.71 179.61 117.448 178.115 112.981C176.049 106.811 181.264 102.471 181.93 101.95C180.655 101.598 179.379 101.337 178.195 101.148C175.74 103.882 173.306 108.547 175.127 113.984Z" fill="#D86036"/>
<path d="M163.384 100.389C163.384 100.389 154.744 101.537 152.851 112.054C152.851 112.054 150.945 111.377 150.55 109.768C150.55 109.768 152.886 100.43 161.962 98.7479C162.488 98.6504 164.639 98.076 164.639 98.076L164.725 98.5648C164.725 98.5648 164.687 99.8102 164.624 99.9598C164.561 100.109 163.384 100.389 163.384 100.389Z" fill="#D86036"/>
<path d="M172.979 101.183C172.277 99.4065 171.679 96.7683 171.581 93.4409L171.101 93.5519L163.03 95.4287C163.03 95.4287 163.299 97.9796 163.384 100.388C163.384 100.408 163.385 100.428 163.386 100.448C163.669 107.859 173.561 102.658 172.979 101.183Z" fill="#FFB27D"/>
<path d="M163.029 95.429C163.029 95.429 163.029 95.429 163.25 97.9745C167.792 97.6966 170.192 95.8837 171.101 93.5522L163.029 95.429Z" fill="#E8945B"/>
<path d="M161.102 95.3777C161.102 95.3777 171.548 97.9794 173.068 91.4497C174.588 84.92 176.959 80.8581 170.355 78.9209C163.75 76.9836 161.87 79.1725 160.832 81.2287C159.795 83.2847 158.425 94.5325 161.102 95.3777Z" fill="#FFB27D"/>
<path d="M165.616 77.6538C165.616 77.6538 166.712 85.9814 170.856 88.1349C174.999 90.2884 177.183 89.5505 177.183 89.5505C177.183 89.5505 174.426 86.083 174.81 81.2343C174.81 81.2343 168.627 74.5083 165.616 77.6538Z" fill="#163560"/>
<path d="M166.184 78.4413C166.184 78.4413 163.871 78.7439 162.635 80.0937C161.427 81.4135 160.231 83.2554 159.829 85.7615C159.829 85.7615 158.872 80.0523 161.985 77.6692C165.287 75.142 166.184 78.4413 166.184 78.4413Z" fill="#163560"/>
<path d="M164.049 91.9754C164.049 91.9754 163.69 92.7029 161.803 92.1408C161.803 92.1408 160.218 91.669 160.463 90.8345C160.463 90.8345 162.161 90.5938 164.049 91.9754Z" fill="white"/>
<path d="M313.952 88.0177L314.826 89.6457L318.723 96.9046L318.723 96.9069L330.183 118.25L351.235 157.465L372.94 197.895L403.875 255.519C417.037 248.927 427.122 239.816 434.675 229.059C449.655 207.721 454.681 179.914 454.012 152.474L320.389 82.0355L320.367 82.0553L317.49 84.7294L317.138 85.0584L314.444 87.5593L314.398 87.6015L313.952 88.0177Z" fill="#F8FBFF"/>
<path d="M291.051 177.735C291.051 177.735 298.89 177.834 307.484 183.201C312.094 186.08 317.924 188.888 319.05 187.132C319.593 186.286 319.381 181.239 313.386 178.297C307.634 175.476 307.896 167.887 302.611 167.662C298.999 167.507 299.569 171.056 290.71 168.936L291.051 177.735Z" fill="#233862"/>
<path d="M243.976 155.684C247.538 167.268 294.83 181.572 294.83 181.572C294.83 181.572 298.543 177.903 295.852 168.456C295.852 168.456 277.68 153.39 267.84 149.212C266.268 148.546 265.742 146.579 268.531 143.159L268.533 143.158C269.336 142.173 270.412 141.068 271.819 139.84C271.819 139.84 285.22 128.21 293.002 119.393C294.477 117.721 295.749 116.15 296.689 114.78C297.03 114.287 273.491 98.3863 273.491 98.3863L261.341 97.5181C261.341 97.5181 259.075 105.632 257.121 111.146C255.462 115.83 240.172 143.309 243.976 155.684Z" fill="#2A4E96"/>
<path d="M319.241 78.8605L320.236 81.4068C320.514 82.116 320.348 82.9221 319.814 83.4647L316.414 86.919C315.761 87.582 314.883 87.9743 313.953 88.0176L309.886 88.2072L319.241 78.8605Z" fill="#163560"/>
<path d="M286.128 101.856L296.732 91.2624C297.704 90.2913 297.704 88.7012 296.733 87.7293L260.563 51.5267C256.969 47.9298 247.464 44.3025 243.867 47.8962L242.826 48.9371C239.219 52.5399 242.838 62.0629 246.441 65.669L282.595 101.855C283.567 102.827 285.156 102.827 286.128 101.856Z" fill="#D86036"/>
<path d="M267.625 34.2479L240.245 42.4481L293.054 93.4279L307.985 84.4519L267.625 34.2479Z" fill="#D86036"/>
<path d="M309.886 88.2078L320.489 77.6139C321.461 76.6429 321.462 75.0528 320.491 74.0808L284.32 37.8782C280.726 34.2813 271.222 30.654 267.625 34.2478L266.583 35.2886C262.977 38.8914 266.596 48.4144 270.199 52.0207L306.352 88.2062C307.324 89.1783 308.914 89.1789 309.886 88.2078Z" fill="#F77D48"/>
<path d="M234.58 46.4047C234.58 46.4047 202.387 45.9965 197.503 45.2517C192.619 44.5068 173.478 29.7864 173.478 29.7864L170.007 33.2987C170.007 33.2987 179.092 49.4098 194.289 54.8882C200.222 57.027 231.31 60.5089 231.31 60.5089L234.58 46.4047Z" fill="#FFB27D"/>
<path d="M373.13 167.303C373.13 167.303 379.374 171.138 382.652 175.474C385.93 179.811 390.306 184.572 391.994 183.347C392.807 182.757 394.447 177.979 389.935 173.056C385.605 168.334 388.612 161.362 383.771 159.228C380.464 157.769 379.702 161.282 372.224 156.082L373.13 167.303Z" fill="#233862"/>
<path d="M260.822 102.309C260.822 102.309 303.808 134.398 321.227 143.212C330.476 147.893 373.78 167.958 373.78 167.958C373.78 167.958 375.563 164.905 375.748 162.619C376.11 158.125 374.206 155.948 374.206 155.948C374.206 155.948 348.177 129.047 333.289 120.4C321.095 113.317 307.275 87.7619 282.629 80.9628C257.982 74.1636 260.822 102.309 260.822 102.309Z" fill="#2A4E96"/>
<path d="M239.14 86.4702C252.688 105.828 257.006 111.639 261.237 111.15C294.418 107.316 302.315 98.3533 303.789 92.457C304.178 90.8951 301.366 87.7863 298.435 85.7269C298.435 85.7269 298.435 85.7269 298.432 85.7245C294.785 81.6884 286.094 77.8337 280.795 72.8678C277.353 69.6437 274.688 66.7468 272.616 64.1549C262.475 51.4728 266.509 46.0789 262.947 45.0068C256.711 43.1317 229.811 42.5437 222.669 47.34C219.173 49.6896 226.225 56.299 227.623 62.9294C229.38 71.2533 234.158 79.3514 239.14 86.4702Z" fill="#F99746"/>
<path d="M264.725 45.6559C264.725 45.6559 291.654 55.1478 298.809 61.9725C305.965 68.7972 318.341 85.8918 318.341 85.8918C318.341 85.8918 318.408 87.1856 313.907 87.6173C313.907 87.6173 293.947 70.0767 291.129 68.5319C288.312 66.9871 265.576 61.4275 265.576 61.4275L264.725 45.6559Z" fill="#FFB27D"/>
<path d="M218.03 56.6704C219.862 59.3537 223.001 62.2526 228.03 64.7204L234.213 44.4606C234.213 44.4606 222.35 45.6647 215.709 46.0586C215.709 46.0588 214.209 51.0721 218.03 56.6704Z" fill="#F99746"/>
<path d="M245.436 43.6184C245.436 43.6184 256.676 42.2638 266.189 44.7313C270.132 45.7543 281.031 51.1263 281.031 51.1263C281.031 51.1263 280.731 59.8383 271.26 64.9784C261.788 70.1184 258.732 50.1137 258.732 50.1137L245.436 43.6184Z" fill="#F99746"/>
<path d="M173.661 29.932C173.661 29.932 169.442 20.7059 167.42 21.3772C165.398 22.0486 164.714 25.6955 164.929 27.5947C165.143 29.494 170.19 33.4443 170.19 33.4443L173.661 29.932Z" fill="#FFB27D"/>
<path d="M313.621 88.5891C313.621 88.5891 314.025 93.2311 315.203 94.8295C316.381 96.4279 318.77 97.3 320.127 96.8159C321.483 96.3317 318.263 93.7084 318.662 91.6297C319.062 89.5512 319.588 85.2265 316.735 84.9914C313.881 84.756 313.621 88.5891 313.621 88.5891Z" fill="#FFB27D"/>
<path d="M313.727 86.9618C313.727 86.9618 313.473 90.0788 313.15 91.2024C312.827 92.3258 314.688 90.2844 314.998 89.226C315.308 88.1679 313.727 86.9618 313.727 86.9618Z" fill="#FFB27D"/>
<path d="M258.376 59.4364C263.745 67.5952 272.901 68.9446 276.624 69.1468C277.384 69.1862 277.916 69.1799 278.145 69.1735L278.252 69.1705L278.061 64.8327C278.029 64.8366 276.837 64.8729 275.067 64.6245L275.064 64.6246C271.494 64.1227 265.567 62.4683 262.001 57.047C257.074 49.5591 262.488 41.9393 263.191 41.0105C261.37 40.9923 259.577 41.0947 257.935 41.2597C255.629 45.766 254.033 52.8382 258.376 59.4364Z" fill="#D86036"/>
<path d="M237.942 45.4711C237.942 45.4711 226.842 50.0468 228.03 64.72C228.03 64.72 225.253 64.4912 224.16 62.4878C224.16 62.4878 223.977 49.2277 235.47 43.7869C236.136 43.4716 238.799 41.9478 238.799 41.9478L239.085 42.5688C239.085 42.5688 239.473 44.2409 239.442 44.4622C239.411 44.6836 237.942 45.4711 237.942 45.4711Z" fill="#D86036"/>
<path d="M251 43.1461C249.439 41.027 247.712 37.7247 246.409 33.3279L245.809 33.6451L235.721 38.9912C235.721 38.9912 236.979 42.2933 237.942 45.4708C237.95 45.4972 237.958 45.5236 237.966 45.5499C240.957 55.3188 252.296 44.9052 251 43.1461Z" fill="#FFB27D"/>
<path d="M235.721 38.9906C235.721 38.9906 235.721 38.9906 236.913 42.3028C242.864 40.3305 245.421 37.0697 245.809 33.6445L235.721 38.9906Z" fill="#E8945B"/>
<path d="M230.887 39.3131C230.887 39.3131 245.474 41.4922 246.716 32.5258C247.959 23.5594 250.678 17.8022 241.417 16.0317C232.156 14.2612 229.868 17.44 228.715 20.3337C227.561 23.2275 227.124 38.5152 230.887 39.3131Z" fill="#FFB27D"/>
<path d="M251.762 14.8167C251.892 14.6634 252.195 14.5368 252.873 14.4907C252.873 14.4907 252.326 14.1593 251.601 14.1512C251.446 13.2103 250.921 11.548 249.292 11.1646C249.292 11.1646 250.171 11.6175 250.299 12.6186C248.392 10.714 244.344 9.36449 233.202 10.3995C218.519 11.7635 223.494 21.1082 225.412 22.2039C227.331 23.2994 232.079 20.1572 235.628 20.3894C239.178 20.6218 239.923 25.7359 241.136 26.4223C242.348 27.1088 241.858 25.8723 243.476 25.1139C245.093 24.3558 245.285 27.0505 244.839 28.8103C244.393 30.5702 246.662 32.8521 246.662 32.8521C246.662 32.8521 246.662 32.8521 248.888 30.3871C251.114 27.922 253.101 17.5842 252.043 15.401C251.95 15.2083 251.857 15.0131 251.762 14.8167Z" fill="#2C3A64"/>
</g>
<defs>
<filter id="filter0_d" x="-303.929" y="-25.0879" width="769.503" height="431.255" filterUnits="userSpaceOnUse" color-interpolation-filters="sRGB">
<feFlood flood-opacity="0" result="BackgroundImageFix"/>
<feColorMatrix in="SourceAlpha" type="matrix" values="0 0 0 0 0 0 0 0 0 0 0 0 0 0 0 0 0 0 127 0"/>
<feOffset dx="-1" dy="-10"/>
<feGaussianBlur stdDeviation="14"/>
<feColorMatrix type="matrix" values="0 0 0 0 0 0 0 0 0 0 0 0 0 0 0 0 0 0 0.1 0"/>
<feBlend mode="normal" in2="BackgroundImageFix" result="effect1_dropShadow"/>
<feBlend mode="normal" in="SourceGraphic" in2="effect1_dropShadow" result="shape"/>
</filter>
<linearGradient id="paint0_linear" x1="315.605" y1="0.642578" x2="315.605" y2="227.186" gradientUnits="userSpaceOnUse">
<stop stop-color="#4F4F4F"/>
<stop offset="1" stop-color="#363636"/>
</linearGradient>
<linearGradient id="paint1_linear" x1="175.334" y1="0" x2="175.334" y2="254.067" gradientUnits="userSpaceOnUse">
<stop stop-color="#4F4F4F"/>
<stop offset="1" stop-color="#363636"/>
</linearGradient>
</defs>
</svg>
