<svg width="376" height="316" viewBox="0 0 376 316" fill="none" xmlns="http://www.w3.org/2000/svg">
<rect x="-44.1543" y="0.386719" width="464.081" height="314.999" rx="20" fill="url(#paint0_linear)"/>
<mask id="mask0" mask-type="alpha" maskUnits="userSpaceOnUse" x="-2" y="20" width="380" height="296">
<path d="M-1.27026 20.5254H377.043V315.385H-1.27026V20.5254Z" fill="white"/>
</mask>
<g mask="url(#mask0)">
<g filter="url(#filter0_d)">
<path d="M25.968 233.976L-16.1739 291.034C-25.5646 303.749 -17.1901 321.819 -1.41876 322.872L397.713 349.526C408.879 350.272 418.484 341.712 419.023 330.534L434.702 5.33887C435.174 -4.43719 424.884 -11.0566 416.183 -6.57479C414.584 -5.75083 413.177 -4.59669 412.057 -3.18866L268.786 176.871C259.671 188.326 241.742 186.429 235.226 173.32L216.551 135.749L203.687 108.622C196.507 93.4798 175.004 93.3535 167.647 108.41L112.799 220.649C109.065 228.29 100.907 232.734 92.4617 231.727L44.4237 225.999C37.2852 225.148 30.2391 228.194 25.968 233.976Z" fill="#2ADF91"/>
</g>
</g>
<mask id="mask1" mask-type="alpha" maskUnits="userSpaceOnUse" x="80" y="22" width="304" height="294">
<path d="M80.5005 22.6094H383.054V315.357C264.899 315.357 198.655 315.357 80.5005 315.357V22.6094Z" fill="#C4C4C4"/>
</mask>
<g mask="url(#mask1)">
<path d="M276.21 152.545C276.21 152.545 260.688 183.598 244.921 205.034C238.647 213.565 232.334 220.572 226.946 223.494C221.672 226.353 217.208 230.796 213.513 235.719C203.945 248.467 199.529 264.426 199.529 264.426L159.21 203.428C159.21 203.428 160.586 143.802 165.427 133.828C172.483 119.294 175.891 89.9266 178.601 84.0801C180.612 79.7429 186.355 57.3392 186.906 55.6929C187.145 54.9834 189.056 53.8958 191.537 53.8977C193.528 53.8977 196.909 55.8223 197.761 59.7774C202.073 79.7683 196.883 92.9545 196.942 93.5404C198.463 108.904 193.891 120.309 197.097 123.329C197.216 123.441 197.438 123.388 197.752 123.188C203.31 119.619 237.808 69.3239 242.057 68.2382C246.545 67.0938 276.21 152.545 276.21 152.545Z" fill="#FFB27D"/>
<path d="M211.659 252.354C211.659 252.354 211.11 279.46 209.538 315.968L99.9488 327.114C123.196 277.54 151.294 224.67 151.294 224.67C151.294 224.67 209.202 226.439 211.659 252.354Z" fill="#F99746"/>
<path d="M311.462 47.4523L298.976 65.7562L286.724 83.7188C285.977 84.6202 285.112 84.9336 284.177 84.8434C281.236 84.5644 277.599 80.3238 274.764 77.9761L274.476 77.7401C270.738 74.6476 270.21 69.0592 273.302 65.3228L292.029 42.6861V42.6839L297.583 35.971C300.676 32.2324 306.264 31.7046 310.001 34.797L310.288 35.0331C314.026 38.1256 314.554 43.7139 311.462 47.4523Z" fill="#FFB27D"/>
<path d="M186.625 56.6204L183.358 69.8093C183.358 69.8093 186.214 70.9777 188.048 70.0705C189.882 69.1633 191.378 57.3305 186.625 56.6204Z" fill="#FFC197"/>
<path d="M280.573 211.266H210.325C203.415 211.266 197.762 205.612 197.762 198.703V44.2936C197.762 37.3838 203.415 31.7305 210.325 31.7305H280.573C287.483 31.7305 293.136 37.384 293.136 44.2936V198.703C293.136 205.612 287.483 211.266 280.573 211.266Z" fill="#2B478B"/>
<path d="M288.409 45.4833V196.313C288.409 201.43 284.253 205.616 279.175 205.616H211.723C206.645 205.616 202.49 201.43 202.49 196.313V45.4833C202.49 40.3664 206.645 36.1809 211.723 36.1809H279.175C284.253 36.1809 288.409 40.3662 288.409 45.4833Z" fill="#C0D8FB"/>
<path d="M279.175 36.1809L212.557 205.616H211.723C206.645 205.616 202.49 201.43 202.49 196.313V45.4833C202.49 40.3664 206.645 36.1809 211.723 36.1809H279.175Z" fill="#CBE1FD"/>
<path d="M259.545 41.7898H231.354C229.057 41.7898 227.178 39.911 227.178 37.6147V36.9582C227.178 34.6618 229.057 32.783 231.354 32.783H259.545C261.841 32.783 263.72 34.6618 263.72 36.9582V37.6147C263.72 39.911 261.841 41.7898 259.545 41.7898Z" fill="#2B478B"/>
<path d="M305.246 116.574L303.384 117.282L290.864 122.04C290.57 122.151 290.273 122.247 289.976 122.321C285.83 123.399 281.419 121.189 279.864 117.098L279.681 116.617C278.015 112.232 280.238 107.282 284.623 105.616L296.296 101.18L297.144 100.858L299.006 100.15C303.39 98.484 308.339 100.708 310.005 105.092L310.188 105.573C311.854 109.958 309.631 114.908 305.246 116.574Z" fill="#FFB27D"/>
<path d="M295.078 116.862C292.989 117.654 289.206 119.059 287.182 119.35C286.61 119.432 285.555 119.121 284.571 118.043C283.981 117.398 283.416 116.478 282.997 115.203C282.8 114.603 282.637 114.006 282.569 113.39C282.491 112.669 282.511 111.948 282.637 111.234C282.752 110.591 283.191 110.005 283.832 109.696C283.834 109.694 283.839 109.694 283.841 109.692C285.993 108.664 288.892 107.412 291.435 106.714C293.192 106.229 294.971 107.005 295.527 108.543L295.79 109.262L297.133 112.942C297.689 114.47 296.785 116.219 295.078 116.862Z" fill="#FFD3B6"/>
<path d="M295.079 116.862C292.989 117.653 289.206 119.059 287.183 119.349C286.611 119.432 285.556 119.12 284.572 118.042C284.467 117.798 284.37 117.539 284.279 117.262C284.082 116.662 283.919 116.065 283.851 115.449C283.773 114.729 283.793 114.008 283.919 113.294C284.034 112.65 284.473 112.065 285.114 111.756C285.116 111.753 285.121 111.753 285.123 111.751C287.274 110.724 290.174 109.472 292.717 108.774C293.843 108.462 294.976 108.668 295.79 109.261L297.134 112.941C297.69 114.47 296.786 116.218 295.079 116.862Z" fill="#FFC197"/>
<path d="M299.565 134.178L289.91 136.806C286.976 137.605 283.922 135.858 283.123 132.924L282.825 131.831C282.027 128.897 283.774 125.843 286.708 125.045L296.363 122.416C299.297 121.617 302.351 123.364 303.149 126.298L303.447 127.391C304.246 130.325 302.499 133.379 299.565 134.178Z" fill="#FFB27D"/>
<path d="M294.344 133.704C292.57 134.177 289.364 135.013 287.684 135.104C287.073 135.139 285.849 134.621 285.05 133.015C284.853 132.626 284.686 132.175 284.556 131.653C284.439 131.179 284.35 130.71 284.341 130.234C284.329 129.674 284.4 129.122 284.556 128.582C284.695 128.094 285.1 127.673 285.647 127.479C285.652 127.476 285.654 127.476 285.656 127.474C287.497 126.824 289.968 126.048 292.106 125.675C293.582 125.417 294.983 126.126 295.328 127.344L295.578 128.213L296.321 130.825C296.665 132.033 295.793 133.319 294.344 133.704Z" fill="#FFD3B6"/>
<path d="M294.344 133.704C292.571 134.177 289.364 135.013 287.684 135.104C287.073 135.139 285.849 134.622 285.05 133.015C284.943 132.573 284.865 132.131 284.856 131.683C284.844 131.125 284.915 130.571 285.071 130.031C285.21 129.545 285.615 129.122 286.162 128.927C286.167 128.925 286.169 128.925 286.172 128.923C288.012 128.273 290.483 127.497 292.621 127.126C293.843 126.911 295.015 127.362 295.578 128.213L296.322 130.825C296.665 132.033 295.793 133.319 294.344 133.704Z" fill="#FFC197"/>
<path d="M215.283 272.736C207.565 274.318 190.929 268.255 190.929 268.255L193.612 242.338L174.813 263.868C165.246 260.308 150.284 251.017 141.394 245.236C136.968 242.356 134.047 240.348 134.047 240.348C146.591 220.161 159.211 201.281 159.211 201.281C162.914 208.69 171.681 215.124 181.184 220.27C196.976 228.824 214.801 233.821 214.801 233.821C214.796 249.223 215.283 272.736 215.283 272.736Z" fill="#DCEAFF"/>
<path d="M304.942 98.0696C304.873 98.0947 304.804 98.1176 304.733 98.1406L292.075 101.39C286.509 102.821 280.753 99.809 279.284 94.6984L278.531 92.0801C277.119 87.1734 280.153 82.0422 285.326 80.3785L289.505 79.3051L297.984 77.1286C303.55 75.6982 309.306 78.7101 310.775 83.8205L311.528 86.4386C312.92 91.2793 309.986 96.3347 304.942 98.0696Z" fill="#FFB27D"/>
<path d="M299.141 94.5358L292.991 97.3073C292.982 97.3095 292.97 97.3118 292.952 97.3165C292.705 97.383 292.456 97.4332 292.208 97.4699C292.105 97.4859 292 97.4973 291.897 97.5088C291.854 97.5133 291.81 97.5133 291.767 97.5111C291.089 97.4882 290.625 96.7695 290.918 96.1288C291.499 94.8631 291.657 93.3985 291.266 91.9589L291.119 91.4234C291.119 91.4188 291.117 91.4119 291.115 91.4073L290.638 89.6611C290.261 88.2696 289.458 87.1046 288.409 86.2625C288.284 86.1596 288.153 86.0635 288.02 85.9719C286.805 85.1296 287.114 83.2232 288.538 82.8273C288.551 82.8228 288.563 82.8205 288.576 82.816L295.326 81.7953C296.994 81.3421 298.601 82.6261 299.056 84.2945L299.598 86.2835L300.752 90.5242C301.205 92.1944 300.809 94.0827 299.141 94.5358Z" fill="#FFD3B6"/>
<path d="M299.141 94.5359L292.991 97.3073C292.982 97.3096 292.97 97.3119 292.952 97.3166C292.808 97.344 292.357 97.4195 291.767 97.5111C291.089 97.4883 290.625 96.7696 290.918 96.1289C291.499 94.8632 291.657 93.3986 291.266 91.9589L291.119 91.4235C291.119 91.4189 291.117 91.4119 291.115 91.4074L290.639 89.6612C290.261 88.2697 289.458 87.1047 288.409 86.2626C288.627 85.9445 288.952 85.6928 289.378 85.5736C289.389 85.5691 289.403 85.5668 289.417 85.5623L296.166 84.5415C297.571 84.1594 298.93 85.0107 299.599 86.2832L300.752 90.524C301.205 92.1945 300.809 94.0827 299.141 94.5359Z" fill="#FFC197"/>
<path d="M163.537 124.65H259.442C262.771 124.65 265.47 121.951 265.47 118.621V80.2115C265.47 76.8821 262.771 74.1831 259.442 74.1831H163.537C160.208 74.1831 157.509 76.882 157.509 80.2115V118.622C157.509 121.951 160.208 124.65 163.537 124.65Z" fill="#2ADF91"/>
<path d="M260.114 67.792H222.576C219.791 67.792 217.533 65.5342 217.533 62.7493V55.6296C217.533 52.8446 219.791 50.5869 222.576 50.5869H260.114C262.899 50.5869 265.157 52.8446 265.157 55.6296V62.7491C265.157 65.5342 262.899 67.792 260.114 67.792Z" fill="#9ABFF6"/>
<path d="M258.468 193.934H215.191C211.856 193.934 209.152 191.23 209.152 187.896V178.747C209.152 175.412 211.856 172.708 215.191 172.708H258.468C261.803 172.708 264.507 175.412 264.507 178.747V187.896C264.507 191.23 261.803 193.934 258.468 193.934Z" fill="#9ABFF6"/>
<path d="M275.289 163.913H234.403C230.408 163.913 227.169 160.674 227.169 156.678V140.68C227.169 136.685 230.408 133.446 234.403 133.446H275.289C279.284 133.446 282.523 136.685 282.523 140.68V156.678C282.523 160.674 279.284 163.913 275.289 163.913Z" fill="#F99746"/>
<path d="M390.879 315.98H316.293C312.716 313.582 294.142 300.913 286.456 291.467C284.828 289.465 278.87 272.215 274.292 258.209C271.434 249.461 269.112 241.974 268.72 240.258C268.584 239.66 268.493 238.474 268.438 236.87V236.853C268.243 231.125 268.509 220.08 268.783 211.306L268.785 211.265L268.79 211.15C268.803 210.764 268.814 210.385 268.827 210.009V209.996C268.829 209.959 268.829 209.92 268.83 209.883C268.881 208.359 268.929 206.922 268.975 205.616C269.09 202.35 269.187 199.894 269.228 198.933L269.244 198.485C269.244 198.485 269.246 198.485 269.247 198.484C269.365 198.417 272.953 196.503 277.749 199.957C278.906 200.792 279.976 202.809 280.952 205.44C281.577 207.12 282.162 209.049 282.706 211.082C284.801 218.901 286.304 228.249 287.107 230.752C288.4 234.797 303.649 252.585 304.603 253.691C304.617 253.711 304.633 253.728 304.648 253.746V225.655L293.136 194.852L288.41 182.207L286.035 175.851C286.035 175.851 282.392 169.871 279.336 162.676C277.999 159.527 276.773 156.147 276.014 152.934C275.833 152.169 275.679 151.411 275.556 150.671C275.556 150.669 275.556 150.669 275.556 150.667C275.106 147.952 275.075 145.432 275.7 143.382C276.814 139.729 279.323 139.042 281.251 139.116C281.45 139.123 281.643 139.14 281.829 139.161C282.018 139.184 282.204 139.22 282.384 139.268C282.723 139.358 283.044 139.494 283.342 139.667C283.345 139.667 283.345 139.669 283.347 139.671C283.841 139.959 284.268 140.356 284.599 140.841C284.599 140.841 286.226 142.967 288.41 145.823C289.846 147.704 291.525 149.901 293.136 152.018C296.005 155.791 298.671 159.31 299.404 160.341C303.364 165.917 314.029 184.086 314.029 184.086L326.512 184.609C328.49 184.692 330.372 185.48 331.818 186.83C336.257 190.976 345.827 199.946 347.001 201.28C347.001 201.717 354.438 205.294 360.183 208.478C364.293 210.215 372.099 216.369 372.099 216.369C373.717 217.797 374.949 219.219 375.573 220.578C378.25 226.403 385.51 277.064 388.981 302.109C390.097 310.16 390.822 315.563 390.879 315.98Z" fill="#FFB27D"/>
<path d="M314.029 184.085C314.029 184.085 325.593 202.962 327.124 203.813C328.654 204.663 334.607 205.853 335.287 203.813C335.967 201.772 314.029 184.085 314.029 184.085Z" fill="#EFA26F"/>
<path d="M372.157 216.42C372.137 216.403 372.118 216.386 372.099 216.368C372.099 216.368 364.292 210.214 360.183 208.478C354.908 205.554 348.208 202.3 347.146 201.449C348.371 202.849 356.983 212.596 360.297 213.326C363.208 213.968 369.818 215.775 372.157 216.42Z" fill="#EFA26F"/>
<path d="M280.434 150.663C279.458 148.989 277.711 145.956 277.11 144.259C276.94 143.779 276.962 142.819 277.552 141.796C277.905 141.182 278.461 140.546 279.303 139.978C279.699 139.711 280.099 139.474 280.532 139.315C281.038 139.132 281.564 139.033 282.104 139.025C282.592 139.02 283.101 139.304 283.448 139.806C283.45 139.808 283.451 139.812 283.453 139.813C284.612 141.501 286.077 143.798 287.073 145.877C287.763 147.314 287.545 148.973 286.54 149.701L286.071 150.045L283.667 151.799C282.669 152.526 281.229 152.03 280.434 150.663Z" fill="#FFD3B6"/>
<path d="M280.434 150.662C279.458 148.989 277.711 145.956 277.11 144.258C276.94 143.779 276.962 142.819 277.552 141.795C277.709 141.665 277.877 141.54 278.06 141.417C278.456 141.15 278.857 140.913 279.289 140.754C279.795 140.57 280.321 140.471 280.862 140.464C281.349 140.458 281.858 140.742 282.205 141.245C282.207 141.246 282.208 141.25 282.21 141.252C283.369 142.94 284.834 145.237 285.83 147.316C286.273 148.236 286.342 149.246 286.071 150.045L283.667 151.799C282.669 152.526 281.229 152.03 280.434 150.662Z" fill="#FFC197"/>
<path d="M199.001 97.5123C199.001 101.105 197.792 104.414 195.754 107.055C195.078 107.932 194.311 108.735 193.468 109.449C190.742 111.762 187.213 113.155 183.358 113.155C179.854 113.155 176.622 112.005 174.014 110.059C172.864 109.203 171.837 108.19 170.962 107.055C168.924 104.414 167.715 101.105 167.715 97.5123C167.715 88.872 174.717 81.8691 183.358 81.8691C191.998 81.8691 199.001 88.872 199.001 97.5123Z" fill="white"/>
<path d="M227.483 89.6321H209.714C209.097 89.6321 208.593 89.128 208.593 88.5118V87.9774C208.593 87.3614 209.097 86.8572 209.714 86.8572H227.483C228.099 86.8572 228.604 87.3612 228.604 87.9774V88.5118C228.604 89.1279 228.099 89.6321 227.483 89.6321Z" fill="white"/>
<path d="M227.7 99.6066H209.498C209.001 99.6066 208.594 99.1995 208.594 98.7021C208.594 98.2047 209.001 97.7976 209.498 97.7976H227.7C228.197 97.7976 228.604 98.2047 228.604 98.7021C228.604 99.1995 228.197 99.6066 227.7 99.6066Z" fill="white"/>
<path d="M219.642 103.887H209.286C208.905 103.887 208.593 103.576 208.593 103.194V102.771C208.593 102.39 208.905 102.078 209.286 102.078H219.642C220.023 102.078 220.334 102.39 220.334 102.771V103.194C220.334 103.576 220.023 103.887 219.642 103.887Z" fill="white"/>
<path d="M240.746 103.887H224.013C223.535 103.887 223.144 103.496 223.144 103.018V102.947C223.144 102.469 223.535 102.078 224.013 102.078H240.746C241.224 102.078 241.615 102.469 241.615 102.947V103.018C241.616 103.496 241.224 103.887 240.746 103.887Z" fill="white"/>
<path d="M256.38 99.6063H232.515C232.017 99.6063 231.61 99.1992 231.61 98.7018C231.61 98.2044 232.017 97.7974 232.515 97.7974H256.38C256.878 97.7974 257.285 98.2044 257.285 98.7018C257.285 99.1992 256.878 99.6063 256.38 99.6063Z" fill="white"/>
<path d="M227.699 108.169H209.497C209 108.169 208.593 107.762 208.593 107.264C208.593 106.767 209 106.36 209.497 106.36H227.699C228.196 106.36 228.603 106.767 228.603 107.264C228.603 107.762 228.196 108.169 227.699 108.169Z" fill="white"/>
<path d="M256.38 108.169H232.515C232.017 108.169 231.61 107.762 231.61 107.264C231.61 106.767 232.017 106.36 232.515 106.36H256.38C256.878 106.36 257.285 106.767 257.285 107.264C257.285 107.762 256.878 108.169 256.38 108.169Z" fill="white"/>
<path d="M244.805 89.6319H232.042C231.514 89.6319 231.082 89.2 231.082 88.6723V87.8166C231.082 87.2889 231.514 86.8572 232.042 86.8572H244.805C245.332 86.8572 245.764 87.2891 245.764 87.8166V88.6723C245.764 89.2 245.332 89.6319 244.805 89.6319Z" fill="white"/>
<path d="M228.713 178.739H216.08C215.641 178.739 215.283 178.381 215.283 177.942V177.563C215.283 177.125 215.641 176.766 216.08 176.766H228.713C229.151 176.766 229.51 177.125 229.51 177.563V177.942C229.51 178.381 229.151 178.739 228.713 178.739Z" fill="#699DEE"/>
<path d="M228.866 183.789H215.926C215.572 183.789 215.283 183.5 215.283 183.146C215.283 182.792 215.572 182.503 215.926 182.503H228.866C229.22 182.503 229.509 182.792 229.509 183.146C229.509 183.5 229.22 183.789 228.866 183.789Z" fill="#699DEE"/>
<path d="M223.137 186.833H215.775C215.504 186.833 215.282 186.611 215.282 186.34V186.039C215.282 185.768 215.504 185.547 215.775 185.547H223.137C223.408 185.547 223.63 185.768 223.63 186.039V186.34C223.63 186.611 223.408 186.833 223.137 186.833Z" fill="#699DEE"/>
<path d="M238.142 186.833H226.245C225.905 186.833 225.627 186.555 225.627 186.215V186.165C225.627 185.825 225.905 185.547 226.245 185.547H238.142C238.482 185.547 238.76 185.825 238.76 186.165V186.215C238.76 186.555 238.482 186.833 238.142 186.833Z" fill="#699DEE"/>
<path d="M249.258 183.789H232.29C231.936 183.789 231.647 183.5 231.647 183.146C231.647 182.792 231.936 182.503 232.29 182.503H249.258C249.611 182.503 249.901 182.792 249.901 183.146C249.901 183.5 249.611 183.789 249.258 183.789Z" fill="#699DEE"/>
<path d="M228.866 189.877H215.925C215.572 189.877 215.282 189.587 215.282 189.234C215.282 188.88 215.572 188.591 215.925 188.591H228.866C229.22 188.591 229.509 188.88 229.509 189.234C229.509 189.587 229.22 189.877 228.866 189.877Z" fill="#699DEE"/>
<path d="M249.258 189.877H232.29C231.936 189.877 231.647 189.587 231.647 189.234C231.647 188.88 231.936 188.591 232.29 188.591H249.258C249.611 188.591 249.901 188.88 249.901 189.234C249.901 189.587 249.611 189.877 249.258 189.877Z" fill="#699DEE"/>
<path d="M241.028 178.739H231.954C231.579 178.739 231.271 178.432 231.271 178.057V177.449C231.271 177.073 231.579 176.766 231.954 176.766H241.028C241.403 176.766 241.71 177.073 241.71 177.449V178.057C241.71 178.432 241.403 178.739 241.028 178.739Z" fill="#699DEE"/>
<path d="M237.094 55.8784H224.461C224.023 55.8784 223.664 55.5199 223.664 55.0819V54.702C223.664 54.264 224.023 53.9055 224.461 53.9055H237.094C237.532 53.9055 237.891 54.264 237.891 54.702V55.0819C237.891 55.5199 237.532 55.8784 237.094 55.8784Z" fill="#699DEE"/>
<path d="M237.248 60.9289H224.307C223.953 60.9289 223.664 60.6396 223.664 60.286C223.664 59.9322 223.953 59.6428 224.307 59.6428H237.248C237.601 59.6428 237.891 59.9322 237.891 60.286C237.891 60.6396 237.601 60.9289 237.248 60.9289Z" fill="#699DEE"/>
<path d="M231.518 63.9726H224.156C223.885 63.9726 223.663 63.7509 223.663 63.4799V63.179C223.663 62.9081 223.885 62.6863 224.156 62.6863H231.518C231.789 62.6863 232.011 62.9079 232.011 63.179V63.4799C232.011 63.7509 231.789 63.9726 231.518 63.9726Z" fill="#699DEE"/>
<path d="M246.523 63.9724H234.626C234.287 63.9724 234.009 63.6944 234.009 63.3545V63.3041C234.009 62.9643 234.287 62.6863 234.626 62.6863H246.523C246.863 62.6863 247.141 62.9643 247.141 63.3041V63.3545C247.141 63.6944 246.863 63.9724 246.523 63.9724Z" fill="#699DEE"/>
<path d="M257.638 60.9287H240.671C240.317 60.9287 240.028 60.6393 240.028 60.2857C240.028 59.932 240.317 59.6426 240.671 59.6426H257.638C257.992 59.6426 258.281 59.932 258.281 60.2857C258.281 60.6393 257.992 60.9287 257.638 60.9287Z" fill="#699DEE"/>
<path d="M249.409 55.8785H240.335C239.959 55.8785 239.652 55.5714 239.652 55.1963V54.588C239.652 54.2128 239.959 53.9058 240.335 53.9058H249.409C249.784 53.9058 250.091 54.2128 250.091 54.588V55.1963C250.091 55.5714 249.784 55.8785 249.409 55.8785Z" fill="#699DEE"/>
<path d="M248.262 141.19H234.431C233.951 141.19 233.559 140.798 233.559 140.318V139.902C233.559 139.423 233.951 139.03 234.431 139.03H248.262C248.742 139.03 249.134 139.423 249.134 139.902V140.318C249.134 140.797 248.742 141.19 248.262 141.19Z" fill="#ED7D2B"/>
<path d="M248.429 146.72H234.262C233.874 146.72 233.558 146.403 233.558 146.016C233.558 145.629 233.874 145.312 234.262 145.312H248.429C248.816 145.312 249.133 145.629 249.133 146.016C249.133 146.403 248.816 146.72 248.429 146.72Z" fill="#ED7D2B"/>
<path d="M242.157 150.051H234.097C233.8 150.051 233.558 149.808 233.558 149.512V149.182C233.558 148.886 233.8 148.643 234.097 148.643H242.157C242.454 148.643 242.696 148.886 242.696 149.182V149.512C242.696 149.808 242.454 150.051 242.157 150.051Z" fill="#ED7D2B"/>
<path d="M258.584 150.051H245.56C245.188 150.051 244.883 149.747 244.883 149.375V149.319C244.883 148.948 245.188 148.643 245.56 148.643H258.584C258.956 148.643 259.261 148.948 259.261 149.319V149.375C259.261 149.747 258.956 150.051 258.584 150.051Z" fill="#ED7D2B"/>
<path d="M270.753 146.718H252.177C251.79 146.718 251.473 146.402 251.473 146.014C251.473 145.627 251.79 145.311 252.177 145.311H270.753C271.14 145.311 271.457 145.627 271.457 146.014C271.457 146.402 271.14 146.718 270.753 146.718Z" fill="#ED7D2B"/>
<path d="M248.428 153.383H234.261C233.874 153.383 233.557 153.066 233.557 152.679C233.557 152.292 233.874 151.975 234.261 151.975H248.428C248.816 151.975 249.133 152.292 249.133 152.679C249.133 153.066 248.816 153.383 248.428 153.383Z" fill="#ED7D2B"/>
<path d="M270.753 153.383H252.177C251.79 153.383 251.473 153.066 251.473 152.679C251.473 152.292 251.79 151.975 252.177 151.975H270.753C271.14 151.975 271.457 152.292 271.457 152.679C271.457 153.066 271.14 153.383 270.753 153.383Z" fill="#ED7D2B"/>
<path d="M248.428 156.852H234.261C233.874 156.852 233.557 156.535 233.557 156.148C233.557 155.761 233.874 155.444 234.261 155.444H248.428C248.816 155.444 249.133 155.761 249.133 156.148C249.133 156.535 248.816 156.852 248.428 156.852Z" fill="#ED7D2B"/>
<path d="M270.753 156.851H252.177C251.79 156.851 251.473 156.535 251.473 156.147C251.473 155.76 251.79 155.443 252.177 155.443H270.753C271.14 155.443 271.457 155.76 271.457 156.147C271.457 156.535 271.14 156.851 270.753 156.851Z" fill="#ED7D2B"/>
<path d="M261.743 141.189H251.809C251.398 141.189 251.062 140.853 251.062 140.442V139.776C251.062 139.365 251.398 139.029 251.809 139.029H261.743C262.154 139.029 262.49 139.365 262.49 139.776V140.442C262.49 140.853 262.154 141.189 261.743 141.189Z" fill="#ED7D2B"/>
<path d="M215.497 45.6153L214.535 46.305L213.569 45.6228C213.783 45.3216 214.137 45.1223 214.535 45.1223C214.931 45.1223 215.282 45.3165 215.497 45.6153Z" fill="white"/>
<path d="M214.535 43.4412C213.569 43.4412 212.714 43.9227 212.197 44.6571L212.807 45.0851C213.191 44.542 213.823 44.1885 214.535 44.1885C215.242 44.1885 215.871 44.5371 216.254 45.0721L216.862 44.636C216.341 43.9113 215.492 43.4412 214.535 43.4412Z" fill="white"/>
<path d="M214.535 40.2456C212.491 40.2456 210.683 41.2621 209.587 42.8169L210.199 43.2449C211.158 41.8847 212.746 40.993 214.535 40.993C216.311 40.993 217.888 41.8701 218.851 43.2124L219.456 42.7763C218.358 41.2443 216.564 40.2456 214.535 40.2456Z" fill="white"/>
<path d="M214.535 41.9951C213.081 41.9951 211.792 42.7149 211.007 43.8174L211.617 44.2454C212.267 43.3375 213.332 42.7425 214.535 42.7425C215.728 42.7425 216.787 43.3278 217.439 44.2227L218.043 43.7898C217.257 42.702 215.978 41.9951 214.535 41.9951Z" fill="white"/>
<path d="M209.139 147.435C209.139 148.846 209.614 150.145 210.414 151.182C210.68 151.528 210.982 151.842 211.313 152.122C211.642 152.403 212 152.646 212.382 152.852C213.247 153.316 214.233 153.58 215.282 153.58C216.594 153.58 217.807 153.168 218.804 152.47C218.855 152.435 218.904 152.399 218.953 152.363C219.404 152.026 219.808 151.629 220.152 151.182C220.953 150.145 221.427 148.846 221.427 147.435C221.427 144.042 218.677 141.291 215.282 141.291C211.889 141.291 209.139 144.042 209.139 147.435Z" fill="white"/>
<path d="M216.946 151.376L216.38 150.875C216.333 150.885 216.286 150.893 216.239 150.901C216.137 150.83 216.025 150.76 215.908 150.695C215.946 150.466 215.977 150.254 216.002 150.066C216.088 149.408 216.098 149.01 216.098 148.949C216.398 148.934 216.601 148.902 216.601 148.902C217.168 148.771 217.196 146.833 217.064 145.823C217.171 145.825 217.275 145.81 217.38 145.763C217.81 145.574 217.834 144.923 217.834 144.923C217.834 144.923 217.709 145.155 217.526 145.23C217.526 145.23 218.245 144.246 217.411 143.573C216.581 142.898 215.733 143.339 215.25 143.369C214.19 143.434 213.504 143.497 213.159 144.194C212.817 144.881 212.951 146.772 213.606 147.467C213.618 147.532 213.629 147.595 213.637 147.66C213.676 147.91 213.767 148.114 213.896 148.278C213.749 149.092 213.413 149.7 213.112 150.103C212.908 150.262 212.721 150.466 212.548 150.711C212.543 150.714 212.536 150.719 212.536 150.719C212.536 150.719 212.538 150.719 212.541 150.721C212.222 151.175 211.959 151.767 211.748 152.46C211.747 152.464 211.747 152.467 211.745 152.47C212.092 152.715 212.468 152.921 212.865 153.086C212.891 153.098 212.917 153.107 212.943 153.119C212.95 153.12 212.955 153.124 212.961 153.125C213.003 153.143 213.047 153.159 213.089 153.175C213.193 153.216 213.297 153.253 213.402 153.287C213.512 153.323 213.624 153.355 213.736 153.385C213.788 153.398 213.84 153.41 213.892 153.422C213.937 153.433 213.982 153.443 214.029 153.451C214.036 153.453 214.042 153.454 214.049 153.456C214.08 153.462 214.11 153.467 214.141 153.474C214.213 153.487 214.286 153.5 214.359 153.511C214.375 153.513 214.393 153.516 214.409 153.517C214.449 153.524 214.488 153.529 214.529 153.534C214.586 153.54 214.642 153.547 214.699 153.553C214.762 153.56 214.827 153.565 214.892 153.568C214.952 153.573 215.014 153.576 215.075 153.577C215.139 153.579 215.203 153.581 215.268 153.581C215.338 153.581 215.406 153.579 215.476 153.577C215.482 153.577 215.487 153.577 215.494 153.576C215.51 153.576 215.528 153.576 215.544 153.574C215.578 153.574 215.612 153.573 215.646 153.569C215.651 153.568 215.654 153.568 215.659 153.568C215.724 153.565 215.787 153.56 215.852 153.553C216.682 153.475 217.465 153.229 218.167 152.853C217.81 152.242 217.366 151.765 216.946 151.376Z" fill="#699DEE"/>
<path d="M269.462 183.146C269.462 184.567 269.94 185.875 270.746 186.919C271.013 187.266 271.316 187.584 271.65 187.866C272.728 188.781 274.123 189.332 275.648 189.332C277.033 189.332 278.311 188.877 279.342 188.107C279.797 187.769 280.203 187.368 280.549 186.919C281.355 185.875 281.833 184.567 281.833 183.146C281.833 179.729 279.064 176.96 275.648 176.96C272.231 176.96 269.462 179.729 269.462 183.146Z" fill="white"/>
<path d="M278.809 186.652C278.801 186.635 278.791 186.619 278.778 186.605C278.754 186.569 278.72 186.535 278.679 186.502L278.678 186.501C278.6 186.437 278.494 186.381 278.373 186.33C278.368 186.329 278.365 186.327 278.36 186.326C277.823 186.091 277.118 186.014 277.118 186.014C276.917 185.984 276.758 185.964 276.684 185.956C276.476 185.789 276.197 185.126 276.152 184.109L276.153 184.113C276.153 184.113 276.385 183.574 276.692 183.743C277.17 184.004 278.094 182.947 277.799 181.558C277.767 181.409 277.728 181.271 277.685 181.146C277.786 181.188 277.898 181.224 278.003 181.224C278.28 181.224 278.7 180.514 278.757 180.275C278.815 180.037 278.752 179.254 278.371 179.022C278 178.794 277.411 179.056 277.385 179.066C277.575 178.8 278.224 178.853 278.342 178.867C276.828 178.552 276.515 179.523 276.489 179.611C275.526 178.74 274.055 180.245 273.694 180.647C273.67 180.668 273.645 180.691 273.621 180.715C273.538 180.762 273.446 180.841 273.349 180.958C273.159 181.188 273.099 181.482 273.099 181.762C273.099 182.262 273.29 182.724 273.29 182.724C273.378 183.565 273.621 184.608 274.01 184.638C274.01 184.638 274.148 184.64 274.355 184.622C274.355 184.632 274.357 184.64 274.357 184.65C274.363 184.791 274.368 184.95 274.37 185.108V185.204C274.372 185.627 274.346 186.029 274.25 186.08C274.218 186.083 274.19 186.084 274.166 186.088C274.127 186.089 274.054 186.099 274.054 186.099C273.717 186.143 273.477 186.177 273.307 186.206C272.969 186.263 272.885 186.303 272.802 186.368C272.783 186.386 272.763 186.407 272.744 186.43C272.498 186.616 272.045 187.041 271.65 187.866C272.728 188.781 274.124 189.332 275.648 189.332C277.034 189.332 278.311 188.878 279.342 188.108C279.169 187.506 278.989 186.992 278.809 186.652Z" fill="#F99746"/>
<path d="M269.462 58.8206C269.462 60.2411 269.94 61.5496 270.746 62.594C271.013 62.9408 271.316 63.2582 271.65 63.5405C272.728 64.4552 274.123 65.0062 275.648 65.0062C277.033 65.0062 278.311 64.5515 279.342 63.7817C279.797 63.4434 280.203 63.0429 280.549 62.594C281.355 61.5496 281.833 60.2411 281.833 58.8206C281.833 55.4041 279.064 52.635 275.648 52.635C272.231 52.635 269.462 55.4041 269.462 58.8206Z" fill="white"/>
<path d="M278.809 62.3253C278.801 62.309 278.791 62.2945 278.778 62.2782C278.754 62.2426 278.72 62.2085 278.679 62.1761L278.678 62.1745C278.6 62.1129 278.494 62.0561 278.373 62.0043C278.368 62.0026 278.365 62.001 278.36 61.9994C277.823 61.7659 277.118 61.6881 277.118 61.6881V61.6897C276.917 61.6573 276.758 61.6379 276.683 61.6298C276.633 61.5892 276.58 61.5228 276.526 61.4271V61.4255C276.354 61.1239 276.186 60.5565 276.152 59.7832L276.153 59.7864C276.153 59.7864 276.385 59.2498 276.691 59.4168C277.17 59.6778 278.094 58.6224 277.799 57.233C277.766 57.0822 277.727 56.9444 277.685 56.8196C277.786 56.8618 277.898 56.8974 278.003 56.8974C278.28 56.8974 278.7 56.1873 278.757 55.9506C278.815 55.7107 278.752 54.9276 278.371 54.6958C278 54.4688 277.411 54.7298 277.385 54.7412C277.575 54.4753 278.225 54.5288 278.342 54.5402C276.827 54.2256 276.515 55.1984 276.489 55.2843C275.526 54.4153 274.055 55.9198 273.694 56.3203C273.669 56.3413 273.645 56.364 273.621 56.3884C273.538 56.437 273.446 56.5148 273.348 56.6332C273.159 56.8617 273.099 57.1552 273.099 57.4357C273.099 57.9366 273.29 58.397 273.29 58.397C273.377 59.2401 273.621 60.2809 274.01 60.3117C274.01 60.3117 274.148 60.3133 274.355 60.2971C274.355 60.3052 274.357 60.3133 274.357 60.3231C274.363 60.4641 274.368 60.623 274.37 60.7835V60.8791C274.371 61.3023 274.345 61.7027 274.25 61.7546C274.217 61.7562 274.19 61.7595 274.165 61.7611C274.126 61.7643 274.054 61.7724 274.054 61.7724C273.716 61.8162 273.476 61.8502 273.306 61.8794C272.969 61.9378 272.885 61.9767 272.802 62.0415C272.783 62.061 272.763 62.0821 272.744 62.1032C272.497 62.2896 272.045 62.716 271.649 63.5412C271.708 63.5914 271.768 63.6401 271.829 63.6871C271.839 63.6952 271.85 63.7033 271.86 63.7114C271.905 63.7471 271.951 63.7811 271.998 63.8135C272.03 63.8395 272.063 63.8638 272.097 63.8865C272.131 63.9108 272.165 63.9335 272.199 63.9546C272.248 63.9903 272.298 64.0227 272.35 64.0535C272.384 64.0762 272.418 64.0973 272.454 64.1183C272.496 64.1443 272.539 64.1702 272.583 64.1945C272.632 64.2221 272.681 64.2497 272.729 64.2756C272.734 64.2772 272.737 64.2805 272.742 64.2821C272.744 64.2837 272.747 64.2853 272.75 64.2869H272.752C272.758 64.2902 272.767 64.295 272.773 64.2983C272.812 64.3194 272.851 64.3388 272.89 64.3583C272.893 64.3583 272.895 64.3599 272.898 64.3615C272.909 64.368 272.922 64.3745 272.934 64.3793C272.955 64.3907 272.978 64.402 273 64.4118C273.021 64.4215 273.042 64.4312 273.065 64.4426C273.114 64.4653 273.165 64.488 273.216 64.509C273.266 64.5301 273.318 64.5512 273.368 64.5707C273.392 64.5804 273.415 64.5901 273.438 64.5982C273.461 64.6063 273.483 64.616 273.507 64.6242C273.555 64.642 273.603 64.6582 273.65 64.6744C273.701 64.6922 273.749 64.7068 273.799 64.723C273.842 64.736 273.884 64.749 273.926 64.762C273.931 64.7636 273.934 64.7636 273.939 64.7652C273.965 64.7733 273.992 64.7814 274.02 64.7879C274.167 64.8284 274.318 64.8641 274.47 64.8933C274.537 64.9062 274.603 64.9192 274.67 64.9289C274.688 64.9322 274.704 64.9354 274.722 64.937C274.725 64.937 274.73 64.9387 274.733 64.9387C274.735 64.9387 274.738 64.9387 274.739 64.9403C274.783 64.9468 274.824 64.9516 274.869 64.9565C274.879 64.9581 274.887 64.9597 274.897 64.9597C274.903 64.9614 274.91 64.9614 274.916 64.963C274.957 64.9695 274.997 64.9727 275.036 64.976C275.043 64.976 275.051 64.9776 275.057 64.9776C275.069 64.9792 275.082 64.9808 275.095 64.9824C275.167 64.9889 275.239 64.9938 275.312 64.997H275.323C275.346 64.9987 275.367 65.0003 275.391 65.0003C275.406 65.0003 275.419 65.0019 275.433 65.0019C275.505 65.0051 275.576 65.0068 275.647 65.0068C277.033 65.0068 278.311 64.5512 279.342 63.7811C279.169 63.1796 278.989 62.6673 278.809 62.3253Z" fill="#F99746"/>
<path d="M398.236 315.979H317.911C321.939 314.399 337.352 308.51 353.329 304.462C353.355 304.457 353.38 304.451 353.406 304.444C367.128 300.973 381.254 298.869 388.925 302.026L388.98 302.108L398.236 315.979Z" fill="#D2E3FC"/>
<path d="M269.244 198.484L268.784 211.306C268.784 211.306 271.48 211.744 273.013 210.6C274.546 209.456 273.735 198.333 269.244 198.484Z" fill="#FFC197"/>
<path d="M165.444 252.354C167.172 252.354 168.573 250.953 168.573 249.225C168.573 247.496 167.172 246.095 165.444 246.095C163.716 246.095 162.315 247.496 162.315 249.225C162.315 250.953 163.716 252.354 165.444 252.354Z" fill="#F99746"/>
<path fill-rule="evenodd" clip-rule="evenodd" d="M179.798 87.6409H181.651V90.0528C182.241 89.9391 182.859 89.8821 183.506 89.8821C183.901 89.8821 184.285 89.8978 184.66 89.93V87.6362H186.513V90.2407C186.597 90.2626 186.68 90.2852 186.763 90.3089C187.755 90.5935 188.626 91.0825 189.375 91.7762L187.086 94.2739C186.642 93.8159 186.142 93.469 185.587 93.2334C185.032 92.9975 184.338 92.8796 183.506 92.8796C182.812 92.8796 182.184 92.9975 181.622 93.2334C181.061 93.469 180.578 93.7986 180.176 94.222C179.774 94.6453 179.465 95.1484 179.25 95.7309C179.035 96.3136 178.927 96.945 178.927 97.6249C178.927 98.3186 179.035 98.9533 179.25 99.5294C179.465 100.105 179.774 100.605 180.176 101.028C180.578 101.451 181.061 101.781 181.622 102.016C182.184 102.252 182.812 102.37 183.506 102.37C184.214 102.37 184.824 102.291 185.338 102.131C185.851 101.971 186.26 101.808 186.565 101.642V99.2484H183.922V96.2514H189.687V103.952C188.73 104.452 187.731 104.812 186.69 105.034L186.571 105.059V107.208H184.718V105.32C184.317 105.352 183.913 105.367 183.506 105.367C182.858 105.367 182.239 105.31 181.648 105.196V107.264H179.795V104.609C179.044 104.268 178.38 103.824 177.803 103.275C177.095 102.602 176.544 101.787 176.148 100.83C175.753 99.8725 175.555 98.8042 175.555 97.6247C175.555 96.4454 175.753 95.3769 176.148 94.4195C176.544 93.4621 177.095 92.6469 177.803 91.9742C178.38 91.4251 179.045 90.9799 179.798 90.6387V87.6409H179.798Z" fill="#2ADF91"/>
</g>
<defs>
<filter id="filter0_d" x="-49.1145" y="-46.0056" width="510.833" height="413.577" filterUnits="userSpaceOnUse" color-interpolation-filters="sRGB">
<feFlood flood-opacity="0" result="BackgroundImageFix"/>
<feColorMatrix in="SourceAlpha" type="matrix" values="0 0 0 0 0 0 0 0 0 0 0 0 0 0 0 0 0 0 127 0"/>
<feOffset dx="-1" dy="-10"/>
<feGaussianBlur stdDeviation="14"/>
<feColorMatrix type="matrix" values="0 0 0 0 0 0 0 0 0 0 0 0 0 0 0 0 0 0 0.1 0"/>
<feBlend mode="normal" in2="BackgroundImageFix" result="effect1_dropShadow"/>
<feBlend mode="normal" in="SourceGraphic" in2="effect1_dropShadow" result="shape"/>
</filter>
<linearGradient id="paint0_linear" x1="187.886" y1="0.386719" x2="187.886" y2="315.385" gradientUnits="userSpaceOnUse">
<stop stop-color="#4F4F4F"/>
<stop offset="1" stop-color="#363636"/>
</linearGradient>
</defs>
</svg>
