<svg width="100" height="100" viewBox="0 0 100 100" fill="none" xmlns="http://www.w3.org/2000/svg">
<path d="M50 8.33337C33.875 8.33337 20.8334 21.375 20.8334 37.5C20.8334 59.375 50 91.6667 50 91.6667C50 91.6667 79.1667 59.375 79.1667 37.5C79.1667 21.375 66.125 8.33337 50 8.33337Z" fill="#A7D74A"/>
<path d="M50 27.0834C44.2471 27.0834 39.5834 31.7471 39.5834 37.5C39.5834 43.253 44.2471 47.9167 50 47.9167C53.7216 47.9167 57.1604 45.9313 59.0211 42.7084C60.8819 39.4854 60.8819 35.5146 59.0211 32.2917C57.1604 29.0688 53.7216 27.0834 50 27.0834V27.0834Z" fill="white"/>
</svg>
