<svg width="56" height="56" viewBox="0 0 56 56" fill="none" xmlns="http://www.w3.org/2000/svg">
<path d="M30.5433 30.1729C30.5433 28.3721 29.0832 26.9121 27.2825 26.9121C25.4817 26.9121 24.0217 28.3721 24.0217 30.1729C24.0217 31.9736 25.4817 33.4336 27.2825 33.4336C29.0832 33.4336 30.5433 31.9736 30.5433 30.1729ZM27.2825 31.2598C26.6822 31.2598 26.1956 30.7731 26.1956 30.1729C26.1956 29.5726 26.6822 29.086 27.2825 29.086C27.8827 29.086 28.3694 29.5726 28.3694 30.1729C28.3694 30.7731 27.8827 31.2598 27.2825 31.2598Z" fill="#A7D74A"/>
<path d="M51.4989 40.3899L34.8692 30.7839C34.8846 30.5838 34.8962 30.3816 34.8962 30.1698C34.8904 28.3303 34.219 26.5551 33.0053 25.1731C34.2498 22.675 34.8957 19.921 34.8909 17.13C34.8909 9.73912 30.228 3 25.1087 3C24.5084 3 24.0217 3.48667 24.0217 4.08692V23.3155C22.1711 24.1971 20.753 25.7855 20.087 27.7242C17.3039 27.8925 14.5982 28.7066 12.184 30.1024C12.1436 30.1252 12.106 30.1523 12.0656 30.1762C12.0646 24.5925 15.1215 19.4561 20.0307 16.7951L18.9926 14.8855C13.3845 17.9266 9.89178 23.7937 9.89178 30.173C9.89178 30.6576 9.92522 31.1347 9.96449 31.6097C8.89933 32.4519 7.93447 33.4141 7.08956 34.4772C4.95181 24.5091 10.4151 14.4742 19.9479 10.8605L19.1762 8.82893C7.90635 13.1156 1.90971 25.4246 5.48094 36.9413C5.36578 37.1584 5.24424 37.376 5.13969 37.5936C3.73221 40.6022 3.62341 43.5345 4.84089 45.6367C5.14075 46.1562 5.80575 46.3346 6.32585 46.0342L9.36902 44.2748C16.3703 53.2011 28.8715 55.6174 38.6952 49.944L37.6082 48.0637C28.8221 53.1315 17.6557 51.0638 11.2669 43.1858L14.1407 41.5268C18.7867 46.9237 26.2566 48.9378 32.9856 46.6074L32.2734 44.5519C26.5305 46.5453 20.1517 44.9202 16.062 40.4218L22.9858 36.4228C24.2473 37.3006 25.7455 37.7745 27.2825 37.7814C27.7793 37.7756 28.2744 37.7215 28.7606 37.6206C30.2986 39.95 32.3567 41.8898 34.7726 43.2877C37.4172 44.8337 40.4195 45.6627 43.4828 45.6929C43.918 45.6929 44.3527 45.6759 44.7873 45.6388C48.0969 45.3527 50.6906 43.9824 51.9033 41.8781C52.0481 41.6271 52.0869 41.3293 52.011 41.0502C51.9351 40.7705 51.7509 40.5332 51.4989 40.3899ZM26.1956 5.33253C29.4171 6.25227 32.7171 11.0824 32.7171 17.13C32.7219 19.3999 32.24 21.6443 31.3043 23.7125C31.0379 23.5501 30.7624 23.4052 30.478 23.2773C30.4085 23.2449 30.3389 23.2147 30.2694 23.1839C29.986 23.0613 29.6957 22.9557 29.4001 22.8676H29.3889C29.087 22.7838 28.7797 22.7185 28.4692 22.6734C28.3928 22.6612 28.3153 22.65 28.2378 22.6405C27.9215 22.5953 27.602 22.5699 27.2825 22.5646C26.919 22.5646 26.5554 22.5906 26.1956 22.6426V5.33253ZM6.32108 43.5313C6.07641 42.2814 6.17672 40.9881 6.61138 39.7913C7.04658 40.7275 7.54492 41.6329 8.10271 42.5017L6.32108 43.5313ZM9.98306 41.4164C9.11639 40.0811 8.40735 38.6497 7.87026 37.1509C8.56922 36.0433 9.40935 35.0318 10.37 34.1412C10.8391 36.1537 11.6644 38.0659 12.807 39.7881L9.98306 41.4164ZM14.6874 38.6991C13.4497 36.8702 12.6277 34.7924 12.2795 32.6122C12.6022 32.3946 12.9328 32.1866 13.2709 31.9881C15.2335 30.8507 17.4169 30.147 19.6741 29.9241V30.173C19.6772 30.553 19.7096 30.9319 19.7696 31.3066C19.7829 31.3947 19.7956 31.4807 19.812 31.5677C19.8784 31.9313 19.9707 32.2901 20.088 32.6403C20.1024 32.6817 20.122 32.721 20.1369 32.7619C20.2531 33.0787 20.39 33.3865 20.5471 33.6848C20.5858 33.7596 20.623 33.835 20.6644 33.9088C20.8443 34.2277 21.0465 34.5334 21.2694 34.8237C21.2827 34.8412 21.2912 34.8609 21.3044 34.8784L14.6874 38.6991ZM23.7511 34.3031C22.5447 33.2698 21.85 31.7615 21.8479 30.173C21.8479 29.7824 21.8909 29.3923 21.9763 29.0113C22.3802 27.1739 23.706 25.6767 25.4802 25.0526C25.736 24.9629 25.9976 24.8928 26.264 24.844C26.3856 24.8212 26.5087 24.809 26.6313 24.7947C26.7704 24.7777 26.911 24.7644 27.0532 24.758C27.1955 24.7517 27.3541 24.758 27.5043 24.758C27.654 24.758 27.7718 24.7798 27.9056 24.7947C28.2129 24.8307 28.517 24.8928 28.8142 24.9799C28.9055 25.0059 28.9978 25.0255 29.087 25.0568C29.2345 25.1078 29.3757 25.1741 29.5216 25.2373C29.667 25.3004 29.8029 25.37 29.9388 25.4469C30.0476 25.5048 30.1489 25.5642 30.2498 25.6295C30.4966 25.7876 30.7295 25.966 30.9466 26.1623C32.0744 27.1909 32.7171 28.6466 32.7171 30.173C32.7198 30.5068 32.6895 30.8396 32.6269 31.1676C32.2718 33.0766 30.9254 34.6512 29.0944 35.2977C27.2634 35.9446 25.2265 35.5657 23.7511 34.3031ZM44.5952 43.4713C41.543 43.6709 38.5009 42.9512 35.8616 41.4063C33.8969 40.27 32.1975 38.7272 30.8771 36.8813C30.9466 36.8437 31.005 36.7911 31.0735 36.7524C31.3261 36.6064 31.5702 36.4467 31.8043 36.2726C31.903 36.1999 32.0017 36.1282 32.0967 36.0555C32.3758 35.8273 32.6386 35.58 32.8832 35.3152C32.9092 35.287 32.94 35.2632 32.9649 35.2334C33.2308 34.9315 33.4723 34.6088 33.6878 34.2686C33.743 34.1816 33.7886 34.0913 33.8412 34.0032C33.9967 33.7368 34.1363 33.4614 34.2583 33.1785C34.2843 33.1175 34.3225 33.0644 34.3475 33.0033L49.3308 41.6552C47.9955 42.7665 46.3307 43.4055 44.5952 43.4724V43.4713Z" fill="#A7D74A"/>
<path d="M47.9339 30.1729C47.9339 31.5713 47.7933 32.9655 47.5141 34.3359L49.645 34.7705C51.6134 25.1384 47.2042 15.3259 38.6951 10.4019L37.6082 12.2822C43.9869 15.9845 47.919 22.7974 47.9339 30.1729Z" fill="#A7D74A"/>
<path d="M42.4994 30.1731H44.6732C44.6706 25.2251 42.5631 20.5113 38.8767 17.2107L37.4268 18.8299C40.6525 21.7187 42.4968 25.8429 42.4994 30.1731Z" fill="#A7D74A"/>
</svg>
