<svg width="56" height="56" viewBox="0 0 56 56" fill="none" xmlns="http://www.w3.org/2000/svg">
<path d="M20.9977 30.864V7.34657C20.9977 3.28912 17.7086 0 13.6512 0C9.5937 0 6.30459 3.28912 6.30459 7.34657V30.8535C-0.0453408 34.9048 -1.90887 43.3368 2.14244 49.6867C4.6426 53.6053 8.96635 55.9808 13.6146 55.9896L13.6877 56C21.22 55.9859 27.3146 49.8683 27.3005 42.3361C27.2918 37.6879 24.9163 33.3641 20.9977 30.864ZM7.91279 52.3698C2.38354 49.1775 0.489204 42.1073 3.68146 36.5782C4.69612 34.8208 6.15538 33.3615 7.91279 32.3469C8.23717 32.1595 8.43637 31.8128 8.43493 31.4383V7.34657C8.43493 4.44267 10.789 2.08858 13.6929 2.08858C16.5968 2.08858 18.9509 4.44267 18.9509 7.34657V31.4383C18.9495 31.8128 19.1487 32.1595 19.4731 32.3469C25.0023 35.5391 26.8967 42.6093 23.7044 48.1385C20.5121 53.6677 13.4419 55.5622 7.91279 52.3698Z" fill="#A7D74A"/>
<path d="M14.7319 34.8532V19.0113C14.7319 18.4346 14.2643 17.967 13.6876 17.967C13.1109 17.967 12.6433 18.4346 12.6433 19.0113V34.8532C8.69837 35.4189 5.95894 39.0755 6.52468 43.0205C7.03534 46.5812 10.0904 49.2221 13.6876 49.2122C17.6729 49.2231 20.9125 46.0014 20.9236 42.0161C20.9335 38.4189 18.2926 35.3639 14.7319 34.8532ZM13.6876 47.1132C10.8557 47.1132 8.56013 44.8176 8.56013 41.9857C8.56588 39.1563 10.8581 36.864 13.6876 36.8582C16.5194 36.8582 18.815 39.1538 18.815 41.9857C18.815 44.8176 16.5193 47.1132 13.6876 47.1132Z" fill="#A7D74A"/>
<path d="M31.1795 7.17944H24.6527C24.076 7.17944 23.6084 7.64702 23.6084 8.22373C23.6084 8.80044 24.076 9.26802 24.6527 9.26802H31.1795C31.7562 9.26802 32.2238 8.80044 32.2238 8.22373C32.2238 7.64702 31.7562 7.17944 31.1795 7.17944Z" fill="#A7D74A"/>
<path d="M29.7909 12.4009H25.9584C25.3816 12.4009 24.9141 12.8685 24.9141 13.4452C24.9141 14.0219 25.3816 14.4895 25.9584 14.4895H29.7909C30.3676 14.4895 30.8352 14.0219 30.8352 13.4452C30.8352 12.8685 30.3676 12.4009 29.7909 12.4009Z" fill="#A7D74A"/>
<path d="M31.1795 17.6223H24.6527C24.076 17.6223 23.6084 18.0899 23.6084 18.6666C23.6084 19.2433 24.076 19.7109 24.6527 19.7109H31.1795C31.7562 19.7109 32.2238 19.2433 32.2238 18.6666C32.2238 18.0899 31.7562 17.6223 31.1795 17.6223Z" fill="#A7D74A"/>
<path d="M29.7909 22.8438H25.9584C25.3816 22.8438 24.9141 23.3113 24.9141 23.888C24.9141 24.4647 25.3816 24.9323 25.9584 24.9323H29.7909C30.3676 24.9323 30.8352 24.4647 30.8352 23.888C30.8352 23.3113 30.3676 22.8438 29.7909 22.8438Z" fill="#A7D74A"/>
<path d="M31.1795 28.0652H24.6527C24.076 28.0652 23.6084 28.5328 23.6084 29.1095C23.6084 29.6862 24.076 30.1537 24.6527 30.1537H31.1795C31.7562 30.1537 32.2238 29.6862 32.2238 29.1095C32.2238 28.5328 31.7562 28.0652 31.1795 28.0652Z" fill="#A7D74A"/>
<rect x="38.75" y="12.75" width="16.5" height="30.5" rx="1.25" stroke="#A7D74A" stroke-width="1.5"/>
<path d="M46.567 19.75C46.7594 19.4167 47.2406 19.4167 47.433 19.75L50.0311 24.25C50.2235 24.5833 49.983 25 49.5981 25H44.4019C44.017 25 43.7765 24.5833 43.9689 24.25L46.567 19.75Z" stroke="#A7D74A" stroke-width="1.5"/>
<path d="M47.433 36.25C47.2406 36.5833 46.7594 36.5833 46.567 36.25L43.9689 31.75C43.7765 31.4167 44.017 31 44.4019 31L49.5981 31C49.983 31 50.2235 31.4167 50.0311 31.75L47.433 36.25Z" stroke="#A7D74A" stroke-width="1.5"/>
</svg>
