<svg width="56" height="56" viewBox="0 0 56 56" fill="none" xmlns="http://www.w3.org/2000/svg">
<path d="M43.9 23.1999V23.2C43.9 23.2299 43.9038 23.2572 43.9068 23.2781C43.9071 23.28 43.9073 23.2818 43.9076 23.2836L40.9 25.7108V20.8C40.9 19.8611 40.1389 19.1 39.2 19.1H36.9V6.4C36.9 5.01929 35.7807 3.9 34.4 3.9H6.4C5.01929 3.9 3.9 5.01929 3.9 6.4V49.6C3.9 50.9807 5.01929 52.1 6.4 52.1H34.4C35.7807 52.1 36.9 50.9807 36.9 49.6V40.1H39.2C40.1389 40.1 40.9 39.3389 40.9 38.4V32.1422L47.0579 27.1777C48.5797 27.5398 50.177 27.0028 51.171 25.7911C52.1755 24.5664 52.3836 22.8722 51.7052 21.4409C51.0269 20.0096 49.5838 19.0979 47.9999 19.1C45.7367 19.1027 43.9027 20.9367 43.9 23.1999ZM35.1 49.6C35.1 49.9866 34.7866 50.3 34.4 50.3H6.4C6.0134 50.3 5.7 49.9866 5.7 49.6V6.4C5.7 6.0134 6.0134 5.7 6.4 5.7H34.4C34.7866 5.7 35.1 6.0134 35.1 6.4V49.6ZM39.1 38.3H36.9V20.9H39.1V38.3ZM40.9 28.0222L44.4289 25.176C44.6586 25.5895 44.9582 25.9602 45.3143 26.2716L40.9 29.8301V28.0222ZM48 25.5C46.7297 25.5 45.7 24.4703 45.7 23.2C45.7 21.9297 46.7297 20.9 48 20.9C49.2703 20.9 50.3 21.9297 50.3 23.2C50.3 24.4703 49.2703 25.5 48 25.5Z" fill="#A7D74A" stroke="#A7D74A" stroke-width="0.2"/>
<path d="M29.6001 23.1H29.6H23.6483L27.2541 12.2844L27.2541 12.2844C27.3455 12.0099 27.2994 11.7082 27.1302 11.4735C26.961 11.2389 26.6893 11.0999 26.4 11.1C26.4 11.1 26.4 11.1 26.4 11.1L15.2 11.1L15.2 11.1C14.7679 11.1001 14.3969 11.4072 14.3162 11.8316C14.3162 11.8316 14.3162 11.8316 14.3162 11.8317L11.1162 28.6316L11.2144 28.6504L11.1162 28.6317C11.066 28.895 11.1359 29.1671 11.3068 29.3736C11.4777 29.5802 11.7318 29.6999 12 29.7H12H15.5516L10.3459 45.3155L10.3459 45.3156C10.2101 45.7243 10.3829 46.1719 10.758 46.3833C11.1331 46.5948 11.6055 46.5109 11.8849 46.1832L11.8849 46.1832L30.2849 24.5832L30.285 24.5832C30.5123 24.316 30.5636 23.9411 30.4166 23.6226C30.2695 23.3042 29.9508 23.1002 29.6001 23.1ZM22.4 24.9H27.6506L13.5184 41.4905L17.6541 29.0844L17.6541 29.0844C17.7455 28.8099 17.6994 28.5082 17.5302 28.2735C17.361 28.0389 17.0893 27.8999 16.8 27.9H13.0872L15.9451 12.9H25.1516L21.5459 23.7155L21.5459 23.7156C21.4545 23.99 21.5006 24.2917 21.6698 24.5264C21.839 24.761 22.1107 24.9 22.4 24.9C22.4 24.9 22.4 24.9 22.4 24.9Z" fill="#A7D74A" stroke="#A7D74A" stroke-width="0.2"/>
</svg>
