<svg width="56" height="56" viewBox="0 0 56 56" fill="none" xmlns="http://www.w3.org/2000/svg">
<g clip-path="url(#clip0)">
<path d="M55.3611 20.2544L36.9472 14.1315C36.7918 14.0158 36.6088 13.9344 36.4 13.9344H32.7533C32.5318 13.2818 32.2711 12.6529 31.974 12.054L34.5497 9.47005C34.9134 9.10547 34.9134 8.51484 34.5488 8.15117L29.1822 2.78451C28.8176 2.41992 28.2279 2.42083 27.8633 2.78359L25.2793 5.35938C24.6805 5.06224 24.0516 4.80156 23.399 4.58008V0.933333C23.399 0.417448 22.9815 0 22.4656 0H14.8677C14.3518 0 13.9344 0.417448 13.9344 0.933333V4.58008C13.2818 4.80156 12.6529 5.06224 12.054 5.35938L9.47005 2.78359C9.10547 2.42083 8.51575 2.41992 8.15117 2.78451L2.78451 8.15117C2.41992 8.51484 2.41992 9.10547 2.78359 9.47005L5.35938 12.054C5.06224 12.6529 4.80156 13.2818 4.58008 13.9344H0.933333C0.417448 13.9344 0 14.3518 0 14.8677V22.4656C0 22.9815 0.417448 23.399 0.933333 23.399H4.58008C4.80156 24.0516 5.06224 24.6805 5.35938 25.2793L2.78359 27.8633C2.41992 28.2279 2.41992 28.8185 2.78451 29.1822L8.15117 34.5488C8.51575 34.9134 9.10547 34.9125 9.47005 34.5497L12.054 31.974C12.6529 32.2711 13.2818 32.5318 13.9344 32.7533V36.4C13.9344 36.9159 14.3518 37.3333 14.8677 37.3333H16.8V42V45.7333V55.0667C16.8 55.5826 17.2174 56 17.7333 56H26.1333H29.8667H33.6H41.0667H44.8H48.5333H55.0667C55.5826 56 56 55.5826 56 55.0667V21.1404C56 20.7384 55.743 20.3811 55.3611 20.2544ZM15.801 35.4667V32.0697C15.801 31.6549 15.5276 31.2904 15.1293 31.1737C14.1312 30.882 13.1924 30.4919 12.3375 30.0134C11.9738 29.812 11.519 29.8721 11.2228 30.1674L8.81198 32.5701L4.76328 28.5214L7.16589 26.1105C7.46029 25.8152 7.52318 25.3595 7.31992 24.9958C6.84141 24.1409 6.4513 23.2021 6.15964 22.204C6.04297 21.8057 5.67839 21.5323 5.26367 21.5323H1.86667V15.801H5.26367C5.67839 15.801 6.04297 15.5276 6.15964 15.1293C6.4513 14.1312 6.84141 13.1924 7.31992 12.3375C7.52318 11.9738 7.46029 11.5181 7.16589 11.2228L4.76328 8.81198L8.81198 4.76328L11.2228 7.16589C11.5181 7.4612 11.9729 7.52044 12.3375 7.31992C13.1924 6.84141 14.1312 6.4513 15.1293 6.15964C15.5276 6.04297 15.801 5.67839 15.801 5.26367V1.86667H21.5323V5.26367C21.5323 5.67839 21.8057 6.04297 22.204 6.15964C23.2021 6.4513 24.1409 6.84141 24.9958 7.31992C25.3604 7.52135 25.8152 7.46211 26.1105 7.16589L28.5214 4.76328L32.5701 8.81198L30.1674 11.2228C29.873 11.5181 29.8102 11.9738 30.0134 12.3375C30.4919 13.1924 30.882 14.1312 31.1737 15.1293C31.2904 15.5276 31.6549 15.801 32.0697 15.801H35.4667C35.4667 19.2077 35.5296 25.2 35.5296 25.2H29.8667V18.6667C29.8667 18.3896 29.7436 18.1271 29.5303 17.9493L26.3639 15.3107C26.2892 15.1377 26.1909 14.9815 26.1059 14.8156C26.0188 14.6457 25.9393 14.4711 25.8418 14.309C25.7252 14.1152 25.5904 13.9375 25.4598 13.7553C25.3505 13.603 25.2491 13.4448 25.1306 13.301C24.988 13.128 24.8284 12.9732 24.6731 12.8131C24.5451 12.6811 24.4247 12.5417 24.2887 12.4188C24.122 12.2683 23.9397 12.1385 23.7618 12.0023C23.6182 11.8924 23.4821 11.7734 23.3316 11.6731C23.1411 11.5461 22.9366 11.4423 22.7359 11.3313C22.582 11.2461 22.4349 11.15 22.2755 11.0746C22.0577 10.9716 21.8274 10.8947 21.6003 10.8106C21.4446 10.7529 21.2952 10.6821 21.1356 10.6336C20.8773 10.5551 20.6084 10.5064 20.3411 10.4527C20.2021 10.4247 20.0684 10.3817 19.9273 10.3607C19.5148 10.2993 19.094 10.2667 18.6667 10.2667C14.0346 10.2667 10.2667 14.0346 10.2667 18.6667C10.2667 18.9228 10.2794 19.1762 10.302 19.4271C10.3097 19.5116 10.3247 19.5938 10.3348 19.6776C10.3548 19.843 10.3744 20.0083 10.4039 20.1707C10.4215 20.2675 10.446 20.3618 10.4669 20.4575C10.4989 20.604 10.5302 20.7505 10.5697 20.8942C10.5971 20.9935 10.6302 21.0901 10.661 21.188C10.704 21.3241 10.7468 21.46 10.7964 21.5931C10.8331 21.6918 10.8746 21.788 10.9149 21.8849C10.9681 22.013 11.022 22.1404 11.0813 22.2653C11.1271 22.3616 11.1764 22.4557 11.2257 22.55C11.2886 22.6702 11.3527 22.7893 11.4211 22.9061C11.4755 22.999 11.5323 23.0898 11.5901 23.1803C11.6625 23.2939 11.737 23.4057 11.8147 23.5155C11.8765 23.6028 11.9397 23.6886 12.0047 23.7735C12.0866 23.8803 12.171 23.9846 12.2578 24.0873C12.3269 24.169 12.3965 24.2499 12.4686 24.329C12.5591 24.4283 12.6528 24.5242 12.7479 24.619C12.8236 24.6944 12.899 24.7697 12.9775 24.8423C13.0771 24.9343 13.1805 25.022 13.2846 25.1092C13.3654 25.1769 13.4452 25.2454 13.5287 25.3102C13.6376 25.3948 13.7507 25.4739 13.864 25.5531C13.9491 25.6127 14.0328 25.6741 14.1203 25.7306C14.2405 25.8083 14.3652 25.8792 14.4897 25.9508C14.5758 26.0003 14.6598 26.0527 14.7479 26.0993C14.8846 26.1716 15.0262 26.2356 15.1675 26.3005C15.2489 26.3378 15.3278 26.3793 15.4107 26.4142C15.6005 26.494 15.7953 26.5642 15.9922 26.6302C16.03 26.6428 16.0659 26.6591 16.1039 26.6713C16.3317 26.744 16.5639 26.8073 16.8 26.8607V35.4667H15.801ZM16.8 18.6667V24.9277C16.7853 24.9233 16.77 24.9201 16.7553 24.9156C16.4603 24.8257 16.1761 24.7131 15.901 24.5843C15.8494 24.5601 15.798 24.5358 15.7471 24.5104C15.479 24.3761 15.2212 24.2252 14.9763 24.0567C14.9333 24.0272 14.892 23.9956 14.8499 23.9651C14.6022 23.7859 14.3646 23.5936 14.145 23.3824C14.1249 23.363 14.1068 23.3417 14.0869 23.3221C13.8719 23.1099 13.6719 22.8828 13.4879 22.643C13.4699 22.6195 13.4499 22.5976 13.4322 22.5738C13.2499 22.3294 13.0884 22.0695 12.9413 21.8009C12.9166 21.7558 12.8908 21.7115 12.8672 21.6657C12.7298 21.4003 12.6112 21.1242 12.5107 20.8398C12.4923 20.7877 12.4752 20.735 12.4582 20.6823C12.3636 20.3914 12.2863 20.0932 12.2331 19.7868C12.2258 19.745 12.2217 19.7023 12.2153 19.6602C12.1654 19.3351 12.1333 19.0044 12.1333 18.6667C12.1333 15.0646 15.0646 12.1333 18.6667 12.1333C19.0166 12.1333 19.3605 12.1633 19.6975 12.2162C19.8084 12.2335 19.9137 12.2673 20.0228 12.2902C20.2454 12.3368 20.4681 12.3835 20.6824 12.4522C20.8077 12.4924 20.9262 12.5477 21.0483 12.5952C21.2368 12.6686 21.4256 12.7412 21.6055 12.8313C21.7314 12.8945 21.8499 12.9699 21.9712 13.041C22.1349 13.1368 22.2981 13.2331 22.4526 13.3428C22.49 13.3695 22.5238 13.4008 22.5607 13.4283L17.1354 17.9493C16.923 18.1271 16.8 18.3896 16.8 18.6667ZM18.6667 26.0777V19.1042L23.3333 15.215L24.994 16.6013L28 19.1042V25.2H26.1333C25.6174 25.2 25.2 25.6174 25.2 26.1333V28H22.4C21.8841 28 21.4667 28.4174 21.4667 28.9333V32.6667C21.4667 33.1826 21.8841 33.6 22.4 33.6H25.2V49.4667H22.4C21.8841 49.4667 21.4667 49.8841 21.4667 50.4C21.4667 50.9159 21.8841 51.3333 22.4 51.3333H25.2V54.1333H18.6667C18.6667 43.517 18.6667 37.4132 18.6667 26.0777ZM25.2 31.7333H23.3333V29.8667H25.2V31.7333ZM27.0667 32.6667V28.9333V27.0667H28.9333H31.5091H36.4H40.1333V35.4667V41.0667V54.1333H34.5333V49.4667C34.5333 48.9508 34.1159 48.5333 33.6 48.5333H29.8667C29.3508 48.5333 28.9333 48.9508 28.9333 49.4667V54.1333H27.0667V32.6667ZM30.8 54.1333V50.4H32.6667V54.1333H30.8ZM45.7333 54.1333V49.4667H47.6V54.1333H45.7333ZM49.4667 54.1333V48.5333C49.4667 48.0174 49.0492 47.6 48.5333 47.6H44.8C44.2841 47.6 43.8667 48.0174 43.8667 48.5333V54.1333H42C42 42.5414 42 37.8035 42 26.1333C42 25.6174 41.5826 25.2 41.0667 25.2H37.3333C37.3333 22.2092 37.3333 19.2184 37.3333 16.2276L54.1333 21.8139V43.8667H51.3333C50.8174 43.8667 50.4 44.2841 50.4 44.8C50.4 45.3159 50.8174 45.7333 51.3333 45.7333H54.1333C54.1333 50.2476 54.1333 49.5627 54.1333 54.1333H49.4667Z" fill="#A7D74A"/>
<path d="M52.2667 30.7999V25.1999C52.2667 24.684 51.8493 24.2666 51.3334 24.2666H47.6001C47.0842 24.2666 46.6667 24.684 46.6667 25.1999V30.7999C46.6667 31.3158 47.0842 31.7333 47.6001 31.7333H51.3334C51.8493 31.7333 52.2667 31.3158 52.2667 30.7999ZM50.4001 29.8666H48.5334V26.1333H50.4001V29.8666Z" fill="#A7D74A"/>
<path d="M25.1999 24.2667C25.7158 24.2667 26.1332 23.8493 26.1332 23.3334V19.6001C26.1332 19.0842 25.7158 18.6667 25.1999 18.6667H21.4665C20.9507 18.6667 20.5332 19.0842 20.5332 19.6001V23.3334C20.5332 23.8493 20.9507 24.2667 21.4665 24.2667H25.1999ZM22.3999 20.5334H24.2665V22.4001H22.3999V20.5334Z" fill="#A7D74A"/>
<path d="M31.7334 34.5334H35.4667C35.9826 34.5334 36.4001 34.1159 36.4001 33.6V29.8667C36.4001 29.3508 35.9826 28.9333 35.4667 28.9333H31.7334C31.2175 28.9333 30.8 29.3508 30.8 29.8667V33.6C30.8 34.1159 31.2175 34.5334 31.7334 34.5334ZM32.6667 30.8H34.5334V32.6667H32.6667V30.8Z" fill="#A7D74A"/>
<path d="M29.8667 39.1999H37.3334C37.8492 39.1999 38.2667 38.7825 38.2667 38.2666C38.2667 37.7507 37.8492 37.3333 37.3334 37.3333H29.8667C29.3508 37.3333 28.9333 37.7507 28.9333 38.2666C28.9333 38.7825 29.3508 39.1999 29.8667 39.1999Z" fill="#A7D74A"/>
<path d="M29.8667 42.9333H37.3334C37.8492 42.9333 38.2667 42.5159 38.2667 42C38.2667 41.4841 37.8492 41.0667 37.3334 41.0667H29.8667C29.3508 41.0667 28.9333 41.4841 28.9333 42C28.9333 42.5159 29.3508 42.9333 29.8667 42.9333Z" fill="#A7D74A"/>
<path d="M29.8667 46.6667H37.3334C37.8492 46.6667 38.2667 46.2493 38.2667 45.7334C38.2667 45.2175 37.8492 44.8 37.3334 44.8H29.8667C29.3508 44.8 28.9333 45.2175 28.9333 45.7334C28.9333 46.2493 29.3508 46.6667 29.8667 46.6667Z" fill="#A7D74A"/>
</g>
<defs>
<clipPath id="clip0">
<rect width="56" height="56" fill="white"/>
</clipPath>
</defs>
</svg>
