<svg width="56" height="56" viewBox="0 0 56 56" fill="none" xmlns="http://www.w3.org/2000/svg">
<path d="M54.9062 53.8125H1.09375C0.489672 53.8125 0 54.3022 0 54.9062C0 55.5103 0.489672 56 1.09375 56H54.9062C55.5103 56 56 55.5103 56 54.9062C56 54.3022 55.5103 53.8125 54.9062 53.8125Z" fill="#A7D74A"/>
<path d="M31.8267 47.9062C31.8267 48.5103 32.3163 49 32.9204 49H54.9062C55.5103 49 56 48.5103 56 47.9062C56 47.3022 55.5103 46.8125 54.9062 46.8125H32.9204C32.3163 46.8125 31.8267 47.3022 31.8267 47.9062Z" fill="#A7D74A"/>
<path d="M1.09375 49H23.0781C23.6822 49 24.1719 48.5103 24.1719 47.9062C24.1719 47.3022 23.6822 46.8125 23.0781 46.8125H1.09375C0.489672 46.8125 0 47.3022 0 47.9062C0 48.5103 0.489672 49 1.09375 49Z" fill="#A7D74A"/>
<path d="M9.33963 32.3203C9.54219 32.6712 9.9098 32.8673 10.2878 32.8673C10.4733 32.8673 10.6614 32.82 10.8337 32.7206L15.1218 30.2448L14.4105 32.8997C14.2541 33.4832 14.6003 34.0829 15.1839 34.2393C15.2787 34.2647 15.374 34.2768 15.4677 34.2768C15.9506 34.2768 16.3926 33.9545 16.5235 33.4659L17.801 28.698L20.3203 27.2435L26.906 31.0458V33.9549L23.4156 37.4453C22.9885 37.8724 22.9885 38.565 23.4156 38.9922C23.8428 39.4193 24.5353 39.4193 24.9625 38.9922L26.906 37.0485V42C26.906 42.6041 27.3957 43.0938 27.9998 43.0938C28.6038 43.0938 29.0935 42.6041 29.0935 42V37.0485L31.037 38.992C31.2506 39.2056 31.5305 39.3123 31.8104 39.3123C32.0903 39.3123 32.3703 39.2056 32.5838 38.992C33.0109 38.5649 33.0109 37.8723 32.5838 37.4451L29.0935 33.9548V31.0617L35.693 27.2515L38.1984 28.6981L39.4759 33.466C39.6069 33.9547 40.0487 34.2769 40.5317 34.2769C40.6254 34.2769 40.7207 34.2648 40.8156 34.2394C41.399 34.0831 41.7453 33.4833 41.589 32.8998L40.8776 30.2449L45.1657 32.7207C45.338 32.8202 45.526 32.8674 45.7116 32.8674C46.0896 32.8674 46.4572 32.6713 46.6598 32.3204C46.9619 31.7973 46.7826 31.1283 46.2595 30.8264L41.9713 28.3507L44.6263 27.6393C45.2097 27.483 45.556 26.8832 45.3997 26.2997C45.2433 25.7162 44.6439 25.3696 44.0601 25.5263L39.2922 26.8038L36.7867 25.3572V17.7367L39.2922 16.2901L44.0601 17.5676C44.1549 17.593 44.2502 17.6051 44.3439 17.6051C44.8268 17.6051 45.2688 17.2828 45.3997 16.7942C45.5561 16.2107 45.2098 15.611 44.6263 15.4546L41.9713 14.7432L46.2595 12.2675C46.7826 11.9655 46.9619 11.2966 46.6598 10.7734C46.3577 10.2503 45.6889 10.0709 45.1657 10.3731L40.8776 12.8489L41.589 10.1941C41.7454 9.61056 41.3991 9.01086 40.8156 8.85445C40.2319 8.69794 39.6323 9.04433 39.4759 9.62784L38.1984 14.3957L35.6791 15.8503L29.0935 12.048V9.13894L32.5839 5.64856C33.011 5.22145 33.011 4.52889 32.5839 4.10167C32.1568 3.67456 31.4642 3.67456 31.037 4.10167L29.0935 6.04527V1.09375C29.0935 0.489672 28.6038 0 27.9998 0C27.3957 0 26.906 0.489672 26.906 1.09375V6.04527L24.9625 4.10178C24.5354 3.67467 23.8429 3.67467 23.4156 4.10178C22.9885 4.52889 22.9885 5.22145 23.4156 5.64867L26.906 9.13894V12.0641L20.3343 15.8583L17.8011 14.3957L16.5236 9.62784C16.3672 9.04444 15.7673 8.69783 15.184 8.85445C14.6006 9.01075 14.2543 9.61056 14.4106 10.1941L15.122 12.8489L10.8337 10.3731C10.3104 10.0712 9.64161 10.2503 9.33963 10.7734C9.03753 11.2966 9.2168 11.9655 9.73994 12.2675L14.0281 14.7432L11.3731 15.4546C10.7897 15.6109 10.4434 16.2107 10.5997 16.7942C10.7307 17.2829 11.1725 17.6051 11.6555 17.6051C11.7492 17.6051 11.8445 17.593 11.9394 17.5676L16.7072 16.2901L19.2405 17.7527V25.3411L16.7072 26.8037L11.9394 25.5262C11.3558 25.3698 10.756 25.716 10.5997 26.2995C10.4433 26.8831 10.7896 27.4828 11.3731 27.6392L14.0281 28.3505L9.73994 30.8263C9.21691 31.1282 9.03753 31.7972 9.33963 32.3203ZM22.5078 25.9806L26.906 23.4412V28.5198L22.5078 25.9806ZM29.0935 28.5358V23.4412L33.5056 25.9885L29.0935 28.5358ZM34.5992 24.0941L30.1873 21.5469L34.5993 18.9996V24.0941H34.5992ZM33.4917 17.1131L29.0935 19.6525V14.574L33.4917 17.1131ZM26.906 14.59V19.6525L22.5217 17.1212L26.906 14.59ZM21.4281 19.0156L25.8123 21.5469L21.428 24.0781V19.0156H21.4281Z" fill="#A7D74A"/>
<path d="M28 46.8125C27.7123 46.8125 27.4302 46.9295 27.2267 47.133C27.0233 47.3364 26.9062 47.6186 26.9062 47.9062C26.9062 48.1939 27.0233 48.4761 27.2267 48.6795C27.4302 48.883 27.7123 49 28 49C28.2877 49 28.5698 48.883 28.7733 48.6795C28.9767 48.4761 29.0938 48.1939 29.0938 47.9062C29.0938 47.6186 28.9767 47.3364 28.7733 47.133C28.5698 46.9295 28.2877 46.8125 28 46.8125Z" fill="#A7D74A"/>
</svg>
