<svg width="56" height="56" viewBox="0 0 56 56" fill="none" xmlns="http://www.w3.org/2000/svg">
<path d="M28.9971 49.1826H26.7246V51.4551H28.9971V49.1826Z" fill="#A7D74A"/>
<path d="M44.9043 17.0435C44.9043 16.7421 44.7846 16.4531 44.5716 16.24C44.3585 16.027 44.0695 15.9072 43.7681 15.9072H41.4957C39.4873 15.9094 37.5091 16.396 35.7289 17.3257C33.9487 18.2553 32.419 19.6007 31.2696 21.2475V7.95362C31.2696 7.65228 31.1499 7.36327 30.9368 7.15019C30.7237 6.9371 30.4347 6.81739 30.1333 6.81739H28.9971V0H26.7246V6.81739H25.5884C25.2871 6.81739 24.9981 6.9371 24.785 7.15019C24.5719 7.36327 24.4522 7.65228 24.4522 7.95362V21.2475C23.3027 19.6007 21.773 18.2553 19.9928 17.3257C18.2126 16.396 16.2344 15.9094 14.2261 15.9072H11.9536C11.6523 15.9072 11.3633 16.027 11.1502 16.24C10.9371 16.4531 10.8174 16.7421 10.8174 17.0435V18.1797H4V20.4522H10.8174V21.5884C10.8174 21.8898 10.9371 22.1788 11.1502 22.3918C11.3633 22.6049 11.6523 22.7246 11.9536 22.7246H14.2261C15.7323 22.7264 17.1762 23.3256 18.2413 24.3906C19.3063 25.4556 19.9054 26.8996 19.9072 28.4058V31.8145H18.771C18.4697 31.8145 18.1807 31.9342 17.9676 32.1473C17.7545 32.3604 17.6348 32.6494 17.6348 32.9507V54.8638C17.6348 55.1651 17.7545 55.4541 17.9676 55.6672C18.1807 55.8803 18.4697 56 18.771 56H36.9507C37.2521 56 37.5411 55.8803 37.7542 55.6672C37.9672 55.4541 38.087 55.1651 38.087 54.8638V32.9507C38.087 32.6494 37.9672 32.3604 37.7542 32.1473C37.5411 31.9342 37.2521 31.8145 36.9507 31.8145H35.8145V28.4058C35.8163 26.8996 36.4154 25.4556 37.4805 24.3906C38.5455 23.3256 39.9895 22.7264 41.4957 22.7246H43.7681C44.0695 22.7246 44.3585 22.6049 44.5716 22.3918C44.7846 22.1788 44.9043 21.8898 44.9043 21.5884V20.4522H51.7217V18.1797H44.9043V17.0435ZM26.7246 28.4058V9.08986H28.9971V31.8145H26.7246V28.4058ZM14.2261 20.4522H13.0899V18.1797H14.2261C16.9373 18.1827 19.5366 19.2611 21.4537 21.1782C23.3708 23.0953 24.4492 25.6946 24.4522 28.4058V31.8145H22.1797V28.4058C22.177 26.2972 21.3382 24.2757 19.8472 22.7847C18.3562 21.2937 16.3347 20.4549 14.2261 20.4522ZM35.8145 36.3594H32.4058V38.6319H35.8145V53.7275H19.9072V38.6319H27.8609V36.3594H19.9072V34.087H35.8145V36.3594ZM42.6319 20.4522H41.4957C39.3871 20.4549 37.3656 21.2937 35.8746 22.7847C34.3836 24.2757 33.5447 26.2972 33.542 28.4058V31.8145H31.2696V28.4058C31.2726 25.6946 32.3509 23.0953 34.268 21.1782C36.1852 19.2611 38.7845 18.1827 41.4957 18.1797H42.6319V20.4522Z" fill="#A7D74A"/>
<path d="M24.4522 49.1826H22.1797V51.4551H24.4522V49.1826Z" fill="#A7D74A"/>
</svg>
